<?xml version="1.0" encoding="utf-8"?>
<!-- Generator: Adobe Illustrator 28.0.0, SVG Export Plug-In . SVG Version: 6.00 Build 0)  -->
<svg version="1.1" id="Capa_1" xmlns="http://www.w3.org/2000/svg" xmlns:xlink="http://www.w3.org/1999/xlink" x="0px" y="0px"
	 viewBox="0 0 385 474.2" style="enable-background:new 0 0 385 474.2;" xml:space="preserve">
<style type="text/css">
	.st0{fill:#97A7B0;}
	.st1{fill:#F5EDE3;}
	.st2{fill:#F9B7BB;}
	.st3{fill:#DED9D6;}
	.st4{fill:#665067;}
	.st5{fill:#89C9D1;}
	.st6{fill:#F1F2F2;}
	.st7{fill:#E7E3DE;}
	.st8{fill:#CED5DB;}
	.st9{fill:#BEC4CD;}
	.st10{fill:#E6946D;}
	.st11{fill:#E18261;}
	.st12{fill:#D1D6DC;}
	.st13{fill:#ACB8C1;}
	.st14{fill:#E7E9EA;}
	.st15{fill:#565D6B;}
	.st16{fill:#4B525F;}
	.st17{fill:#9C6B66;}
	.st18{fill:#F7E7C0;}
	.st19{fill:#F5CEA7;}
	.st20{fill:#FFFFFF;}
	.st21{fill:#C5CAD3;}
	.st22{fill:#ACB5C2;}
	.st23{fill:#F9E8AB;}
	.st24{fill:#F5C98A;}
	.st25{fill:#F2AC79;}
	.st26{fill:#F1A874;}
	.st27{fill:#F7A8B2;}
	.st28{fill:#CB9683;}
	.st29{fill:#C08977;}
	.st30{fill:#BC8A78;}
	.st31{fill:#B6786C;}
	.st32{fill:#F5DEC7;}
	.st33{fill:#D6A189;}
	.st34{fill:#F6D1A0;}
	.st35{fill:#F4BE89;}
	.st36{fill:#D48B6F;}
	.st37{fill:#F3C9B7;}
	.st38{fill:#C1775A;}
	.st39{fill:#D59979;}
	.st40{fill:#F2B59B;}
	.st41{fill:#DB9572;}
	.st42{fill:#F8B4BD;}
	.st43{fill:#FACAD3;}
	.st44{fill:#F7D37F;}
	.st45{fill:#BCDFE9;}
	.st46{fill:#F7CE6D;}
</style>
<path class="st17" d="M287.5,418.4c38.3-23.8,62.5-68.8,61-113.9c-0.6-17.2-5.3-35.5-18.3-46.8c5.9,23,4.7,47.8-3.6,70
	c-8.3,22.3-23.5,41.9-43,55.4c1.4,6.9,1.9,13.9,1.5,20.9L287.5,418.4z"/>
<path class="st18" d="M272.4,68.4c-3.6-2.8-7.5-5.5-11.8-8.1c-10.8-6.6-22.4-11.7-34.5-15.4c-6.3-2-12.9-3.9-19.5-4.8
	c-4.7-0.7-9.6,0.2-9.9-6.4c-0.1-2.9,1.1-5.6,2.5-8.2c-6.4-1.2-13.4,1.1-17.8,6c-1.3-7.2-5-14-10.5-18.9c1.8,4.6,1.6,9.9-0.4,14.4
	c-1.5,3.4-5.6,6.5-8.6,4.3c-1.7-1.3-2.1-3.8-1.4-5.8c0.7-2,2.2-3.7,3.7-5.2c-6.8,0.3-12.7,4.7-17.8,9.3c-5,4.5-10,9.6-16.6,11.7
	c-6.7,2.1-13.7,3.4-20.4,5.8c-13.7,5-26.6,12.1-37.7,21.5C46.4,90.1,32.5,125,36.6,157.3c4.4,34.5,33.1,59.1,63.8,72.7
	c11.5,5.1,23.7,8.7,36.1,11.1c21.7,5.4,46.6,3.9,68.3-0.6c47.8-9.9,90-41.4,96.9-92.4c2.4-17.6-0.3-35.8-7.6-51.9
	C288.7,84.1,281.7,75.7,272.4,68.4z"/>
<path class="st17" d="M192.3,129.4c6.8-14.7,21.9-25.9,38.6-28.1c12.8-1.7,26,2.3,36.9,9.4c7.3,4.7,13.9,11,17.6,18.9
	c5.3,11.6,3.5,25.9-3.5,36.6c-7,10.7-18.8,17.9-31.3,20.6c-24.1,5.2-52.5-3.5-60.3-29.1C187.2,147.7,188.3,137.9,192.3,129.4z"/>
<path class="st18" d="M287.3,295.2c-13-31.2-32.9-59.6-52.7-87.9c-2.6-3.7-5.5-7.6-10-9.4c-3.7-1.5-7.9-1.2-11.9-1
	c-30.1,2-60.3,3.9-90.4,5.9l-12.8,3.2c-22.4,30.2-39.7,63.4-50.9,98.2c-6.1,19-10.5,38.6-9.8,58.4c1.2,32.8,17.3,64.8,45.3,82.6
	c24,15.2,52.2,15.3,79.6,16.7c28.3,1.4,56.8-3.3,83.2-13.7c13.5-5.3,26.2-14,33.8-26.4C312.8,385.8,302.6,331.7,287.3,295.2z"/>
<path class="st18" d="M119,313.6c-0.2,42.6,6.6,86.4,22,126.1c2.4,6.2,7.1,11.6,8.6,18.1l0,0.5l-1,0.5c-2.4,0.2-4.7,0.9-6.8,2.1
	c-1.4,0.8-2.8,2.3-2.1,3.8c0.5,1.1,2,1.3,3.2,1.3c9.9,0.4,30.4,3,30.8-11.3c1.3-47.9,0.1-106.7,0.9-141.1"/>
<path class="st19" d="M117.1,313.6l0,1.5c0,42.3,6.8,85.7,22.2,125.2c2.6,6.6,7.2,11.9,8.5,17.8l1.8-0.4l-1.8,0.1l0,0.5l1.8-0.1
	l-0.8-1.6l-1,0.5l0.8,1.6l-0.2-1.8c-2.7,0.2-5.3,1-7.6,2.3c-0.7,0.4-1.5,1-2.1,1.7c-0.6,0.7-1.1,1.6-1.1,2.8l0.4,1.7l1.6-0.9
	l-1.6,0.8c0.6,1.1,1.6,1.7,2.4,2c0.9,0.3,1.7,0.3,2.4,0.4c2.9,0.1,6.9,0.4,11,0.4c4.8,0,9.9-0.4,14.1-2.3c2.1-0.9,4-2.3,5.3-4.2
	c1.4-1.9,2.2-4.3,2.2-7.1c0.5-19.5,0.6-40.9,0.6-61.6c0-14.2-0.1-28.1-0.1-40.9c0-14.5,0.1-27.8,0.3-38.5c0-1-0.8-1.8-1.8-1.9
	c-1,0-1.8,0.8-1.9,1.8c-0.3,10.8-0.4,24.1-0.4,38.6c0,12.9,0.1,26.8,0.1,40.9c0,20.7-0.1,42-0.6,61.5c-0.1,2.2-0.6,3.8-1.6,5.1
	c-1.4,1.9-3.6,3.1-6.6,3.9c-2.9,0.8-6.4,1-9.9,1c-4,0-7.9-0.3-10.9-0.4l-1.4-0.2l-0.3-0.1l0,0l0-0.1l-0.1,0.1h0.2l0-0.1l-0.1,0.1
	h0.2l0-0.1c0.1-0.3,0.7-0.9,1.3-1.3c1.9-1,4-1.7,6.1-1.9l0.7-0.2l1-0.5c0.6-0.3,1-1,1-1.7l0-0.5l0-0.3c-1.7-7.1-6.4-12.5-8.7-18.3
	c-15.2-39-21.9-82.1-21.9-123.9l0-1.5c0-1-0.8-1.8-1.8-1.8C118,311.8,117.2,312.6,117.1,313.6L117.1,313.6z"/>
<path class="st18" d="M238.5,313.6c0.2,42.6-6.6,86.4-22,126.1c-2.4,6.2-7.1,11.6-8.6,18.1l0,0.5l1,0.5c2.4,0.2,4.7,0.9,6.8,2.1
	c1.4,0.8,2.8,2.3,2.1,3.8c-0.5,1.1-2,1.3-3.2,1.3c-9.9,0.4-30.4,3-30.8-11.3c-1.3-47.9-0.1-106.7-0.9-141.1"/>
<path class="st19" d="M236.7,313.6l0,1.5c0,41.9-6.7,84.9-21.9,124c-2.2,5.8-6.9,11.2-8.7,18.3l0,0.3l0,0.5c0,0.7,0.4,1.4,1,1.7
	l1,0.5l0.7,0.2c2.1,0.2,4.2,0.8,6.1,1.9l1.1,0.9l0.3,0.4l0,0.1l0,0l1.6,0.8l-1.6-0.8l0,0c-0.1,0.1-0.8,0.3-1.6,0.3
	c-3,0.1-6.9,0.4-10.9,0.4c-4.6,0-9.3-0.4-12.6-2c-1.7-0.7-3-1.7-3.9-3c-0.9-1.3-1.5-2.9-1.5-5.1c-0.5-19.5-0.6-40.8-0.6-61.5
	c0-14.2,0-28,0-40.9c0-14.6-0.1-27.8-0.3-38.6c0-1-0.9-1.8-1.9-1.8c-1,0-1.8,0.9-1.8,1.9c0.3,10.8,0.3,24,0.3,38.5
	c0,12.9,0,26.7,0,40.9c0,20.7,0.1,42.1,0.6,61.6c0.1,2.8,0.9,5.2,2.2,7.1c2.1,2.8,5.2,4.4,8.6,5.3c3.4,0.9,7.2,1.1,10.8,1.1
	c4.1,0,8.1-0.3,11-0.4c0.7,0,1.5-0.1,2.4-0.4c0.8-0.3,1.9-0.9,2.4-2l0,0l0.4-1.6c0-1.2-0.6-2.1-1.1-2.8c-0.6-0.7-1.3-1.3-2.1-1.7
	c-2.3-1.3-4.9-2.1-7.6-2.3l-0.2,1.8l0.8-1.6l-1-0.5l-0.8,1.6l1.8,0.1l0-0.5l-1.8-0.1l1.8,0.4c1.3-5.9,5.9-11.2,8.5-17.8
	c15.4-39.6,22.1-83,22.2-125.3l0-1.5c0-1-0.8-1.8-1.8-1.8C237.5,311.8,236.7,312.6,236.7,313.6L236.7,313.6z"/>
<path class="st19" d="M166.6,133.1c0.3,1,0.4,2,0.4,3.1l-0.1,1.4c-0.1,1,0.6,1.9,1.6,2c1,0.1,1.9-0.6,2-1.6c0.1-0.6,0.1-1.2,0.1-1.9
	c0-1.4-0.2-2.7-0.5-4c-0.3-1-1.3-1.5-2.2-1.3C166.9,131.1,166.3,132.1,166.6,133.1L166.6,133.1z"/>
<path class="st19" d="M156.5,124.3l0,0.3c0,1.7,0.4,3.3,1.1,4.8c0.4,0.9,1.5,1.3,2.4,0.9c0.9-0.4,1.3-1.5,0.9-2.4
	c-0.5-1-0.7-2.2-0.7-3.3l0-0.2c0-1-0.7-1.8-1.7-1.9C157.4,122.6,156.6,123.3,156.5,124.3L156.5,124.3z"/>
<path class="st19" d="M168.3,117.3c-0.1,0.8-0.2,1.6-0.2,2.5c0,1.4,0.1,2.8,0.4,4.2c0.2,1,1.2,1.6,2.2,1.4c1-0.2,1.6-1.2,1.4-2.2
	c-0.2-1.1-0.4-2.3-0.4-3.5c0-0.7,0-1.3,0.1-2c0.1-1-0.6-1.9-1.6-2C169.3,115.6,168.4,116.3,168.3,117.3L168.3,117.3z"/>
<path class="st19" d="M182.2,119.7c-1,1.9-1.5,4.1-1.5,6.3l0,0.8c0.1,1,1,1.7,2,1.6c1-0.1,1.7-1,1.6-2l0-0.4c0-1.6,0.4-3.2,1.1-4.7
	c0.4-0.9,0.1-2-0.8-2.4C183.7,118.4,182.6,118.8,182.2,119.7L182.2,119.7z"/>
<path class="st19" d="M178.4,102.7c-0.8,1.3-1.2,2.7-1.2,4.2l0.1,1.4c0.2,1,1.2,1.6,2.2,1.4c1-0.2,1.6-1.2,1.4-2.2l-0.1-0.7
	c0-0.8,0.2-1.6,0.7-2.3c0.5-0.8,0.3-2-0.6-2.5C180.1,101.6,178.9,101.9,178.4,102.7L178.4,102.7z"/>
<path class="st19" d="M151,105.9c0.4,1.6,0.8,3.2,1.2,4.8c0.2,1,1.2,1.6,2.2,1.3c1-0.2,1.6-1.2,1.3-2.2c-0.4-1.6-0.8-3.2-1.2-4.8
	c-0.2-1-1.2-1.6-2.2-1.3C151.3,103.9,150.7,104.9,151,105.9L151,105.9z"/>
<path class="st19" d="M165.2,98.5c0,1.6,0,3.2,0,4.7c0,1,0.8,1.8,1.8,1.8c1,0,1.8-0.8,1.8-1.8c0-1.6,0-3.2,0-4.7
	c0-1-0.8-1.8-1.8-1.8C166,96.7,165.2,97.5,165.2,98.5L165.2,98.5z"/>
<path class="st19" d="M195.2,99.9c-1,2.1-1.7,4.3-1.9,6.6c-0.1,1,0.6,1.9,1.6,2c1,0.1,1.9-0.6,2-1.6c0.2-1.9,0.7-3.7,1.6-5.4
	c0.4-0.9,0.1-2-0.8-2.4C196.7,98.6,195.6,99,195.2,99.9L195.2,99.9z"/>
<path class="st19" d="M187.2,84.9c-1.4,1.7-2.1,3.9-2.2,6.1l0,0.5c0.2,1,1.1,1.7,2.1,1.5c1-0.2,1.7-1.1,1.5-2.1l-1.3,0.2l1.3,0
	l0-0.2l-1.3,0.2l1.3,0l0,0c0-1.4,0.5-2.8,1.4-3.9c0.6-0.8,0.5-1.9-0.3-2.5C188.9,84,187.8,84.1,187.2,84.9L187.2,84.9z"/>
<path class="st19" d="M173,77.3c-0.4,1.2-0.6,2.5-0.6,3.7c0,1.3,0.2,2.6,0.6,3.8c0.3,1,1.3,1.5,2.3,1.2c1-0.3,1.5-1.3,1.2-2.3
	c-0.3-0.9-0.4-1.8-0.4-2.7c0-0.9,0.1-1.8,0.4-2.7c0.3-1-0.2-2-1.2-2.3C174.3,75.8,173.3,76.3,173,77.3L173,77.3z"/>
<path class="st19" d="M153.5,79.2c0.1,2.3,0.3,4.6,0.4,6.9c0.1,1,0.9,1.8,1.9,1.7c1-0.1,1.8-0.9,1.7-1.9c-0.2-2.3-0.3-4.6-0.4-6.9
	c-0.1-1-0.9-1.8-1.9-1.7C154.2,77.4,153.4,78.2,153.5,79.2L153.5,79.2z"/>
<path class="st19" d="M137.3,87.4c0.8,2.4,1.3,4.9,1.5,7.4c0.1,1,1,1.7,2,1.7c1-0.1,1.7-1,1.7-2c-0.2-2.8-0.8-5.6-1.7-8.2
	c-0.3-1-1.3-1.5-2.3-1.1C137.5,85.4,137,86.5,137.3,87.4L137.3,87.4z"/>
<path class="st19" d="M163.2,63.7c-0.7,1.6-1.1,3.4-1.1,5.2l0.1,1.3c0.1,1,1,1.7,2,1.6c1-0.1,1.7-1,1.6-2l0-0.9
	c0-1.3,0.3-2.6,0.8-3.8c0.4-0.9,0-2-0.9-2.4C164.6,62.4,163.6,62.8,163.2,63.7L163.2,63.7z"/>
<path class="st19" d="M138.9,65.6c0.3,1.9,0.6,3.7,0.9,5.6c0.2,1,1.1,1.7,2.1,1.5c1-0.2,1.7-1.1,1.5-2.1c-0.3-1.9-0.6-3.7-0.9-5.6
	c-0.2-1-1.1-1.7-2.1-1.5C139.4,63.7,138.7,64.6,138.9,65.6L138.9,65.6z"/>
<path class="st19" d="M184.7,66c-0.3,2.9-0.7,5.7-1,8.6c-0.1,1,0.6,1.9,1.6,2c1,0.1,1.9-0.6,2-1.6c0.3-2.9,0.7-5.7,1-8.6
	c0.1-1-0.6-1.9-1.6-2C185.7,64.2,184.8,65,184.7,66L184.7,66z"/>
<path class="st19" d="M203.4,73.4c-1,1.8-1.7,3.8-1.9,5.9c-0.1,1,0.6,1.9,1.6,2c1,0.1,1.9-0.6,2-1.6c0.2-1.6,0.7-3.1,1.5-4.5
	c0.5-0.9,0.2-2-0.7-2.5C205,72.3,203.9,72.6,203.4,73.4L203.4,73.4z"/>
<path class="st19" d="M200.6,58.3c-0.4,1.4-0.9,2.9-1.3,4.3c-0.3,1,0.3,2,1.2,2.3c1,0.3,2-0.3,2.3-1.2c0.4-1.4,0.9-2.9,1.3-4.3
	c0.3-1-0.3-2-1.2-2.3C201.9,56.8,200.9,57.3,200.6,58.3L200.6,58.3z"/>
<path class="st19" d="M182.5,48.8c-0.4,1.2-0.6,2.4-0.6,3.7l0.1,1.5c0.1,1,1.1,1.7,2.1,1.5c1-0.1,1.7-1.1,1.5-2.1l-0.1-0.9
	c0-0.9,0.1-1.7,0.4-2.6c0.3-1-0.2-2-1.2-2.3C183.8,47.3,182.8,47.8,182.5,48.8L182.5,48.8z"/>
<path class="st19" d="M147.6,52.6c0.3,1.7,0.5,3.5,0.8,5.2c0.2,1,1.1,1.7,2.1,1.5c1-0.2,1.7-1.1,1.5-2.1c-0.3-1.7-0.5-3.5-0.8-5.2
	c-0.2-1-1.1-1.7-2.1-1.5C148.1,50.7,147.4,51.6,147.6,52.6L147.6,52.6z"/>
<path class="st19" d="M124.3,55.6c0.4,2.9,1.2,5.8,2.5,8.4c0.4,0.9,1.5,1.3,2.4,0.8c0.9-0.4,1.3-1.5,0.8-2.4
	c-1.1-2.3-1.8-4.7-2.2-7.3c-0.1-1-1-1.7-2-1.6C124.9,53.7,124.2,54.6,124.3,55.6L124.3,55.6z"/>
<path class="st19" d="M163.4,42.5c0.1,2.6,0.3,5.2,0.4,7.8c0.1,1,0.9,1.8,1.9,1.7c1-0.1,1.8-0.9,1.7-1.9c-0.1-2.6-0.3-5.2-0.4-7.8
	c-0.1-1-0.9-1.8-1.9-1.7C164.2,40.7,163.4,41.5,163.4,42.5L163.4,42.5z"/>
<path class="st19" d="M241.1,226.7c-23.7,9.7-49.4,14.6-75,14.6c-15.9,0-31.8-1.9-47.2-5.7c-1-0.2-2,0.4-2.2,1.3
	c-0.2,1,0.4,2,1.3,2.2c15.7,3.9,31.9,5.8,48.1,5.8c26.1,0,52.2-5,76.3-14.8c0.9-0.4,1.4-1.4,1-2.4
	C243.1,226.8,242.1,226.3,241.1,226.7L241.1,226.7z"/>
<path class="st19" d="M156.8,257.9c-0.2,1.1-0.4,2.3-0.4,3.5c0,0.9,0.1,1.8,0.2,2.7c0.2,1,1.1,1.7,2.1,1.5c1-0.2,1.7-1.1,1.5-2.1
	c-0.1-0.7-0.2-1.3-0.2-2c0-0.9,0.1-1.8,0.3-2.7c0.2-1-0.4-1.9-1.4-2.2C158,256.4,157.1,257,156.8,257.9L156.8,257.9z"/>
<path class="st19" d="M170.9,263.6l-0.1,1.6c0,1.1,0.1,2.2,0.4,3.3c0.2,1,1.2,1.6,2.2,1.4c1-0.2,1.6-1.2,1.4-2.2
	c-0.2-0.8-0.3-1.7-0.3-2.5l0.1-1.2c0.1-1-0.6-1.9-1.6-2C171.9,261.9,171,262.6,170.9,263.6L170.9,263.6z"/>
<path class="st19" d="M183.9,253.1c0.2,1.3,0.3,2.7,0.5,4c0.1,1,1,1.7,2,1.6c1-0.1,1.7-1,1.6-2c-0.2-1.3-0.4-2.7-0.5-4
	c-0.1-1-1-1.7-2-1.6C184.4,251.2,183.7,252.1,183.9,253.1L183.9,253.1z"/>
<path class="st19" d="M202.2,259c0.1,1.6,0.2,3.3,0.3,4.9c0.1,1,0.9,1.8,1.9,1.7c1-0.1,1.8-0.9,1.7-1.9c-0.1-1.6-0.2-3.3-0.3-4.9
	c-0.1-1-0.9-1.8-1.9-1.7C202.9,257.2,202.1,258,202.2,259L202.2,259z"/>
<path class="st19" d="M191.3,275.3c-0.2,1.1-0.3,2.1-0.3,3.2c0,0.8,0,1.6,0.2,2.5c0.1,1,1,1.7,2,1.6c1-0.1,1.7-1,1.6-2
	c-0.1-0.7-0.1-1.3-0.1-2c0-0.9,0.1-1.8,0.2-2.6c0.2-1-0.5-1.9-1.5-2.1C192.4,273.6,191.5,274.3,191.3,275.3L191.3,275.3z"/>
<path class="st19" d="M177.5,285.2l-0.1,1.5c0,1.3,0.1,2.6,0.4,3.9c0.2,1,1.2,1.6,2.1,1.4c1-0.2,1.6-1.2,1.4-2.1
	c-0.2-1-0.3-2.1-0.3-3.2l0-1.2c0.1-1-0.7-1.9-1.7-1.9C178.4,283.5,177.5,284.2,177.5,285.2L177.5,285.2z"/>
<path class="st19" d="M159,276.2c0,1.1,0,2.3,0,3.5c0,1,0.8,1.8,1.8,1.8c1,0,1.8-0.8,1.8-1.8c0-1.2,0-2.3,0-3.5c0-1-0.8-1.8-1.8-1.8
	C159.9,274.3,159,275.2,159,276.2L159,276.2z"/>
<path class="st19" d="M143.2,257.5c0,1.8,0,3.6,0,5.5c0,1,0.8,1.8,1.8,1.8c1,0,1.8-0.8,1.8-1.8c0-1.8,0-3.6,0-5.5
	c0-1-0.8-1.8-1.8-1.8C144,255.6,143.2,256.5,143.2,257.5L143.2,257.5z"/>
<path class="st17" d="M298.8,30c3.2-0.7,6.5-1.3,9.1-0.2c10.1,4.4,8.4,28.1,9.3,37c1.7,16.4,2.4,33.1,0,49.4c-0.1,1-0.3,2-1.1,2.7
	c-0.7,0.6-1.6,0.6-2.5,0.6c-5.3-0.2-9.9-3.7-14.1-7.1c-14.5-11.6-28.8-23.3-43.1-35.2c-7-5.8-13.9-11.6-20.8-17.4
	c-3.2-2.7-18.1-11.4-12.5-15.9c1.5-1.1,3.3-1.6,5.1-1.9c14.4-3.1,28.9-5.7,43.5-8c7.3-1.1,14.6-2.1,21.9-3.1
	C295.3,30.8,297,30.4,298.8,30z"/>
<path class="st17" d="M30,30c-3.2-0.7-6.5-1.3-9.1-0.2c-10.1,4.4-8.4,28.1-9.3,37c-1.7,16.4-2.4,33.1,0,49.4c0.1,1,0.4,2,1.1,2.7
	c0.7,0.6,1.6,0.6,2.5,0.6c5.3-0.2,9.9-3.7,14.1-7.1C43.7,100.9,58,89.2,72.3,77.3c7-5.8,13.9-11.6,20.8-17.4
	c3.2-2.7,18.1-11.4,12.5-15.9c-1.4-1.1-3.3-1.6-5.1-1.9c-14.4-3.1-28.9-5.7-43.5-8C49.7,33,42.4,32,35.1,31
	C33.5,30.8,31.8,30.4,30,30z"/>
<path class="st2" d="M165.6,192.4c-0.2,1,1.1,2.6,1.4,3.6c1,2.7,1.6,5.5,1.9,8.4c0.3,2.5,0.4,5.2,2.2,6.9c1.2,1.1,3.1,1.6,4.7,1
	c2.6-0.9,4-3.8,4.6-6.5c0.8-3.6,1.7-11.3-1.7-13.9c-1.7-1.3-3.4-1.5-4.7-3.4c-1.1-1.6-1.8-3.6-2.2-5.5c0.2,1.2-1.7,4-2.3,4.9
	c-0.5,0.8-1.1,1.6-1.7,2.3C167.2,190.9,165.8,191.5,165.6,192.4z"/>
<path class="st4" d="M170.3,181.7c-0.2,3-0.8,5.9-2.6,7.9c-1.4,1.5-3.5,2.3-5.6,2.3c-1.3,0-2.7-0.3-3.8-1c-2.7-1.5-4.4-4.7-4.4-7.8
	l0.1-0.9c0.1-0.6-0.3-1.1-0.9-1.2c-0.6-0.1-1.1,0.3-1.2,0.9l-0.1,1.2c0,3.9,2,7.7,5.5,9.7c1.5,0.8,3.1,1.2,4.8,1.2
	c2.6,0,5.3-1,7.1-3c2.3-2.6,2.9-6,3.1-9.2c0-0.6-0.4-1.1-1-1.1C170.8,180.7,170.3,181.2,170.3,181.7L170.3,181.7z"/>
<path class="st4" d="M170.5,181.2c0.5,3.2,1.1,6.7,3.7,9.3c2.1,2.1,4.7,3.1,7.1,3.1c5.4,0,10.2-4.8,10.2-11.3l0-1.2
	c-0.1-0.6-0.6-1-1.1-0.9c-0.6,0.1-1,0.6-0.9,1.1l0,1.1c0,5.4-4,9.2-8.1,9.2c-1.9,0-3.8-0.7-5.6-2.5c-2-1.9-2.6-5-3.1-8.1l-1.2-0.9
	L170.5,181.2L170.5,181.2z"/>
<path class="st4" d="M181,169.1c8.1,1.1-5,12.4-8.7,12.5c-1.8,0.1-3.4-0.9-5-1.7c-4.7-2.5-10.8-7.6-4.7-10.1
	C167.4,167.9,176.1,168.5,181,169.1z"/>
<path class="st20" d="M265.9,145.7c0.6,15.7-14.1,29-32.9,29.7c-18.8,0.7-34.4-11.4-35-27.1c-0.6-15.7,14.1-29,32.9-29.7
	C249.7,117.9,265.4,130,265.9,145.7z"/>
<path class="st4" d="M241.6,150.2c0.4,11.6-8.6,21.4-20.2,21.8c-11.6,0.4-21.4-8.6-21.8-20.2c-0.4-11.6,8.6-21.4,20.2-21.8
	C231.3,129.5,241.1,138.6,241.6,150.2z"/>
<path class="st20" d="M75,152.9c0.6,15.7,16.3,27.8,35,27.1c18.8-0.7,33.5-14,32.9-29.7c-0.6-15.7-16.3-27.8-35-27.1
	C89.1,123.9,74.4,137.2,75,152.9z"/>
<path class="st4" d="M98.7,155.6c0.4,11.6,10.2,20.7,21.8,20.2c11.6-0.4,20.7-10.2,20.2-21.8c-0.4-11.6-10.2-20.7-21.8-20.2
	C107.3,134.2,98.2,144,98.7,155.6z"/>
<path class="st6" d="M237,137.8c0.1,2.8-2.1,5.2-4.9,5.3c-2.8,0.1-5.2-2.1-5.3-4.9c-0.1-2.8,2.1-5.2,4.9-5.3
	C234.5,132.8,236.9,135,237,137.8z"/>
<path class="st6" d="M137.3,141.6c0.1,2.8-2.1,5.2-4.9,5.3c-2.8,0.1-5.2-2.1-5.3-4.9c-0.1-2.8,2.1-5.2,4.9-5.3
	C134.8,136.6,137.2,138.8,137.3,141.6z"/>
</svg>
