<?xml version="1.0" encoding="utf-8"?>
<!-- Generator: Adobe Illustrator 28.0.0, SVG Export Plug-In . SVG Version: 6.00 Build 0)  -->
<svg version="1.1" id="Capa_1" xmlns="http://www.w3.org/2000/svg" xmlns:xlink="http://www.w3.org/1999/xlink" x="0px" y="0px"
	 viewBox="0 0 385 474.2" style="enable-background:new 0 0 385 474.2;" xml:space="preserve">
<style type="text/css">
	.st0{fill:#97A7B0;}
	.st1{fill:#F5EDE3;}
	.st2{fill:#F9B7BB;}
	.st3{fill:#DED9D6;}
	.st4{fill:#665067;}
	.st5{fill:#89C9D1;}
	.st6{fill:#F1F2F2;}
	.st7{fill:#E7E3DE;}
	.st8{fill:#CED5DB;}
	.st9{fill:#BEC4CD;}
	.st10{fill:#E6946D;}
	.st11{fill:#E18261;}
	.st12{fill:#D1D6DC;}
	.st13{fill:#ACB8C1;}
	.st14{fill:#E7E9EA;}
	.st15{fill:#565D6B;}
	.st16{fill:#4B525F;}
	.st17{fill:#9C6B66;}
	.st18{fill:#F7E7C0;}
	.st19{fill:#F5CEA7;}
	.st20{fill:#FFFFFF;}
	.st21{fill:#C5CAD3;}
	.st22{fill:#ACB5C2;}
	.st23{fill:#F9E8AB;}
	.st24{fill:#F5C98A;}
	.st25{fill:#F2AC79;}
	.st26{fill:#F1A874;}
	.st27{fill:#F7A8B2;}
	.st28{fill:#CB9683;}
	.st29{fill:#C08977;}
	.st30{fill:#BC8A78;}
	.st31{fill:#B6786C;}
	.st32{fill:#F5DEC7;}
	.st33{fill:#D6A189;}
	.st34{fill:#F6D1A0;}
	.st35{fill:#F4BE89;}
	.st36{fill:#D48B6F;}
	.st37{fill:#F3C9B7;}
	.st38{fill:#C1775A;}
	.st39{fill:#D59979;}
	.st40{fill:#F2B59B;}
	.st41{fill:#DB9572;}
	.st42{fill:#F8B4BD;}
	.st43{fill:#FACAD3;}
	.st44{fill:#F7D37F;}
	.st45{fill:#BCDFE9;}
	.st46{fill:#F7CE6D;}
</style>
<path class="st24" d="M270.5,433c18.5-0.9,35.4-15.7,38.9-33.9c1.5-8,0.7-16.4,1.6-24.5c1.8-15,10.3-29.1,22.7-37.8
	c-10.9,2.9-20.3,11.2-24.5,21.7c-5.2,12.9-2.7,27.9-7.4,41c-3.4,9.3-10.4,17.3-19.3,21.8c-2.6,1.3-5.4,2.4-7.7,4.1
	c-2.3,1.8-4.1,4.5-3.8,7.4L270.5,433z"/>
<path class="st24" d="M277.5,319.2c-11.5-27.4-29-52.5-46.3-77.3c-2.3-3.3-4.8-6.7-8.8-8.3c-3.2-1.3-7-1.1-10.5-0.8
	c-26.5,1.7-53,3.5-79.6,5.2l-11.3,2.8c-19.7,26.6-34.9,55.8-44.8,86.4c-5.4,16.7-9.3,34-8.6,51.4c1.1,28.9,15.2,57,39.9,72.7
	c21.1,13.4,46,13.5,70.1,14.7c24.9,1.3,50-2.9,73.2-12c11.9-4.7,23.1-12.3,29.8-23.2C299.9,398.8,290.9,351.2,277.5,319.2z"/>
<path class="st24" d="M129.4,335.3c-0.1,37.4,5.8,76,19.4,111c2.1,5.5,6.2,10.2,7.6,15.9l0,0.4l-0.9,0.5c-2.1,0.2-4.2,0.8-6,1.9
	c-1.2,0.7-2.5,2.1-1.8,3.3c0.5,1,1.8,1.1,2.8,1.2c8.7,0.3,26.8,2.7,27.1-10c1.1-42.2,0-93.9,0.8-124.1"/>
<path class="st25" d="M127.8,335.3l0,1.4c0,37.2,6,75.4,19.5,110.2c2.3,5.8,6.3,10.5,7.5,15.7l1.6-0.4l-1.6,0.1l0,0.4l1.6-0.1
	l-0.7-1.4l-0.9,0.5l0.7,1.4l-0.1-1.6c-2.3,0.2-4.6,0.9-6.7,2.1c-0.6,0.4-1.3,0.9-1.8,1.5c-0.5,0.6-1,1.4-1,2.5l0.4,1.5l1.4-0.8
	l-1.4,0.7c0.5,1,1.4,1.5,2.1,1.7c0.8,0.2,1.5,0.3,2.1,0.3c2.6,0.1,6,0.4,9.7,0.4c4.3,0,8.7-0.4,12.4-2c1.8-0.8,3.5-2,4.7-3.7
	c1.2-1.7,1.9-3.8,2-6.2c0.5-17.1,0.6-35.8,0.6-54c0-12.6,0-24.9,0-36.3c0-12.8,0.1-24.4,0.3-33.9c0-0.9-0.7-1.6-1.6-1.6
	c-0.9,0-1.6,0.7-1.6,1.6c-0.3,9.5-0.3,21.2-0.3,33.9c0,11.4,0,23.7,0,36.3c0,18.2-0.1,36.8-0.6,53.9c-0.1,1.9-0.6,3.3-1.4,4.5
	c-1.2,1.7-3.2,2.8-5.8,3.5c-2.6,0.7-5.7,0.9-8.7,0.9c-3.5,0-6.9-0.3-9.6-0.4l-1.2-0.2l-0.2-0.1l0,0l0,0l-0.1,0.1l0.1,0l0-0.1
	l-0.1,0.1l0.1,0l0-0.1c0.1-0.3,0.6-0.8,1.2-1.1c1.6-0.9,3.5-1.5,5.4-1.7l0.6-0.2l0.9-0.5c0.6-0.3,0.9-0.9,0.9-1.5l0-0.4l0-0.3
	c-1.5-6.2-5.7-11-7.6-16.1c-13.4-34.3-19.3-72.2-19.3-109l0-1.3c0-0.9-0.7-1.6-1.6-1.6C128.5,333.7,127.8,334.5,127.8,335.3
	L127.8,335.3z"/>
<path class="st24" d="M234.5,335.3c0.1,37.4-5.8,76-19.4,111c-2.1,5.5-6.2,10.2-7.5,15.9l0,0.4l0.9,0.5c2.1,0.2,4.2,0.8,6,1.9
	c1.2,0.7,2.5,2.1,1.8,3.3c-0.5,1-1.8,1.1-2.8,1.2c-8.7,0.3-26.8,2.7-27.1-10c-1.1-42.2,0-93.9-0.8-124.1"/>
<path class="st25" d="M232.9,335.3l0,1.3c0,36.9-5.9,74.7-19.3,109.1c-2,5.1-6.1,9.9-7.6,16.1l0,0.3l0,0.4c0,0.6,0.3,1.2,0.9,1.5
	l0.9,0.5l0.6,0.2c1.9,0.2,3.7,0.7,5.3,1.7l0.9,0.8l0.2,0.3l0,0.1l0,0l1.4,0.7l-1.4-0.7l0,0c-0.1,0.1-0.7,0.3-1.4,0.3
	c-2.7,0.1-6.1,0.4-9.6,0.4c-4.1,0-8.2-0.4-11.1-1.7c-1.5-0.7-2.6-1.5-3.4-2.6c-0.8-1.1-1.3-2.5-1.4-4.5c-0.5-17.1-0.6-35.9-0.6-54.1
	c0-12.5,0-24.7,0-36c0-12.8-0.1-24.5-0.3-34c0-0.9-0.8-1.6-1.6-1.6c-0.9,0-1.6,0.8-1.6,1.6c0.2,9.5,0.3,21.1,0.3,33.9
	c0,11.3,0,23.5,0,36c0,18.2,0.1,37,0.6,54.2c0.1,2.5,0.8,4.6,2,6.2c1.8,2.5,4.6,3.9,7.6,4.7c3,0.8,6.3,1,9.5,1
	c3.6,0,7.1-0.3,9.7-0.4c0.6,0,1.3-0.1,2.1-0.3c0.7-0.2,1.6-0.8,2.1-1.7l0,0l0.3-1.4c0-1.1-0.5-1.9-1-2.5c-0.5-0.6-1.2-1.1-1.8-1.5
	c-2-1.2-4.3-1.9-6.7-2.1l-0.1,1.6l0.7-1.4l-0.9-0.5l-0.7,1.4l1.6,0.1l0-0.4l-1.6-0.1l1.6,0.4c1.2-5.2,5.2-9.9,7.5-15.7
	c13.5-34.8,19.5-73.1,19.5-110.3l0-1.3c0-0.9-0.7-1.6-1.6-1.6C233.7,333.7,232.9,334.5,232.9,335.3L232.9,335.3z"/>
<path class="st25" d="M156.2,285.2c0.2,1.8,0.3,3.5,0.5,5.3c0.1,0.9,0.9,1.5,1.7,1.5c0.9-0.1,1.5-0.9,1.5-1.7
	c-0.2-1.8-0.3-3.5-0.5-5.3c-0.1-0.9-0.9-1.5-1.7-1.4C156.7,283.5,156.1,284.3,156.2,285.2L156.2,285.2z"/>
<path class="st25" d="M167.3,292c0.2,0.7,0.4,1.5,0.4,2.3l0,0.9c-0.1,0.9,0.6,1.7,1.4,1.7c0.9,0.1,1.7-0.6,1.7-1.4l0.1-1.2
	c0-1.1-0.2-2.2-0.5-3.3c-0.3-0.8-1.2-1.3-2-1C167.5,290.2,167,291.1,167.3,292L167.3,292z"/>
<path class="st25" d="M176.3,284.3c0,1.3,0,2.5,0,3.8c0,0.9,0.7,1.6,1.6,1.6c0.9,0,1.6-0.7,1.6-1.6c0-1.3,0-2.5,0-3.8
	c0-0.9-0.7-1.6-1.6-1.6C177,282.7,176.3,283.4,176.3,284.3L176.3,284.3z"/>
<path class="st25" d="M189.3,288.7c-0.1,1.8-0.3,3.5-0.4,5.3c-0.1,0.9,0.6,1.7,1.5,1.7c0.9,0.1,1.7-0.6,1.7-1.5
	c0.1-1.8,0.3-3.5,0.4-5.3c0.1-0.9-0.6-1.7-1.5-1.7C190.1,287.1,189.3,287.8,189.3,288.7L189.3,288.7z"/>
<path class="st25" d="M202.5,281.8c0.2,1.7,0.5,3.3,0.8,4.9c0.1,0.9,1,1.5,1.8,1.3c0.9-0.1,1.5-1,1.3-1.8c-0.3-1.6-0.5-3.3-0.8-4.9
	c-0.1-0.9-0.9-1.5-1.8-1.3C203,280.1,202.4,281,202.5,281.8L202.5,281.8z"/>
<path class="st25" d="M200.2,298.7c-0.3,1.2-0.5,2.5-0.5,3.7c0,0.6,0,1.2,0.1,1.8c0.1,0.9,0.9,1.5,1.8,1.4c0.9-0.1,1.5-0.9,1.4-1.8
	l-0.1-1.4c0-1,0.1-2,0.4-2.9c0.2-0.9-0.3-1.7-1.2-1.9C201.3,297.3,200.5,297.8,200.2,298.7L200.2,298.7z"/>
<path class="st25" d="M176.7,301.9l-0.1,1.2c0,1.1,0.2,2.2,0.5,3.3c0.3,0.8,1.2,1.3,2,1c0.8-0.3,1.3-1.2,1-2
	c-0.2-0.7-0.4-1.5-0.4-2.3l0-0.8c0.1-0.9-0.5-1.7-1.4-1.8C177.6,300.4,176.8,301,176.7,301.9L176.7,301.9z"/>
<path class="st25" d="M156.9,302.1c0,2,0,4,0,6.1c0,0.9,0.7,1.6,1.6,1.6c0.9,0,1.6-0.7,1.6-1.6c0-2,0-4.1,0-6.1
	c0-0.9-0.7-1.6-1.6-1.6C157.7,300.5,156.9,301.2,156.9,302.1L156.9,302.1z"/>
<path class="st25" d="M166.1,312.7c0,2.3,0,4.6,0,6.8c0,0.9,0.7,1.6,1.6,1.6c0.9,0,1.6-0.7,1.6-1.6c0-2.3,0-4.6,0-6.8
	c0-0.9-0.7-1.6-1.6-1.6C166.8,311.1,166.1,311.9,166.1,312.7L166.1,312.7z"/>
<path class="st25" d="M189.6,311.3c0.4,1.5,0.6,3,0.6,4.6c0,0.8-0.1,1.6-0.2,2.3c-0.1,0.9,0.5,1.7,1.4,1.8c0.9,0.1,1.7-0.5,1.8-1.4
	c0.1-0.9,0.2-1.8,0.2-2.8c0-1.8-0.3-3.7-0.8-5.5c-0.2-0.8-1.1-1.3-2-1.1C189.8,309.6,189.3,310.4,189.6,311.3L189.6,311.3z"/>
<path class="st25" d="M177.4,319.6c0,1.1,0,2.3,0,3.4c0,0.9,0.7,1.6,1.6,1.6c0.9,0,1.6-0.7,1.6-1.6c0-1.1,0-2.3,0-3.4
	c0-0.9-0.7-1.6-1.6-1.6C178.2,318,177.5,318.7,177.4,319.6L177.4,319.6z"/>
<path class="st25" d="M147.2,291.7c-0.2,1.4-0.3,2.8-0.5,4.2c-0.1,0.9,0.5,1.7,1.4,1.8c0.9,0.1,1.7-0.5,1.8-1.4
	c0.2-1.4,0.3-2.8,0.5-4.2c0.1-0.9-0.5-1.7-1.4-1.8C148.1,290.2,147.3,290.8,147.2,291.7L147.2,291.7z"/>
<path class="st26" d="M329.1,337.2c1.1,3.2,5,4.1,8.4,4.2c5.9,0.1,11.8-1.3,17.1-3.9c1.3-0.6,2.7-1.7,2.5-3.1
	c-3.4-0.2-6.9,0.1-10.3,1c2.3-1.5,4.5-3,6.8-4.5c0.9-0.6,1.9-1.3,2.1-2.4c0.1-0.8-0.2-1.5-0.6-2.2c-0.6-1.3-1.3-2.5-2.1-3.6
	c-0.7-1-1.6-2.2-2.9-2.1c-0.7,0-1.3,0.3-1.8,0.7c-2.8,1.7-5.5,3.4-8.2,5.3c2.5-2.9,5.7-6.4,5.6-10.5
	C339.4,318.9,326.3,329.1,329.1,337.2z"/>
<path class="st26" d="M45.4,242.8C38,232.1,31.8,220.4,27,208.2c-0.6-1.6-1.2-3.3-0.5-4.9c0.4-0.9,1.3-1.6,2.1-2.2
	c5.4-4.1,10.8-8.2,16.1-12.3c-7.9-2.4-15.6-5.6-22.8-9.7c7.5-1.8,15.1-3.6,22.6-5.3c-3.3-2.8-8.9-4.3-13.4-5.9
	c-3.6-1.3-7.6-3.5-8.3-7.3c-0.3-1.6,0.1-3.3,0.6-4.8c5.7-19.5,16-37.5,28.9-53.1c6.5-7.9,13.7-15.1,21.4-21.8
	c5.4-4.6,16.8-16.8,24.7-13.5c2,0.8,3.4,2.5,4.8,4.1c4.1,4.8,8.2,9.6,12.3,14.4c-2.4-10.8-3.9-21.8-4.6-32.9
	c5.7,8,9.6,16.9,14.2,25.5c-0.3-7.9,0-15.9,0.3-23.9c0.3-7.2,16-7.4,21.6-8.2c16.6-2.4,33.8-2.4,50.5-2.2c13,0.2,25.5,2.8,38.2,5.8
	c0.7,0.2,1.5,0.4,2,0.9c0.6,0.7,0.7,1.7,0.7,2.6c0.2,8.9-1.3,17.7-3,26.5c3.5-6.6,10.3-26.9,19.7-23.7c22.8,8,42.3,24.9,52.7,46.8
	c0.6,1.3,1.2,2.6,0.9,4c-0.3,1.3-1.3,2.3-2.2,3.3c-5.2,5.1-10.4,10.3-15.6,15.4c7,2.2,15.7-3.5,21.4,1.2c2.7,2.2,3.5,6.1,3.9,9.6
	c2.9,22.7,3,45.1-3.5,67.1c-0.3,0.9-0.6,1.8-1.3,2.4c-1,0.8-2.4,0.7-3.6,0.5c-0.7-0.1-13.7-1.1-13.6-0.8c1.7,3.9,6.6,7.6,9.3,11
	c3.1,3.7,6,7.6,8.7,11.6c-3.2-1.2-6.5-2.5-9.7-3.7c-2.8-1.1-6.2-3.9-9.2-3.3c0.7,3.5,6.4,8,8.9,10.8c1.3,1.5,2.7,3.1,2.8,5.1
	c0,1.5-0.7,2.8-1.4,4.1c-4.1,7.4-10.5,12.3-16.6,18.1c-6.7,6.3-13.9,12.2-22.2,16.3c-15,7.4-31.5,12.7-47.8,15.9
	c-1.2,0.2-2.5,0.5-3.6,0c-1.4-0.5-2.2-1.8-3-3c-3.8-5.9-7.6-11.9-11.4-17.8c-0.8,6.9-1.6,13.8-2.3,20.7c-0.1,1.1-0.3,2.3-1,3.1
	c-0.8,0.8-2,1-3.2,1.2c-12.9,1.5-25.9,2.1-38.9,1.9c-4.6-5.2-7.3-11.9-7.6-18.8c-1.8,4-3.8,7.9-5.9,11.8c-0.5,1-1.2,2.1-2.2,2.5
	c-0.9,0.4-2,0.3-3,0.2c-23.9-2.5-48.9-7-65.8-25.6c-0.7-0.7-1.3-1.5-1.5-2.5c-0.1-0.9,0.2-1.7,0.5-2.6c1.9-5.1,3.9-10.2,5.8-15.3
	c-5.3,2.2-10.5,4.5-15.8,6.7c-1,0.4-2,0.8-3,0.6c-1-0.3-1.7-1.1-2.3-1.8C50.3,249.7,47.8,246.3,45.4,242.8z"/>
<path class="st24" d="M250.5,83.8c8.4-2.6,18.5,1,24.1,8.6c5.8,7.9,4.7,20.9-2.7,27.5c-5.9,5.3-14.5,4.9-21.5,2.2
	c-7.6-2.9-12.5-6.5-14-15C234.4,96.4,241.5,86.7,250.5,83.8z"/>
<path class="st27" d="M252.2,94.3c4.7-1.5,10.4,0.6,13.6,4.8c3.3,4.5,2.6,11.8-1.5,15.5c-3.4,3-8.2,2.7-12.1,1.2
	c-4.3-1.6-7-3.7-7.9-8.5C243.2,101.4,247.1,95.9,252.2,94.3z"/>
<path class="st24" d="M102.5,85.1c-9-2.9-19.9,1.1-25.9,9.3c-6.3,8.5-5,22.5,2.9,29.6c6.4,5.8,15.6,5.2,23.2,2.3
	c8.2-3.1,13.4-7,15.1-16.2C119.8,98.7,112.2,88.2,102.5,85.1z"/>
<path class="st27" d="M100.6,96.5c-5.1-1.6-11.2,0.6-14.6,5.2c-3.5,4.8-2.8,12.7,1.6,16.7c3.6,3.2,8.8,2.9,13.1,1.3
	c4.6-1.8,7.6-3.9,8.5-9.1C110.4,104.1,106.1,98.2,100.6,96.5z"/>
<path class="st24" d="M264.4,119.5c-3.2-2.5-6.6-4.8-10.4-7.1c-9.5-5.8-19.8-10.3-30.4-13.6c-5.6-1.7-11.4-3.5-17.2-4.3
	c-4.2-0.6-8.5,0.2-8.7-5.6c-0.1-2.5,0.9-5,2.2-7.2c-5.7-1.1-11.8,1-15.7,5.3c-1.1-6.4-4.4-12.3-9.2-16.6c1.6,4.1,1.4,8.8-0.4,12.7
	c-1.4,3-5,5.7-7.6,3.8c-1.5-1.1-1.8-3.4-1.2-5.1c0.6-1.8,2-3.2,3.3-4.6c-6,0.2-11.2,4.1-15.7,8.1c-4.4,4-8.8,8.5-14.6,10.3
	c-5.9,1.8-12,3-17.9,5.1c-12,4.4-23.4,10.6-33.2,19c-22.2,18.9-34.5,49.6-30.9,78c3.9,30.4,29.2,52,56.1,64
	c10.2,4.5,20.9,7.7,31.8,9.8c19.1,4.8,41,3.4,60.1-0.5c42.1-8.7,79.2-36.4,85.3-81.3c2.1-15.4-0.3-31.5-6.7-45.7
	C278.7,133.4,272.5,125.9,264.4,119.5z"/>
<path class="st25" d="M236.9,258.8c-20.9,8.5-43.4,12.8-66,12.8c-14,0-28-1.7-41.6-5c-0.9-0.2-1.7,0.3-1.9,1.2
	c-0.2,0.9,0.3,1.7,1.2,1.9c13.8,3.4,28.1,5.1,42.3,5.1c23,0,45.9-4.4,67.2-13.1c0.8-0.3,1.2-1.3,0.9-2.1
	C238.6,258.9,237.7,258.5,236.9,258.8L236.9,258.8z"/>
<path class="st25" d="M176.1,158.2c-4.9,16.5-8.8,38.1-11.1,52.3l22.4-0.4C185.4,192.2,181.1,173.2,176.1,158.2z"/>
<path class="st4" d="M174.5,219.3c-0.2,2.6-0.7,5.2-2.3,6.9c-1.2,1.3-3.1,2.1-4.9,2.1c-1.2,0-2.3-0.3-3.3-0.8
	c-2.4-1.3-3.9-4.1-3.9-6.9l0-0.8c0.1-0.5-0.3-1-0.8-1c-0.5-0.1-1,0.3-1,0.8l-0.1,1.1c0,3.4,1.8,6.8,4.8,8.5c1.3,0.7,2.8,1.1,4.2,1.1
	c2.3,0,4.7-0.9,6.3-2.7c2-2.3,2.6-5.3,2.8-8.1c0-0.5-0.4-0.9-0.9-1C175,218.4,174.6,218.8,174.5,219.3L174.5,219.3z"/>
<path class="st4" d="M174.7,218.8c0.4,2.8,1,5.9,3.2,8.2c1.9,1.9,4.1,2.7,6.2,2.7c4.8,0,9-4.2,9-9.9l0-1.1c0-0.5-0.5-0.9-1-0.8
	c-0.5,0-0.9,0.5-0.8,1l0,0.9c0,4.8-3.5,8.1-7.1,8.1c-1.6,0-3.4-0.6-5-2.2c-1.7-1.7-2.3-4.4-2.7-7.1l-1-0.8L174.7,218.8L174.7,218.8z
	"/>
<path class="st4" d="M184.5,206.5c1,0.4,1.9,1,2.4,1.9c0.5,0.8,0.6,1.9,0.4,2.8c-2.3,11.2-25.6,9.2-22.3-0.7
	c0.5-1.6,1.8-2.8,3.3-3.6c1.5-0.8,3.1-1.1,4.8-1.4C176.7,204.9,181.1,205.1,184.5,206.5z"/>
<path class="st20" d="M258.7,187.5c0.5,13.8-12.4,25.5-28.9,26.1c-16.5,0.6-30.3-10.1-30.8-23.9c-0.5-13.8,12.4-25.5,28.9-26.1
	C244.4,163.1,258.2,173.8,258.7,187.5z"/>
<path class="st4" d="M237.2,191.5c0.4,10.2-7.6,18.8-17.8,19.2c-10.2,0.4-18.8-7.6-19.2-17.8c-0.4-10.2,7.6-18.8,17.8-19.2
	C228.2,173.3,236.8,181.3,237.2,191.5z"/>
<path class="st20" d="M90.7,193.9c0.5,13.8,14.3,24.5,30.8,23.9c16.5-0.6,29.5-12.3,28.9-26.1c-0.5-13.8-14.3-24.5-30.8-23.8
	C103.1,168.4,90.1,180.1,90.7,193.9z"/>
<path class="st4" d="M111.5,196.3c0.4,10.2,9,18.2,19.2,17.8c10.2-0.4,18.2-9,17.8-19.2c-0.4-10.2-9-18.2-19.2-17.8
	C119.1,177.4,111.1,186,111.5,196.3z"/>
<path class="st6" d="M233.2,180.6c0.1,2.5-1.8,4.6-4.3,4.7c-2.5,0.1-4.6-1.9-4.7-4.3c-0.1-2.5,1.9-4.6,4.3-4.7
	C231.1,176.2,233.2,178.2,233.2,180.6z"/>
<path class="st6" d="M145.5,184c0.1,2.5-1.9,4.6-4.3,4.7c-2.5,0.1-4.6-1.8-4.7-4.3c-0.1-2.5,1.9-4.6,4.3-4.7
	C143.3,179.5,145.4,181.5,145.5,184z"/>
</svg>
