<?xml version="1.0" encoding="utf-8"?>
<!-- Generator: Adobe Illustrator 28.0.0, SVG Export Plug-In . SVG Version: 6.00 Build 0)  -->
<svg version="1.1" id="Capa_1" xmlns="http://www.w3.org/2000/svg" xmlns:xlink="http://www.w3.org/1999/xlink" x="0px" y="0px"
	 viewBox="0 0 385 474.2" style="enable-background:new 0 0 385 474.2;" xml:space="preserve">
<style type="text/css">
	.st0{fill:#97A7B0;}
	.st1{fill:#F5EDE3;}
	.st2{fill:#F9B7BB;}
	.st3{fill:#DED9D6;}
	.st4{fill:#665067;}
	.st5{fill:#89C9D1;}
	.st6{fill:#F1F2F2;}
	.st7{fill:#E7E3DE;}
	.st8{fill:#CED5DB;}
	.st9{fill:#BEC4CD;}
	.st10{fill:#E6946D;}
	.st11{fill:#E18261;}
	.st12{fill:#D1D6DC;}
	.st13{fill:#ACB8C1;}
	.st14{fill:#E7E9EA;}
	.st15{fill:#565D6B;}
	.st16{fill:#4B525F;}
	.st17{fill:#9C6B66;}
	.st18{fill:#F7E7C0;}
	.st19{fill:#F5CEA7;}
	.st20{fill:#FFFFFF;}
	.st21{fill:#C5CAD3;}
	.st22{fill:#ACB5C2;}
	.st23{fill:#F9E8AB;}
	.st24{fill:#F5C98A;}
	.st25{fill:#F2AC79;}
	.st26{fill:#F1A874;}
	.st27{fill:#F7A8B2;}
	.st28{fill:#CB9683;}
	.st29{fill:#C08977;}
	.st30{fill:#BC8A78;}
	.st31{fill:#B6786C;}
	.st32{fill:#F5DEC7;}
	.st33{fill:#D6A189;}
	.st34{fill:#F6D1A0;}
	.st35{fill:#F4BE89;}
	.st36{fill:#D48B6F;}
	.st37{fill:#F3C9B7;}
	.st38{fill:#C1775A;}
	.st39{fill:#D59979;}
	.st40{fill:#F2B59B;}
	.st41{fill:#DB9572;}
	.st42{fill:#F8B4BD;}
	.st43{fill:#FACAD3;}
	.st44{fill:#F7D37F;}
	.st45{fill:#BCDFE9;}
	.st46{fill:#F7CE6D;}
</style>
<path class="st4" d="M130.4,313.3c6.2,25,10.3,42.4,10.3,67.3l0,0.9l1.7,0l-1.7,0c-0.1,20.2-5.1,48.8-9.9,68.1
	c-0.2,0.9,0.3,1.8,1.2,2c0.9,0.2,1.8-0.3,2-1.2c4.7-19.6,9.9-48.2,9.9-68.9v0l0-0.8c0-25.3-4.2-43.1-10.4-68.1
	c-0.2-0.9-1.1-1.4-2-1.2C130.7,311.5,130.2,312.4,130.4,313.3L130.4,313.3z"/>
<path class="st4" d="M132.3,447.5c-1.7-0.1-3.7-0.2-5.7-0.2c-8.9,0-19.9,1.2-27.3,3.1c-0.9,0.2-1.4,1.1-1.2,2c0.2,0.9,1.1,1.4,2,1.2
	c6.9-1.8,17.9-3,26.4-3c2,0,3.8,0.1,5.4,0.2c0.9,0.1,1.7-0.6,1.8-1.5C133.9,448.3,133.3,447.5,132.3,447.5L132.3,447.5z"/>
<path class="st4" d="M131.6,448.5c-10.1,3.1-20,7.1-29.4,12.1c-0.8,0.4-1.1,1.4-0.7,2.3c0.4,0.8,1.4,1.1,2.3,0.7
	c9.2-4.9,18.8-8.8,28.8-11.9c0.9-0.3,1.4-1.2,1.1-2.1C133.4,448.8,132.5,448.3,131.6,448.5L131.6,448.5z"/>
<path class="st4" d="M130.9,449.8c-5.5,6.3-10.6,13-15.2,19.9c-0.5,0.8-0.3,1.8,0.5,2.3c0.8,0.5,1.8,0.3,2.3-0.5
	c4.6-6.8,9.6-13.4,15-19.6c0.6-0.7,0.5-1.8-0.2-2.4C132.6,449,131.5,449.1,130.9,449.8L130.9,449.8z"/>
<path class="st4" d="M184.5,315.6c6.2,24.9,10.3,42.4,10.3,67.2l0,0.9l1.7-0.1l-1.7,0c-0.1,20.2-5.1,48.8-9.9,68.1
	c-0.2,0.9,0.3,1.8,1.2,2c0.9,0.2,1.8-0.3,2-1.2c4.7-19.6,9.9-48.2,9.9-68.9v-0.1l0-0.8c0-25.3-4.2-43.1-10.4-68
	c-0.2-0.9-1.1-1.4-2-1.2C184.8,313.8,184.3,314.7,184.5,315.6L184.5,315.6z"/>
<path class="st4" d="M186.4,449.7c-1.7-0.1-3.7-0.2-5.7-0.2c-8.9,0-19.9,1.2-27.3,3.1c-0.9,0.2-1.4,1.1-1.2,2c0.2,0.9,1.1,1.4,2,1.2
	c6.9-1.8,17.9-3,26.4-3c2,0,3.8,0.1,5.4,0.2c0.9,0.1,1.7-0.6,1.8-1.5C188.1,450.6,187.4,449.8,186.4,449.7L186.4,449.7z"/>
<path class="st4" d="M185.7,450.8c-10.1,3.1-20,7.1-29.4,12.1c-0.8,0.4-1.1,1.4-0.7,2.3c0.4,0.8,1.4,1.1,2.3,0.7
	c9.2-4.9,18.8-8.8,28.8-11.9c0.9-0.3,1.4-1.2,1.1-2.1C187.5,451,186.6,450.5,185.7,450.8L185.7,450.8z"/>
<path class="st4" d="M185,452c-5.5,6.3-10.6,13-15.2,19.9c-0.5,0.8-0.3,1.8,0.5,2.3c0.8,0.5,1.8,0.3,2.3-0.5
	c4.6-6.8,9.6-13.4,15-19.6c0.6-0.7,0.5-1.8-0.2-2.4C186.7,451.3,185.6,451.4,185,452L185,452z"/>
<path class="st42" d="M367.8,175.7c-1.8-1.5-4.4-1.6-6.8-1.4c-9.2,0.8-18.2,4.4-25.5,10.1c3.5-5.4,6.9-10.7,10.4-16.1
	c2.1-3.3,4.3-6.9,3.7-10.7c-0.1-0.8-0.4-1.6-1.1-2.1c-0.9-0.6-2.1-0.4-3.2-0.1c-10.3,3-19.5,9.4-25.9,18c0.7-5.5,1.3-11,2-16.5
	c0.2-1.7,0.4-3.5-0.5-5c-1.1-1.9-3.7-2.6-5.8-2.1c-2.2,0.5-4,1.9-5.7,3.3c-7.5,6.4-13.4,14.5-19.3,22.5
	c-15.5,19.4-29.8,39.8-44.2,60.1c1-1.4,2-2.8,3-4.3c-10.6,13.2-19.2,27.8-26.6,43c-0.5,1-1,2.1-0.8,3.2c0.2,0.9,0.8,1.7,1.5,2.3
	c2.3,2.5,4.5,5,6.8,7.4c41.8-36.2,92.9-60.8,134-97.8c2-1.8,4.1-3.8,5.2-6.3C370.2,180.8,369.9,177.5,367.8,175.7z"/>
<path class="st42" d="M64.9,105.6c2.7-8.5,6-16.6,10.2-24.1c11-19.6,31-35.7,53.5-35.6c14.7,0.1,28.7,7.2,39.8,16.7
	c40.5,34.6,70.4,92.2,95.4,138.4c16.1,29.6,34.7,76.9,8.5,106.3c-6.2,7-12.6,12.5-20.9,17c-29.2,15.6-66.3,20.3-98.9,21
	c-18.3,0.4-37.1-0.8-54.8-6c-62.5-18.1-53.9-92.1-47.7-141.7C53.8,168.6,55.5,134.9,64.9,105.6z"/>
<path class="st43" d="M149,171.6c6-11.6,19.7-10.9,30.3-6.7c6.9,2.8,13.1,7,19.2,11.2c28.7,19.7,54.7,42.1,86.7,56.7
	c8,3.6,24.9,6.8,29.5,14.4c5.5,9-5.3,13.7-12.9,10.5c4.1,1.8,8.3,3.5,12.4,5.3c1.8,0.8,3.7,1.6,5,3.1c3.3,3.8,1,10.3-3.4,13
	c-4.3,2.7-9.8,2.6-14.9,2.5c3.9,2.3,8,4.7,10.4,8.6c2.3,3.9,2.2,9.7-1.5,12.2c-1.9,1.3-4.4,1.6-6.8,1.5c-5.3-0.2-10.6-1.7-15.1-4.5
	c6.2,4.4,16.2,6.2,16.8,13.8c0.3,3.7-2.2,7.1-5.5,8.9c-3.2,1.8-7,2.1-10.7,2.2c-25.5,0.4-53.1-12.8-72.7-28.3
	c-21.4-16.9-39.4-37.9-52.9-61.6C156.3,222.6,140.5,188.1,149,171.6z"/>
<path class="st44" d="M42.2,135.7c11.7,3.2,23.6,5,35.7,6c6.3,0.5,7.4-1,6.8-7c-0.5-5.3-2.7-23.3-8.6-25.7c-2.6-1.1-5.6,2-7.5,3.3
	c-9.3,6.3-18.4,13-27.7,19.5c-0.6,0.4-1.3,0.9-1.4,1.7C39.5,134.6,40.9,135.3,42.2,135.7z"/>
<path class="st4" d="M94.5,98.7c1.6,6.2,6.6,10.4,12.7,10.4l1.8-0.1c3.5-0.4,6.3-2,8.1-4.3c1.8-2.3,2.7-5.3,2.7-8.5c0-1-0.1-2-0.2-3
	c-0.1-0.9-1-1.5-1.9-1.4c-0.9,0.1-1.5,1-1.4,1.9c0.1,0.9,0.2,1.7,0.2,2.5c0,2.6-0.7,4.8-1.9,6.4c-1.3,1.6-3.1,2.7-5.9,3.1l-1.4,0.1
	c-4.6,0-8.1-2.9-9.4-7.9c-0.2-0.9-1.1-1.4-2-1.2C94.8,96.9,94.3,97.8,94.5,98.7L94.5,98.7z"/>
<path class="st42" d="M93.8,62.4c-1.6-5.4-4-10.5-7.1-15.1c4.6,0.3,9.2,1.9,13,4.4c-0.1-5.9-3-11.7-7.7-15.3
	c6-0.6,12.3,0.7,16.9,4.6c1.5,1.3,2.8,2.7,4,4.2c2,2.3,4,4.6,5.9,7"/>
<path class="st43" d="M57.2,222.8c-0.4,1.1-0.6,2.3-0.6,3.4c0,1.2,0.2,2.3,0.6,3.4c0.4,1,1.5,1.5,2.5,1.2c1-0.4,1.6-1.5,1.2-2.5
	c-0.2-0.7-0.4-1.4-0.4-2.1c0-0.7,0.1-1.5,0.4-2.1c0.4-1-0.2-2.1-1.2-2.5C58.7,221.2,57.6,221.8,57.2,222.8L57.2,222.8z"/>
<path class="st43" d="M69.9,224.6c-0.1,0.9-0.2,1.9-0.2,2.9c0,1.6,0.1,3.1,0.4,4.7c0.2,1.1,1.2,1.8,2.3,1.6c1.1-0.2,1.8-1.2,1.6-2.3
	c-0.2-1.3-0.4-2.6-0.4-4c0-0.8,0-1.6,0.1-2.4c0.1-1.1-0.7-2-1.7-2.1C71,222.7,70,223.5,69.9,224.6L69.9,224.6z"/>
<path class="st43" d="M62.2,237.7c0,0.6-0.1,1.3-0.1,1.9c0,1.9,0.2,3.7,0.6,5.6c0.2,1.1,1.3,1.7,2.3,1.5c1.1-0.2,1.7-1.3,1.5-2.3
	c-0.3-1.6-0.5-3.2-0.5-4.8l0.1-1.6c0.1-1.1-0.7-2-1.8-2.1C63.2,235.8,62.3,236.6,62.2,237.7L62.2,237.7z"/>
<path class="st43" d="M50.1,244.8c0,2.6,0,5.3,0,7.9c0,1.1,0.9,2,2,2c1.1,0,2-0.9,2-2c0-2.6,0-5.3,0-7.9c0-1.1-0.9-1.9-2-1.9
	C51,242.8,50.1,243.7,50.1,244.8L50.1,244.8z"/>
<path class="st43" d="M81.2,239.1c-0.4,1.4-0.5,2.8-0.5,4.2c0,0.7,0,1.4,0.1,2.2c0.2,1.1,1.1,1.8,2.2,1.7c1.1-0.2,1.8-1.1,1.7-2.2
	l-0.1-1.6c0-1.1,0.1-2.1,0.4-3.2c0.3-1-0.3-2.1-1.4-2.4C82.5,237.5,81.5,238.1,81.2,239.1L81.2,239.1z"/>
<path class="st43" d="M71.5,253.6c0,2,0,4,0,6c0,1.1,0.9,2,2,2c1.1,0,2-0.9,2-2c0-2,0-4,0-6c0-1.1-0.9-1.9-2-1.9
	C72.3,251.6,71.5,252.5,71.5,253.6L71.5,253.6z"/>
<path class="st43" d="M58.1,262l-0.2,1.7c0,2.2,0.8,4.4,2.2,6.1c0.7,0.8,1.9,0.9,2.7,0.2c0.8-0.7,0.9-1.9,0.2-2.8
	c-0.8-1-1.3-2.3-1.3-3.5l0.1-1c0.2-1.1-0.5-2.1-1.5-2.3C59.4,260.3,58.3,261,58.1,262L58.1,262z"/>
<path class="st43" d="M84.9,261.4c0.5,2,0.9,4,1.3,6c0.2,1.1,1.3,1.7,2.3,1.5c1.1-0.2,1.7-1.3,1.5-2.3c-0.5-2-0.9-4-1.4-6
	c-0.2-1.1-1.3-1.7-2.3-1.5C85.3,259.3,84.7,260.4,84.9,261.4L84.9,261.4z"/>
<path class="st43" d="M72.5,271.9c0.3,2,0.6,4,0.9,6c0.2,1.1,1.1,1.8,2.2,1.7c1.1-0.2,1.8-1.1,1.7-2.2c-0.3-2-0.6-4-0.9-6
	c-0.2-1.1-1.1-1.8-2.2-1.7C73.1,269.9,72.4,270.8,72.5,271.9L72.5,271.9z"/>
<path class="st43" d="M55.3,282.7c0.5,2.2,0.9,4.3,1.4,6.5c0.2,1.1,1.3,1.7,2.3,1.5c1.1-0.2,1.7-1.3,1.5-2.3
	c-0.5-2.2-0.9-4.3-1.4-6.5c-0.2-1.1-1.3-1.7-2.3-1.5C55.8,280.6,55.1,281.7,55.3,282.7L55.3,282.7z"/>
<path class="st43" d="M86.3,281.2l0,0.8c0,2.4,0.8,4.7,2.2,6.6c0.6,0.9,1.9,1,2.7,0.4c0.9-0.6,1-1.9,0.4-2.7
	c-0.9-1.2-1.4-2.8-1.4-4.3l0-0.4c0.1-1.1-0.7-2-1.8-2.1C87.4,279.4,86.4,280.1,86.3,281.2L86.3,281.2z"/>
<path class="st43" d="M71.5,293.2c0.3,1.9,0.7,3.8,1.4,5.5c0.4,1,1.5,1.5,2.5,1.1c1-0.4,1.5-1.5,1.1-2.5c-0.6-1.5-1-3.1-1.2-4.7
	c-0.2-1.1-1.1-1.8-2.2-1.7C72.1,291.2,71.4,292.2,71.5,293.2L71.5,293.2z"/>
<path class="st43" d="M62.8,205.6c-0.4,1.1-0.6,2.2-0.6,3.3c0,1,0.2,2.1,0.5,3.1c0.4,1,1.5,1.6,2.5,1.2c1-0.4,1.6-1.5,1.2-2.5
	c-0.2-0.6-0.3-1.2-0.3-1.8c0-0.7,0.1-1.3,0.3-2c0.4-1-0.2-2.1-1.2-2.5C64.3,204.1,63.2,204.6,62.8,205.6L62.8,205.6z"/>
<path class="st43" d="M99.8,269.4c-0.2,0.8-0.3,1.6-0.3,2.5c0,2.2,0.6,4.5,1.8,6.4c0.6,0.9,1.8,1.2,2.7,0.7c0.9-0.6,1.2-1.8,0.7-2.7
	c-0.8-1.3-1.2-2.8-1.2-4.4l0.2-1.7c0.2-1.1-0.5-2.1-1.5-2.3C101.1,267.7,100.1,268.4,99.8,269.4L99.8,269.4z"/>
<path class="st43" d="M98.4,291.8c0.3,2.6,0.9,5.1,1.9,7.5c0.4,1,1.5,1.5,2.5,1.1c1-0.4,1.5-1.5,1.1-2.5c-0.8-2.1-1.4-4.3-1.6-6.5
	c-0.1-1.1-1.1-1.8-2.2-1.7C99,289.8,98.3,290.7,98.4,291.8L98.4,291.8z"/>
<path class="st43" d="M84.4,302.5l-0.1,1.4c0,1.9,0.4,3.8,1.2,5.6c0.4,1,1.6,1.4,2.6,1c1-0.4,1.4-1.6,1-2.6c-0.6-1.3-0.8-2.7-0.8-4
	l0.1-1c0.1-1.1-0.7-2-1.7-2.1C85.5,300.7,84.6,301.4,84.4,302.5L84.4,302.5z"/>
<path class="st43" d="M61.7,305.5c0,2.3,0.6,4.5,1.7,6.5c0.5,0.9,1.7,1.3,2.6,0.8c0.9-0.5,1.3-1.7,0.8-2.6c-0.8-1.4-1.2-3-1.2-4.6
	c0-1.1-0.9-1.9-2-1.9C62.5,303.6,61.7,304.4,61.7,305.5L61.7,305.5z"/>
</svg>
