<?xml version="1.0" encoding="utf-8"?>
<!-- Generator: Adobe Illustrator 28.0.0, SVG Export Plug-In . SVG Version: 6.00 Build 0)  -->
<svg version="1.1" id="Capa_1" xmlns="http://www.w3.org/2000/svg" xmlns:xlink="http://www.w3.org/1999/xlink" x="0px" y="0px"
	 viewBox="0 0 385 474.2" style="enable-background:new 0 0 385 474.2;" xml:space="preserve">
<style type="text/css">
	.st0{fill:#97A7B0;}
	.st1{fill:#F5EDE3;}
	.st2{fill:#F9B7BB;}
	.st3{fill:#DED9D6;}
	.st4{fill:#665067;}
	.st5{fill:#89C9D1;}
	.st6{fill:#F1F2F2;}
	.st7{fill:#E7E3DE;}
	.st8{fill:#CED5DB;}
	.st9{fill:#BEC4CD;}
	.st10{fill:#E6946D;}
	.st11{fill:#E18261;}
	.st12{fill:#D1D6DC;}
	.st13{fill:#ACB8C1;}
	.st14{fill:#E7E9EA;}
	.st15{fill:#565D6B;}
	.st16{fill:#4B525F;}
	.st17{fill:#9C6B66;}
	.st18{fill:#F7E7C0;}
	.st19{fill:#F5CEA7;}
	.st20{fill:#FFFFFF;}
	.st21{fill:#C5CAD3;}
	.st22{fill:#ACB5C2;}
	.st23{fill:#F9E8AB;}
	.st24{fill:#F5C98A;}
	.st25{fill:#F2AC79;}
	.st26{fill:#F1A874;}
	.st27{fill:#F7A8B2;}
	.st28{fill:#CB9683;}
	.st29{fill:#C08977;}
	.st30{fill:#BC8A78;}
	.st31{fill:#B6786C;}
	.st32{fill:#F5DEC7;}
	.st33{fill:#D6A189;}
	.st34{fill:#F6D1A0;}
	.st35{fill:#F4BE89;}
	.st36{fill:#D48B6F;}
	.st37{fill:#F3C9B7;}
	.st38{fill:#C1775A;}
	.st39{fill:#D59979;}
	.st40{fill:#F2B59B;}
	.st41{fill:#DB9572;}
	.st42{fill:#F8B4BD;}
	.st43{fill:#FACAD3;}
	.st44{fill:#F7D37F;}
	.st45{fill:#BCDFE9;}
	.st46{fill:#F7CE6D;}
</style>
<path class="st0" d="M298.6,338.2c2.6-26.4,0.5-53.6,8.1-79.1c2.2-7.5,5.5-15,11.3-20.1c5.8-5.2,14.8-7.5,21.6-3.8
	c7.3,3.9,10.1,13.6,7.8,21.5c-2.2,8-8.4,14.3-15.4,18.7c7.6-0.2,13,8.7,11.8,16.2c-1.2,7.5-7,13.5-13.1,18
	c4.6,4.7,5.8,11.9,4.7,18.4c-1.1,6.5-4.3,12.4-7.3,18.2c-14.4,27.1-31.6,59.6-61.7,71.9c-2.5-14.8,12.5-22.2,19.2-34.2
	C293.5,370,297.1,354,298.6,338.2z"/>
<path class="st1" d="M274.7,320c-11.5-27.4-29-52.5-46.3-77.3c-2.3-3.3-4.8-6.7-8.8-8.3c-3.3-1.3-7-1.1-10.5-0.8
	c-26.5,1.7-53,3.5-79.5,5.2l-11.3,2.8c-19.7,26.6-34.9,55.8-44.8,86.4c-5.4,16.7-9.3,34-8.6,51.4c1.1,28.9,15.2,57,39.9,72.7
	c21.1,13.4,46,13.5,70.1,14.7c24.9,1.3,50-2.9,73.2-12c11.9-4.7,23.1-12.3,29.8-23.2C297.1,399.7,288.1,352.1,274.7,320z"/>
<path class="st1" d="M98.8,71.2c-6.6-5.4-16.1-12-20.7-8.5c-3.9,3-3.7,10.4-4.2,14.6c-0.8,6.5-1.9,37.1-2,58.6
	c12-4.9,28.7-14.2,34.4-17.6c6.8-4.1,17.1-13,22.9-18.5c-8-8.1-15.9-16.4-24.6-23.7C103.4,75.1,101.3,73.2,98.8,71.2z"/>
<path class="st1" d="M245.7,71.2c6.6-5.4,16.1-12,20.7-8.5c3.9,3,3.7,10.4,4.2,14.6c0.8,6.5,1.9,37.1,2,58.6
	c-12-4.9-28.7-14.2-34.4-17.6c-6.8-4.1-17.1-13-22.9-18.5c8-8.1,15.9-16.4,24.6-23.7C241.1,75.1,243.2,73.2,245.7,71.2z"/>
<path class="st2" d="M261.2,76.3c-6.2,0.2-16.5,13.4-18.3,16.1c-1.1,1.7-8.2,10.6-12.4,17.9c4.8,2.6,9.5,5.2,14.3,7.8
	c3.6,2,7.2,3.9,10.8,5.9c3.1,1.7,5.1,3.3,7.2,5.8c2.2-12.6,3.4-27.6,3.5-40.5c0-3.4-0.1-6.9-1.3-10.1
	C264.1,77.1,262.8,76.3,261.2,76.3z"/>
<path class="st2" d="M85.2,76.4c6.2,0.6,15.7,14.3,17.4,17.2c1,1.7,7.5,11.1,11.4,18.6c-4.9,2.3-9.8,4.7-14.7,7
	c-3.7,1.8-7.4,3.5-11.2,5.3c-3.1,1.5-5.3,3-7.5,5.4c-1.5-12.8-1.8-27.7-1.2-40.7c0.2-3.4,0.5-6.9,1.9-10
	C82.2,77,83.6,76.3,85.2,76.4z"/>
<path class="st1" d="M260.7,121.4c-26.7-23.3-65.5-30.8-100-28.5c-34.4,2.3-71.8,15.5-91.7,45.4c-3.4,5.1-5.2,10.5-8.1,15.7
	c-4.7,8.2-9.4,16.4-14.1,24.6c-1.7,3-3.5,6.4-2.9,9.8c0.6,3.4,4.9,6.2,7.6,4.1c-3,4.7-5.1,10-6.2,15.5c-0.4,2.1-0.7,4.5,0.6,6.3
	c2.3,3.3,7.4,1.8,11,0.1c-0.9,3.7-1.8,7.4-1.7,11.2c0.1,3.8,1.5,7.7,4.4,10.2c2.9,2.5,7.5,3,10.5,0.6c1.2,6.8,6.2,12.8,12.7,15
	c4.4,1.5,9.5,1.3,13.6,3.5c4.6,2.5,8.8,5.5,13.7,7.7c10.2,4.5,20.9,7.7,31.8,9.8c19.1,4.8,41,3.4,60.1-0.5
	c15.6-3.2,30.7-9.3,44.4-17.4c4-2.4,8.2-5.2,12.8-5.4c1.3-0.1,2.7,0.1,4-0.1c3.1-0.3,5.5-2.3,7.3-4.7c0.7-0.9,3.8-9.6,4.2-9.6
	c2.9-0.1,5.3,3.2,8.1,2.7c2.4-0.4,3.5-3.2,4-5.5c1.8-7.7,2.7-15.6,2.4-23.4c1.4,2.9,6.1,2.3,7.9-0.2c1.9-2.6,1.7-6.1,1.3-9.2
	c-0.9-6.9-2.5-13.8-6-19.8c2.2,0.2,4.6,1.9,6.3,0.5c1.6-1.2,1-3.8,0.1-5.6c-5-10.7-12.9-18.5-19-28.3
	C274.2,136.8,269.1,128.6,260.7,121.4z"/>
<path class="st1" d="M126.5,336.2c-0.1,37.4,5.8,76,19.4,111c2.1,5.5,6.2,10.2,7.5,15.9l0,0.4l-0.9,0.5c-2.1,0.2-4.2,0.8-6,1.9
	c-1.2,0.7-2.5,2.1-1.8,3.3c0.5,1,1.7,1.1,2.8,1.2c8.7,0.3,26.8,2.7,27.1-10c1.1-42.2,0-93.9,0.8-124.1"/>
<path class="st3" d="M124.9,336.2l0,1.3c0,37.2,6,75.5,19.5,110.3c2.3,5.8,6.3,10.5,7.5,15.7l1.6-0.4l-1.6,0.1l0,0.4l1.6-0.1
	l-0.7-1.4l-0.9,0.5l0.7,1.4l-0.1-1.6c-2.3,0.2-4.6,0.9-6.7,2.1c-0.6,0.4-1.3,0.9-1.8,1.5c-0.5,0.6-1,1.4-1,2.5l0.4,1.5l1.4-0.8
	l-1.4,0.7c0.5,1,1.4,1.5,2.1,1.7c0.8,0.2,1.5,0.3,2.1,0.3c2.6,0.1,6,0.4,9.7,0.4c4.3,0,8.7-0.4,12.4-2c1.8-0.8,3.5-2,4.7-3.7
	c1.2-1.7,1.9-3.8,2-6.2c0.5-17.2,0.6-36,0.6-54.2c0-12.5,0-24.7,0-36c0-12.8,0.1-24.4,0.3-33.9c0-0.9-0.7-1.6-1.6-1.6
	c-0.9,0-1.6,0.7-1.6,1.6c-0.3,9.5-0.3,21.2-0.3,34c0,11.3,0,23.5,0,36c0,18.2-0.1,37-0.6,54.1c-0.1,1.9-0.6,3.3-1.4,4.5
	c-1.2,1.7-3.2,2.8-5.8,3.5c-2.6,0.7-5.7,0.9-8.7,0.9c-3.5,0-6.9-0.3-9.6-0.4l-1.2-0.2l-0.3-0.1l0,0l-0.1,0.1l0.1,0l0-0.1l-0.1,0.1
	l0.1,0l0-0.1c0.1-0.3,0.6-0.8,1.2-1.1c1.6-0.9,3.5-1.5,5.3-1.7l0.6-0.2l0.9-0.5c0.6-0.3,0.9-0.9,0.9-1.5l0-0.4l0-0.3
	c-1.5-6.2-5.7-11-7.6-16.1c-13.4-34.4-19.3-72.2-19.3-109.1l0-1.3c0-0.9-0.7-1.6-1.6-1.6C125.6,334.6,124.9,335.3,124.9,336.2
	L124.9,336.2z"/>
<path class="st1" d="M231.7,336.2c0.1,37.4-5.8,76-19.4,111c-2.1,5.5-6.2,10.2-7.5,15.9l0,0.4l0.9,0.5c2.1,0.2,4.2,0.8,6,1.9
	c1.2,0.7,2.5,2.1,1.8,3.3c-0.5,1-1.8,1.1-2.8,1.2c-8.7,0.3-26.8,2.7-27.1-10c-1.1-42.2,0-93.9-0.8-124.1"/>
<path class="st3" d="M230.1,336.2l0,1.3c0,36.9-5.9,74.7-19.3,109.1c-2,5.1-6.1,9.9-7.6,16.1l0,0.3l0,0.4c0,0.6,0.3,1.2,0.9,1.5
	l0.9,0.5l0.6,0.2c1.9,0.2,3.7,0.7,5.4,1.7l0.9,0.8l0.2,0.3l0,0.1h0l0,0l0,0h0l0,0l1.4,0.7l-1.4-0.7l-0.3,0.1l-1.2,0.2
	c-2.7,0.1-6.1,0.4-9.6,0.4c-4.1,0-8.2-0.4-11.1-1.7c-1.5-0.7-2.6-1.5-3.4-2.6c-0.8-1.1-1.3-2.5-1.4-4.5c-0.5-17.1-0.6-35.9-0.6-54.1
	c0-12.5,0-24.7,0-36c0-12.8-0.1-24.5-0.3-34c0-0.9-0.8-1.6-1.6-1.6c-0.9,0-1.6,0.8-1.6,1.6c0.2,9.5,0.3,21.1,0.3,33.9
	c0,11.3,0,23.5,0,36c0,18.2,0.1,37,0.6,54.2c0.1,2.5,0.8,4.6,2,6.2c1.8,2.5,4.6,3.9,7.6,4.7c3,0.8,6.3,1,9.5,1
	c3.6,0,7.1-0.3,9.7-0.4c0.6,0,1.3-0.1,2.1-0.3c0.7-0.2,1.6-0.8,2.1-1.7l0,0l0.3-1.4c0-1.1-0.5-1.9-1-2.5c-0.5-0.6-1.2-1.1-1.8-1.5
	c-2-1.2-4.3-1.9-6.7-2.1l-0.1,1.6l0.7-1.4l-0.9-0.5l-0.7,1.4l1.6,0.1l0-0.4l-1.6-0.1l1.6,0.4c1.2-5.2,5.2-9.9,7.5-15.7
	c13.5-34.8,19.5-73.1,19.5-110.3l0-1.3c0-0.9-0.7-1.6-1.6-1.6C230.8,334.6,230.1,335.3,230.1,336.2L230.1,336.2z"/>
<path class="st4" d="M171.7,220.1c-0.2,2.6-0.7,5.2-2.3,6.9c-1.2,1.3-3.1,2.1-4.9,2.1c-1.2,0-2.3-0.3-3.3-0.8
	c-2.4-1.3-3.9-4.1-3.9-6.9l0-0.8l-0.8-1l-1,0.8l-0.1,1.1c0,3.4,1.8,6.8,4.8,8.5c1.3,0.7,2.8,1.1,4.2,1.1c2.3,0,4.7-0.9,6.3-2.7
	c2-2.3,2.6-5.3,2.8-8.1c0-0.5-0.4-0.9-0.9-1C172.1,219.2,171.7,219.6,171.7,220.1L171.7,220.1z"/>
<path class="st4" d="M171.9,219.7c0.4,2.8,1,5.9,3.2,8.2c1.9,1.9,4.1,2.7,6.2,2.7c4.8,0,9-4.2,9-9.9l0-1.1c0-0.5-0.5-0.9-1-0.8
	c-0.5,0-0.9,0.5-0.8,1l0,0.9c0,4.8-3.5,8.1-7.1,8.1c-1.6,0-3.4-0.6-4.9-2.2c-1.7-1.7-2.3-4.4-2.7-7.1l-1-0.8L171.9,219.7
	L171.9,219.7z"/>
<path class="st2" d="M181.1,209c7.1,1-4.4,10.9-7.7,11c-1.6,0.1-3-0.8-4.4-1.5c-4.2-2.2-9.5-6.7-4.1-8.9
	C169.1,207.9,176.8,208.5,181.1,209z"/>
<path class="st5" d="M255.9,188.4c0.5,13.8-12.4,25.5-28.9,26.1c-16.5,0.6-30.3-10.1-30.8-23.9c-0.5-13.8,12.4-25.5,28.9-26.1
	C241.5,163.9,255.3,174.6,255.9,188.4z"/>
<path class="st4" d="M234.4,192.4c0.4,10.2-7.6,18.8-17.8,19.2c-10.2,0.4-18.8-7.6-19.2-17.8c-0.4-10.2,7.6-18.8,17.8-19.2
	C225.4,174.2,234,182.2,234.4,192.4z"/>
<path class="st5" d="M87.8,194.7c0.5,13.8,14.3,24.5,30.8,23.9c16.5-0.6,29.5-12.3,28.9-26.1c-0.5-13.8-14.3-24.5-30.8-23.8
	C100.3,169.3,87.3,181,87.8,194.7z"/>
<path class="st4" d="M108.7,197.1c0.4,10.2,9,18.2,19.2,17.8c10.2-0.4,18.2-9,17.8-19.2c-0.4-10.2-9-18.2-19.2-17.8
	C116.3,178.3,108.3,186.9,108.7,197.1z"/>
<path class="st6" d="M230.4,181.5c0.1,2.5-1.9,4.6-4.3,4.7c-2.5,0.1-4.6-1.9-4.7-4.3c-0.1-2.5,1.9-4.6,4.3-4.7
	C228.2,177.1,230.3,179,230.4,181.5z"/>
<path class="st6" d="M142.6,184.8c0.1,2.5-1.9,4.6-4.3,4.7c-2.5,0.1-4.6-1.9-4.7-4.3c-0.1-2.5,1.8-4.6,4.3-4.7
	C140.5,180.4,142.5,182.3,142.6,184.8z"/>
<path class="st3" d="M168.4,177.3c0.2,0.9,0.4,1.8,0.4,2.7l-0.1,1.3c-0.1,0.9,0.5,1.7,1.4,1.8c0.9,0.1,1.7-0.5,1.8-1.4
	c0.1-0.5,0.1-1.1,0.1-1.6c0-1.2-0.2-2.4-0.5-3.5c-0.2-0.8-1.1-1.3-2-1.1C168.7,175.6,168.2,176.5,168.4,177.3L168.4,177.3z"/>
<path class="st3" d="M159.6,169.6l0,0.3c0,1.5,0.3,2.9,0.9,4.3c0.4,0.8,1.3,1.2,2.1,0.8c0.8-0.4,1.2-1.3,0.8-2.1
	c-0.4-0.9-0.6-1.9-0.6-2.9l0-0.1c0-0.9-0.6-1.6-1.5-1.7C160.4,168.1,159.6,168.7,159.6,169.6L159.6,169.6z"/>
<path class="st3" d="M169.9,163.4c-0.1,0.7-0.1,1.4-0.1,2.2c0,1.2,0.1,2.5,0.4,3.7c0.2,0.9,1,1.4,1.9,1.2c0.9-0.2,1.4-1,1.2-1.9
	c-0.2-1-0.3-2-0.3-3c0-0.6,0-1.2,0.1-1.8c0.1-0.9-0.5-1.7-1.4-1.8C170.8,161.9,170,162.5,169.9,163.4L169.9,163.4z"/>
<path class="st3" d="M182.2,165.6c-0.8,1.7-1.3,3.6-1.3,5.5l0,0.7c0.1,0.9,0.9,1.5,1.7,1.4c0.9-0.1,1.5-0.9,1.4-1.7l0-0.4
	c0-1.4,0.3-2.8,1-4.1c0.4-0.8,0.1-1.7-0.7-2.1C183.5,164.4,182.6,164.8,182.2,165.6L182.2,165.6z"/>
<path class="st3" d="M178.8,150.6c-0.7,1.1-1.1,2.4-1.1,3.7l0.1,1.3c0.2,0.9,1,1.4,1.9,1.2c0.9-0.2,1.4-1,1.2-1.9l-0.1-0.6
	c0-0.7,0.2-1.4,0.6-2c0.5-0.7,0.2-1.7-0.5-2.2C180.3,149.6,179.3,149.9,178.8,150.6L178.8,150.6z"/>
<path class="st3" d="M154.7,153.4c0.3,1.4,0.7,2.8,1.1,4.2c0.2,0.9,1.1,1.4,1.9,1.2c0.9-0.2,1.4-1.1,1.2-1.9
	c-0.4-1.4-0.7-2.8-1.1-4.2c-0.2-0.9-1.1-1.4-1.9-1.2C155,151.6,154.5,152.5,154.7,153.4L154.7,153.4z"/>
<path class="st3" d="M167.2,146.9c0,1.4,0,2.8,0,4.2c0,0.9,0.7,1.6,1.6,1.6c0.9,0,1.6-0.7,1.6-1.6c0-1.4,0-2.8,0-4.2
	c0-0.9-0.7-1.6-1.6-1.6C167.9,145.3,167.2,146,167.2,146.9L167.2,146.9z"/>
<path class="st3" d="M193.6,148.1c-0.9,1.8-1.5,3.8-1.7,5.8c-0.1,0.9,0.5,1.7,1.4,1.8c0.9,0.1,1.7-0.5,1.8-1.4
	c0.2-1.7,0.6-3.3,1.4-4.8c0.4-0.8,0.1-1.7-0.7-2.1C194.9,147,194,147.3,193.6,148.1L193.6,148.1z"/>
<path class="st3" d="M186.5,134.9c-1.2,1.5-1.9,3.4-1.9,5.4l0,0.4c0.1,0.9,0.9,1.5,1.8,1.3c0.9-0.1,1.5-0.9,1.3-1.8l-1,0.2l1,0
	l0-0.1l-1,0.2l1,0l0-0.1c0-1.2,0.4-2.4,1.2-3.4c0.5-0.7,0.4-1.7-0.2-2.2C188.1,134.1,187.1,134.2,186.5,134.9L186.5,134.9z"/>
<path class="st3" d="M174.1,128.2c-0.3,1.1-0.5,2.2-0.5,3.3c0,1.1,0.2,2.3,0.5,3.4c0.3,0.8,1.2,1.3,2,1c0.8-0.3,1.3-1.2,1-2
	c-0.3-0.8-0.4-1.6-0.4-2.4c0-0.8,0.1-1.6,0.4-2.4c0.3-0.8-0.2-1.7-1.1-2C175.2,126.9,174.3,127.4,174.1,128.2L174.1,128.2z"/>
<path class="st3" d="M156.9,129.9c0.1,2,0.3,4.1,0.4,6.1c0.1,0.9,0.8,1.6,1.7,1.5c0.9-0.1,1.6-0.8,1.5-1.7c-0.1-2-0.3-4.1-0.4-6.1
	c-0.1-0.9-0.8-1.5-1.7-1.5C157.5,128.3,156.9,129,156.9,129.9L156.9,129.9z"/>
<path class="st3" d="M142.7,137.1c0.7,2.1,1.1,4.3,1.3,6.5c0.1,0.9,0.8,1.5,1.7,1.5c0.9-0.1,1.5-0.9,1.5-1.7
	c-0.2-2.5-0.7-4.9-1.5-7.2c-0.3-0.8-1.2-1.3-2-1C142.8,135.4,142.4,136.3,142.7,137.1L142.7,137.1z"/>
<path class="st3" d="M165.4,116.3c-0.6,1.5-0.9,3-0.9,4.6l0.1,1.2c0.1,0.9,0.9,1.5,1.8,1.4c0.9-0.1,1.5-0.9,1.4-1.8l0-0.8
	c0-1.1,0.2-2.3,0.7-3.3c0.3-0.8,0-1.7-0.8-2.1C166.7,115.1,165.8,115.5,165.4,116.3L165.4,116.3z"/>
<path class="st3" d="M144,117.9c0.2,1.7,0.5,3.3,0.8,4.9c0.1,0.9,0.9,1.5,1.8,1.3c0.9-0.1,1.5-0.9,1.3-1.8c-0.3-1.7-0.5-3.3-0.8-4.9
	c-0.1-0.9-0.9-1.5-1.8-1.3C144.5,116.2,143.9,117,144,117.9L144,117.9z"/>
<path class="st3" d="M184.4,118.3c-0.3,2.5-0.6,5.1-0.9,7.6c-0.1,0.9,0.5,1.7,1.4,1.8c0.9,0.1,1.7-0.5,1.8-1.4
	c0.3-2.5,0.6-5.1,0.9-7.6c0.1-0.9-0.5-1.7-1.4-1.8C185.3,116.7,184.5,117.4,184.4,118.3L184.4,118.3z"/>
<path class="st3" d="M200.8,124.8c-0.9,1.6-1.5,3.4-1.7,5.2c-0.1,0.9,0.5,1.7,1.4,1.8c0.9,0.1,1.7-0.5,1.8-1.4
	c0.2-1.4,0.6-2.8,1.3-4c0.4-0.8,0.2-1.7-0.6-2.2C202.2,123.8,201.2,124.1,200.8,124.8L200.8,124.8z"/>
<path class="st3" d="M198.4,111.5c-0.4,1.3-0.8,2.5-1.1,3.8c-0.3,0.8,0.2,1.7,1.1,2c0.8,0.3,1.7-0.2,2-1.1c0.4-1.3,0.8-2.5,1.1-3.8
	c0.3-0.8-0.2-1.7-1.1-2C199.6,110.2,198.7,110.7,198.4,111.5L198.4,111.5z"/>
<path class="st3" d="M182.4,103.1c-0.3,1-0.5,2.1-0.5,3.2l0.1,1.3c0.1,0.9,0.9,1.5,1.8,1.4c0.9-0.1,1.5-0.9,1.4-1.8l-0.1-0.9
	c0-0.8,0.1-1.5,0.3-2.2c0.3-0.8-0.2-1.7-1-2C183.6,101.8,182.7,102.3,182.4,103.1L182.4,103.1z"/>
<path class="st3" d="M151.7,106.5c0.2,1.5,0.5,3,0.7,4.6c0.1,0.9,1,1.5,1.8,1.3c0.9-0.1,1.5-1,1.3-1.8c-0.2-1.5-0.5-3-0.7-4.6
	c-0.1-0.9-1-1.5-1.8-1.3C152.2,104.8,151.6,105.6,151.7,106.5L151.7,106.5z"/>
<path class="st3" d="M131.2,109.1c0.3,2.6,1,5.1,2.2,7.4c0.4,0.8,1.3,1.1,2.1,0.7c0.8-0.4,1.1-1.3,0.7-2.1c-1-2-1.6-4.2-1.9-6.4
	c-0.1-0.9-0.9-1.5-1.8-1.4C131.8,107.4,131.1,108.2,131.2,109.1L131.2,109.1z"/>
<path class="st3" d="M165.7,97.6c0.1,2.3,0.3,4.6,0.4,6.8c0,0.9,0.8,1.6,1.7,1.5c0.9-0.1,1.6-0.8,1.5-1.7c-0.1-2.3-0.3-4.6-0.4-6.8
	c-0.1-0.9-0.8-1.6-1.7-1.5C166.3,96,165.6,96.8,165.7,97.6L165.7,97.6z"/>
<path class="st3" d="M234,259.7c-20.9,8.5-43.4,12.8-66,12.8c-14,0-28-1.7-41.5-5c-0.9-0.2-1.7,0.3-1.9,1.2
	c-0.2,0.9,0.3,1.7,1.2,1.9c13.8,3.4,28.1,5.1,42.3,5.1c23,0,45.9-4.4,67.2-13.1c0.8-0.3,1.2-1.3,0.9-2.1
	C235.8,259.7,234.8,259.4,234,259.7L234,259.7z"/>
<path class="st3" d="M159.9,287.2c-0.2,1-0.3,2.1-0.3,3.1c0,0.8,0.1,1.5,0.2,2.3c0.1,0.9,1,1.5,1.8,1.3c0.9-0.1,1.5-1,1.3-1.8
	c-0.1-0.6-0.1-1.2-0.1-1.8c0-0.8,0.1-1.6,0.3-2.4c0.2-0.9-0.4-1.7-1.2-1.9C160.9,285.8,160.1,286.3,159.9,287.2L159.9,287.2z"/>
<path class="st3" d="M172.2,292.2l-0.1,1.4c0,1,0.1,1.9,0.3,2.9c0.2,0.9,1,1.4,1.9,1.2c0.9-0.2,1.4-1,1.2-1.9
	c-0.2-0.7-0.2-1.5-0.2-2.2l0.1-1.1c0.1-0.9-0.5-1.7-1.4-1.8C173.1,290.7,172.3,291.3,172.2,292.2L172.2,292.2z"/>
<path class="st3" d="M183.6,282.9c0.2,1.2,0.3,2.4,0.5,3.6c0.1,0.9,0.9,1.5,1.8,1.4c0.9-0.1,1.5-0.9,1.4-1.8
	c-0.2-1.2-0.3-2.4-0.5-3.5c-0.1-0.9-0.9-1.5-1.8-1.4C184.1,281.2,183.5,282,183.6,282.9L183.6,282.9z"/>
<path class="st3" d="M199.8,288.1c0.1,1.4,0.2,2.9,0.3,4.3c0.1,0.9,0.8,1.5,1.7,1.5c0.9-0.1,1.5-0.8,1.5-1.7
	c-0.1-1.4-0.2-2.9-0.3-4.3c-0.1-0.9-0.8-1.5-1.7-1.5C200.4,286.5,199.7,287.3,199.8,288.1L199.8,288.1z"/>
<path class="st3" d="M190.2,302.5c-0.2,0.9-0.2,1.9-0.2,2.8c0,0.7,0,1.4,0.1,2.2c0.1,0.9,0.9,1.5,1.8,1.4c0.9-0.1,1.5-0.9,1.4-1.8
	c-0.1-0.6-0.1-1.1-0.1-1.7c0-0.8,0.1-1.6,0.2-2.3c0.1-0.9-0.4-1.7-1.3-1.8C191.2,301,190.3,301.6,190.2,302.5L190.2,302.5z"/>
<path class="st3" d="M178,311.2l-0.1,1.3c0,1.1,0.1,2.3,0.3,3.4c0.2,0.9,1,1.4,1.9,1.3c0.9-0.2,1.4-1,1.3-1.9
	c-0.2-0.9-0.3-1.8-0.3-2.8l0-1.1c0.1-0.9-0.6-1.7-1.5-1.7C178.8,309.7,178.1,310.3,178,311.2L178,311.2z"/>
<path class="st3" d="M161.8,303.2c0,1,0,2,0,3c0,0.9,0.7,1.6,1.6,1.6c0.9,0,1.6-0.7,1.6-1.6c0-1,0-2,0-3c0-0.9-0.7-1.6-1.6-1.6
	C162.5,301.6,161.8,302.3,161.8,303.2L161.8,303.2z"/>
<path class="st3" d="M147.9,286.8c0,1.6,0,3.2,0,4.8c0,0.9,0.7,1.6,1.6,1.6c0.9,0,1.6-0.7,1.6-1.6c0-1.6,0-3.2,0-4.8
	c0-0.9-0.7-1.6-1.6-1.6C148.6,285.2,147.9,285.9,147.9,286.8L147.9,286.8z"/>
</svg>
