<?xml version="1.0" encoding="utf-8"?>
<!-- Generator: Adobe Illustrator 28.0.0, SVG Export Plug-In . SVG Version: 6.00 Build 0)  -->
<svg version="1.1" id="Capa_1" xmlns="http://www.w3.org/2000/svg" xmlns:xlink="http://www.w3.org/1999/xlink" x="0px" y="0px"
	 viewBox="0 0 385 474.2" style="enable-background:new 0 0 385 474.2;" xml:space="preserve">
<style type="text/css">
	.st0{fill:#97A7B0;}
	.st1{fill:#F5EDE3;}
	.st2{fill:#F9B7BB;}
	.st3{fill:#DED9D6;}
	.st4{fill:#665067;}
	.st5{fill:#89C9D1;}
	.st6{fill:#F1F2F2;}
	.st7{fill:#E7E3DE;}
	.st8{fill:#CED5DB;}
	.st9{fill:#BEC4CD;}
	.st10{fill:#E6946D;}
	.st11{fill:#E18261;}
	.st12{fill:#D1D6DC;}
	.st13{fill:#ACB8C1;}
	.st14{fill:#E7E9EA;}
	.st15{fill:#565D6B;}
	.st16{fill:#4B525F;}
	.st17{fill:#9C6B66;}
	.st18{fill:#F7E7C0;}
	.st19{fill:#F5CEA7;}
	.st20{fill:#FFFFFF;}
	.st21{fill:#C5CAD3;}
	.st22{fill:#ACB5C2;}
	.st23{fill:#F9E8AB;}
	.st24{fill:#F5C98A;}
	.st25{fill:#F2AC79;}
	.st26{fill:#F1A874;}
	.st27{fill:#F7A8B2;}
	.st28{fill:#CB9683;}
	.st29{fill:#C08977;}
	.st30{fill:#BC8A78;}
	.st31{fill:#B6786C;}
	.st32{fill:#F5DEC7;}
	.st33{fill:#D6A189;}
	.st34{fill:#F6D1A0;}
	.st35{fill:#F4BE89;}
	.st36{fill:#D48B6F;}
	.st37{fill:#F3C9B7;}
	.st38{fill:#C1775A;}
	.st39{fill:#D59979;}
	.st40{fill:#F2B59B;}
	.st41{fill:#DB9572;}
	.st42{fill:#F8B4BD;}
	.st43{fill:#FACAD3;}
	.st44{fill:#F7D37F;}
	.st45{fill:#BCDFE9;}
	.st46{fill:#F7CE6D;}
</style>
<path class="st30" d="M89.8,382.9c1.8,71.4,91.2,54.7,143.1,53.7c25.3-0.5,52.5-3.8,70.9-18.4c22.1-17.5,24.1-48.2,21.2-73.5
	c-5.7-49.7-9.3-86.5-18.3-132.2c-8.2-41.6-17.3-89.4-30-125.2c-7.4-20.7-30.6-22.1-76.6-23.5c-26.2-0.8-70.4-4.3-79.2,14.4
	c-4.2,9-8.5,36.3-10.4,47.5C102.5,174.3,88.8,339.8,89.8,382.9z"/>
<path class="st30" d="M90.5,391.7c1.1,19.7,11,51.6,11.7,55.2c1.4,7.5-5.2,12.5-9.8,18.2c-5.4,6.6,3.1,8.5,9.3,8.5
	c9.9,0.1,19.7-0.6,29.4-2.2c1.5-0.2,3.1-0.5,4.3-1.3c1.6-1.1,2.6-2.9,3.1-4.6c6.4-21.5,10.7-37,15.2-53.3l-0.9-0.3L90.5,391.7z"/>
<path class="st30" d="M258.1,413c6.3,15.2,12.7,31,13.5,34.6c1.7,7.5-4.7,12.7-9.2,18.5c-5.2,6.8,3.5,8.3,9.6,8.2
	c9.9-0.2,19.7-1.3,29.3-3.2c1.5-0.3,3-0.6,4.2-1.5c1.6-1.1,2.5-2.9,3-4.7c5.6-21.7,15.3-81.1,15.3-81.1L258.1,413z"/>
<path class="st34" d="M267.3,318.5c-0.1-3.4-0.3-6.8-0.6-10.1c-1.5-20-4.2-40.8-16.4-57.4c-16.9-23.2-50-23.3-75.7-19.9
	c-17.5,2.3-30.7,6.2-39,23.4c-3.8,7.9-5.6,16.5-6.9,25.2c-3,19.7-4.5,39.7-3,59.6c0,0.6,0.1,1.2,0.1,1.9c1.4,16.9,4,37.2,16.6,49.5
	c10.1,9.8,24.9,13.9,39.2,16c13.4,2,27.1,2.6,40.3-0.3c20.3-4.4,30.2-14.6,37.6-33C266.6,356,268,337,267.3,318.5z"/>
<path class="st30" d="M109.9,72.5c-3.3-5.9-4.4-13.2-2.3-19.7c6.3-18.5,29.9-15.8,36.9,0c4.8,10.7,4,25-7.8,31.5
	C126,90.2,115.1,81.6,109.9,72.5z"/>
<path class="st17" d="M120.4,66.7c-1.3-2.3-1.7-5.1-0.9-7.6c2.4-7.2,11.6-6.1,14.3,0c1.9,4.1,1.6,9.7-3,12.2
	C126.6,73.5,122.4,70.2,120.4,66.7z"/>
<path class="st30" d="M282.7,75.1c4.3-5.3,6.5-12.4,5.4-19.1c-3.2-19.3-26.9-20.4-36.4-6c-6.5,9.8-8,24,2.6,32.3
	C264,90,276.1,83.3,282.7,75.1z"/>
<path class="st17" d="M273.3,67.7c1.6-2.1,2.5-4.8,2.1-7.4c-1.2-7.5-10.4-7.9-14.1-2.3c-2.5,3.8-3.1,9.3,1,12.5
	C266.1,73.5,270.7,70.9,273.3,67.7z"/>
<path class="st30" d="M101.4,211.9c-4.4,12.5-11.8,23.8-19.7,34.5c-3.4,4.7-7.2,10.1-5.8,15.7c1.6,6.4,9.5,9.6,15.9,8.2
	c17.7-3.6,34.9-22.3,44.5-39.2"/>
<path class="st31" d="M99.7,211.4c-4.3,12.3-11.6,23.4-19.4,34c-2.9,4-6.4,8.8-6.4,14.3c0,0.9,0.1,1.9,0.3,2.9l0,0
	c0.8,3.2,2.9,5.7,5.6,7.4c2.7,1.6,5.8,2.5,9,2.5c1.1,0,2.3-0.1,3.4-0.3c9.3-1.9,18.3-7.7,26.2-15.1c7.9-7.4,14.6-16.4,19.5-24.9
	c0.5-0.8,0.2-1.9-0.7-2.4c-0.8-0.5-1.9-0.2-2.4,0.7c-4.7,8.3-11.3,17-18.9,24.1c-7.6,7.1-16.1,12.5-24.5,14.2
	c-0.9,0.2-1.8,0.3-2.7,0.3c-2.5,0-5.1-0.7-7.2-2c-2-1.3-3.5-3-4-5.2l0,0c-0.2-0.7-0.2-1.3-0.2-2c0-3.9,2.8-8.3,5.7-12.3
	c7.9-10.8,15.4-22.1,19.9-34.9c0.3-0.9-0.2-1.9-1.1-2.2C101,210,100,210.5,99.7,211.4L99.7,211.4z"/>
<path class="st31" d="M79,265.1c1.4-2.3,3.3-4.4,5.5-6c0.8-0.6,1-1.6,0.4-2.4c-0.6-0.8-1.6-1-2.4-0.4c-2.6,1.9-4.8,4.3-6.5,7.1
	c-0.5,0.8-0.2,1.9,0.6,2.4C77.4,266.2,78.5,265.9,79,265.1L79,265.1z"/>
<path class="st31" d="M89.6,270.3c1.1-2.1,2.3-4.2,3.4-6.2c0.5-0.8,0.2-1.9-0.7-2.4c-0.8-0.5-1.9-0.2-2.4,0.7
	c-1.1,2.1-2.3,4.1-3.4,6.2c-0.5,0.8-0.2,1.9,0.7,2.4C88.1,271.5,89.2,271.2,89.6,270.3L89.6,270.3z"/>
<path class="st30" d="M249.1,211.9c-4.4,12.5-11.8,23.8-19.7,34.5c-3.4,4.7-7.2,10.1-5.8,15.7c1.6,6.4,9.5,9.6,15.9,8.2
	c17.7-3.6,34.9-22.3,44.5-39.2"/>
<path class="st31" d="M247.5,211.4c-4.3,12.3-11.6,23.4-19.4,34c-2.9,4-6.4,8.8-6.4,14.3c0,0.9,0.1,1.9,0.3,2.9l0,0
	c0.8,3.2,2.9,5.7,5.6,7.4c2.7,1.6,5.8,2.5,9,2.5c1.1,0,2.3-0.1,3.4-0.3c9.3-1.9,18.3-7.7,26.1-15.1c7.9-7.4,14.6-16.4,19.5-24.9
	c0.5-0.8,0.2-1.9-0.7-2.4c-0.8-0.5-1.9-0.2-2.4,0.7c-4.7,8.3-11.3,17-18.9,24.1c-7.6,7.1-16.1,12.5-24.5,14.2
	c-0.9,0.2-1.8,0.3-2.7,0.3c-2.5,0-5.1-0.7-7.2-2c-2-1.3-3.5-3-4-5.2l0,0c-0.2-0.7-0.2-1.3-0.2-2c0-3.9,2.8-8.3,5.7-12.3
	c7.9-10.8,15.4-22.1,19.9-34.9c0.3-0.9-0.2-1.9-1.1-2.2C248.8,210,247.8,210.5,247.5,211.4L247.5,211.4z"/>
<path class="st31" d="M226.7,265.1c1.4-2.3,3.3-4.4,5.5-6c0.8-0.6,1-1.7,0.4-2.4c-0.6-0.8-1.7-1-2.4-0.4c-2.6,1.9-4.8,4.3-6.5,7.1
	c-0.5,0.8-0.2,1.9,0.6,2.4C225.2,266.2,226.2,265.9,226.7,265.1L226.7,265.1z"/>
<path class="st31" d="M237.4,270.3c1.1-2.1,2.3-4.1,3.4-6.2c0.5-0.8,0.2-1.9-0.7-2.4c-0.8-0.5-1.9-0.2-2.4,0.7
	c-1.1,2.1-2.3,4.2-3.4,6.2c-0.5,0.8-0.2,1.9,0.7,2.4C235.8,271.5,236.9,271.2,237.4,270.3L237.4,270.3z"/>
<path class="st34" d="M178.1,175c2.1,4.4,6,8.8,12.2,10.2c5.1,1.2,10.9-0.1,14.9-2.5c4-2.5,6.5-6.1,7.9-9.8
	c2.5-6.6,2.5-14.6-1.4-20.7c-4.6-7.3-14.2-9.9-22.3-7.7C176.9,147.7,173.1,164.5,178.1,175z"/>
<path class="st4" d="M194.4,171.3c-0.1,1.9-0.5,3.9-1.7,5.2c-0.9,1-2.3,1.5-3.7,1.5c-0.9,0-1.8-0.2-2.5-0.6c-1.8-1-2.9-3.1-2.9-5.2
	l0-0.6l-0.6-0.8l-0.8,0.6l-0.1,0.8c0,2.5,1.3,5.1,3.6,6.4c1,0.5,2.1,0.8,3.2,0.8c1.7,0,3.5-0.7,4.7-2c1.5-1.7,1.9-4,2.1-6l-0.6-0.7
	L194.4,171.3L194.4,171.3z"/>
<path class="st4" d="M194.6,171c0.3,2.1,0.7,4.4,2.4,6.1c1.4,1.4,3.1,2,4.7,2c3.6,0,6.7-3.2,6.7-7.4l0-0.8l-0.7-0.6L207,171l0,0.7
	c0,3.6-2.6,6-5.3,6c-1.2,0-2.5-0.5-3.7-1.6c-1.3-1.3-1.7-3.3-2-5.3l-0.8-0.6L194.6,171L194.6,171z"/>
<path class="st4" d="M201,151l0.2,0.1c0.9,0.5,1.7,1.3,1.9,2.3c0.5,3.5-4.1,5.5-6.8,5.7c-3.2,0.2-6.8-0.9-8.4-3.6
	c-3.2-5.3,8.1-5.2,10.4-5C199.1,150.5,200.1,150.6,201,151z"/>
<path class="st4" d="M195.8,172.1c0.1-3.4,0.2-9.6,0.2-14.5c0-0.7,0-1.3,0-1.9l-0.7-0.7l-0.7,0.7c0,0.6,0,1.3,0,2
	c0,4.9-0.1,11.1-0.2,14.5l0.7,0.7L195.8,172.1L195.8,172.1z"/>
<path class="st20" d="M259,136.5c0.3,8.3-7.5,15.3-17.4,15.7c-9.9,0.4-18.2-6-18.5-14.3c-0.3-8.3,7.5-15.3,17.4-15.7
	C250.4,121.8,258.7,128.2,259,136.5z"/>
<path class="st4" d="M246.1,138.9c0.2,6.1-4.6,11.3-10.7,11.5c-6.1,0.2-11.3-4.6-11.5-10.7c-0.2-6.1,4.6-11.3,10.7-11.5
	C240.7,128,245.9,132.8,246.1,138.9z"/>
<path class="st20" d="M131.5,140.3c0.3,8.3,8.6,14.7,18.5,14.3c9.9-0.4,17.7-7.4,17.4-15.7c-0.3-8.3-8.6-14.7-18.5-14.3
	C139,125,131.2,132,131.5,140.3z"/>
<path class="st4" d="M144,141.8c0.2,6.1,5.4,10.9,11.5,10.7c6.1-0.2,10.9-5.4,10.7-11.5c-0.2-6.1-5.4-10.9-11.5-10.7
	C148.6,130.5,143.8,135.6,144,141.8z"/>
<path class="st6" d="M243.7,132.4c0.1,1.5-1.1,2.8-2.6,2.8c-1.5,0.1-2.8-1.1-2.8-2.6c-0.1-1.5,1.1-2.8,2.6-2.8
	C242.4,129.7,243.6,130.9,243.7,132.4z"/>
<path class="st6" d="M164.5,134.4c0.1,1.5-1.1,2.8-2.6,2.8c-1.5,0.1-2.8-1.1-2.8-2.6c-0.1-1.5,1.1-2.8,2.6-2.8
	C163.1,131.7,164.4,132.9,164.5,134.4z"/>
<path class="st35" d="M147,254.7l-0.1,1.5c0,1.3,0.1,2.5,0.4,3.8c0.2,0.9,1.2,1.5,2.1,1.3c0.9-0.2,1.5-1.2,1.3-2.1
	c-0.2-1-0.3-2-0.3-3l0.1-1.2c0.1-1-0.6-1.8-1.6-1.9C147.9,253,147.1,253.7,147,254.7L147,254.7z"/>
<path class="st35" d="M160.1,244.4c-0.1,0.5-0.1,1.1-0.1,1.7c0,1.3,0.1,2.6,0.4,3.8c0.2,0.9,1.1,1.6,2.1,1.4
	c0.9-0.2,1.6-1.1,1.4-2.1c-0.2-1-0.3-2.1-0.3-3.1l0.1-1.3c0.1-1-0.6-1.8-1.6-1.9C161,242.7,160.2,243.4,160.1,244.4L160.1,244.4z"/>
<path class="st35" d="M163.6,261.8c0.2,0.8,0.3,1.7,0.3,2.6l-0.1,1.3c-0.1,1,0.6,1.8,1.6,1.9c1,0.1,1.8-0.6,1.9-1.6
	c0-0.5,0.1-1.1,0.1-1.6c0-1.1-0.1-2.2-0.4-3.3c-0.2-0.9-1.2-1.5-2.1-1.3C163.9,259.9,163.4,260.8,163.6,261.8L163.6,261.8z"/>
<path class="st35" d="M175.1,253.9c0.4,1.1,0.8,2.3,1.3,3.4c0.3,0.9,1.3,1.4,2.3,1c0.9-0.3,1.4-1.3,1-2.3c-0.4-1.1-0.9-2.3-1.3-3.4
	c-0.3-0.9-1.3-1.4-2.3-1C175.2,252,174.7,253,175.1,253.9L175.1,253.9z"/>
<path class="st35" d="M187.8,239.8c0.2,1.7,0.4,3.3,0.6,5c0.1,1,1,1.6,1.9,1.5c1-0.1,1.6-1,1.5-1.9c-0.2-1.7-0.4-3.3-0.6-5
	c-0.1-1-1-1.6-1.9-1.5C188.4,238,187.7,238.8,187.8,239.8L187.8,239.8z"/>
<path class="st35" d="M189.4,258c0,1.6,0,3.1,0,4.7c0,1,0.8,1.8,1.7,1.8c1,0,1.8-0.8,1.8-1.8c0-1.6,0-3.1,0-4.7c0-1-0.8-1.7-1.7-1.7
	C190.1,256.2,189.4,257,189.4,258L189.4,258z"/>
<path class="st35" d="M203,250c-0.4,0.8-0.6,1.7-0.6,2.5c0,1.3,0.5,2.7,1.4,3.8c0.6,0.7,1.7,0.8,2.5,0.2c0.7-0.6,0.8-1.7,0.2-2.5
	c-0.3-0.4-0.5-0.9-0.5-1.5l0.2-1c0.4-0.9,0.1-1.9-0.8-2.3C204.5,248.8,203.4,249.2,203,250L203,250z"/>
<path class="st35" d="M216.9,240.4c0.2,0.6,0.3,1.2,0.3,1.9l-0.1,0.9c-0.1,1,0.6,1.8,1.6,1.9c1,0.1,1.8-0.6,1.9-1.6l0.1-1.2
	c0-1-0.1-1.9-0.4-2.9c-0.3-0.9-1.2-1.5-2.2-1.2C217.1,238.5,216.6,239.4,216.9,240.4L216.9,240.4z"/>
<path class="st35" d="M215.2,263.4l0,1.1c0,1.2,0.1,2.3,0.4,3.5c0.2,0.9,1.2,1.5,2.1,1.3c0.9-0.2,1.5-1.2,1.3-2.1
	c-0.2-0.9-0.3-1.8-0.3-2.7l0-0.8c0.1-1-0.6-1.8-1.6-1.9C216.1,261.8,215.3,262.5,215.2,263.4L215.2,263.4z"/>
<path class="st35" d="M202.1,272c0,1.1,0,2.3,0,3.4c0,1,0.8,1.8,1.7,1.8c1,0,1.8-0.8,1.8-1.8c0-1.1,0-2.3,0-3.4c0-1-0.8-1.7-1.7-1.7
	C202.9,270.2,202.1,271,202.1,272L202.1,272z"/>
<path class="st35" d="M174.5,270.8c-0.4,1.2-0.6,2.4-0.6,3.6c0,0.7,0.1,1.5,0.2,2.2c0.2,0.9,1.1,1.6,2.1,1.4
	c0.9-0.2,1.6-1.1,1.4-2.1c-0.1-0.5-0.1-1-0.1-1.5c0-0.9,0.1-1.8,0.4-2.6c0.3-0.9-0.2-1.9-1.2-2.2
	C175.7,269.4,174.8,269.9,174.5,270.8L174.5,270.8z"/>
<path class="st35" d="M152,271.7c-0.1,0.5-0.1,1.1-0.1,1.6c0,1.4,0.3,2.8,0.8,4.1c0.4,0.9,1.4,1.3,2.3,0.9c0.9-0.4,1.3-1.4,0.9-2.3
	c-0.4-0.8-0.5-1.7-0.5-2.7l0.1-1.1c0.2-1-0.5-1.9-1.5-2C153,270.1,152.2,270.8,152,271.7L152,271.7z"/>
<path class="st35" d="M224.6,281.4c-0.1,0.5-0.1,1.1-0.1,1.6c0,1,0.1,2.1,0.4,3.1c0.2,0.9,1.2,1.5,2.1,1.3c0.9-0.2,1.5-1.2,1.3-2.1
	c-0.2-0.7-0.3-1.5-0.3-2.2l0.1-1.2c0.1-1-0.5-1.8-1.5-2C225.6,279.8,224.7,280.5,224.6,281.4L224.6,281.4z"/>
<path class="st35" d="M251.7,276.2l0,0.2c0,2.3,0.4,4.5,1.1,6.7c0.3,0.9,1.3,1.4,2.2,1.1c0.9-0.3,1.4-1.3,1.1-2.2
	c-0.6-1.8-0.9-3.7-0.9-5.6h-0.9l0.9,0.1l0-0.1h-0.9l0.9,0.1l0,0c0.1-1-0.6-1.8-1.6-1.9C252.6,274.5,251.8,275.2,251.7,276.2
	L251.7,276.2z"/>
<path class="st35" d="M240.6,283.8c-0.2,0.8-0.3,1.6-0.3,2.4c0,1.3,0.2,2.6,0.7,3.9c0.3,0.9,1.3,1.4,2.2,1.1
	c0.9-0.3,1.4-1.3,1.1-2.2c-0.3-0.9-0.5-1.8-0.5-2.7c0-0.6,0.1-1.1,0.2-1.7c0.2-0.9-0.4-1.9-1.3-2.1
	C241.7,282.3,240.8,282.9,240.6,283.8L240.6,283.8z"/>
<path class="st35" d="M210.2,285.1c0,1.1,0,2.3,0,3.4c0,1,0.8,1.7,1.8,1.7c1,0,1.7-0.8,1.7-1.7c0-1.1,0-2.3,0-3.4
	c0-1-0.8-1.7-1.7-1.7C211,283.3,210.2,284.1,210.2,285.1L210.2,285.1z"/>
<path class="st35" d="M189.3,282.1c0.1,1.8,0.2,3.5,0.4,5.3c0.1,1,0.9,1.7,1.9,1.6c1-0.1,1.7-0.9,1.6-1.9c-0.1-1.8-0.2-3.5-0.4-5.3
	c-0.1-1-0.9-1.7-1.9-1.6C190,280.3,189.3,281.1,189.3,282.1L189.3,282.1z"/>
<path class="st35" d="M162.6,287.2c-0.3,1.1-0.4,2.2-0.4,3.4c0,0.5,0,1.1,0.1,1.6c0.1,1,1,1.6,1.9,1.5c1-0.1,1.6-1,1.5-1.9l-0.1-1.2
	c0-0.9,0.1-1.7,0.3-2.6c0.2-0.9-0.4-1.9-1.3-2.1C163.7,285.6,162.8,286.2,162.6,287.2L162.6,287.2z"/>
<path class="st35" d="M137.3,280.1c-0.2,1.2-0.4,2.4-0.4,3.7c0,0.6,0,1.2,0.1,1.9c0.1,1,1,1.7,1.9,1.6c1-0.1,1.7-1,1.6-1.9
	c-0.1-0.5-0.1-1-0.1-1.5c0-1,0.1-2,0.3-3c0.2-0.9-0.4-1.9-1.4-2.1C138.4,278.5,137.5,279.1,137.3,280.1L137.3,280.1z"/>
<path class="st35" d="M146.8,294.6c-0.3,1-0.5,2-0.5,3.1c0,1.4,0.2,2.7,0.8,4c0.4,0.9,1.4,1.3,2.3,1c0.9-0.4,1.3-1.4,1-2.3
	c-0.3-0.8-0.5-1.8-0.5-2.7c0-0.7,0.1-1.4,0.3-2.1c0.3-0.9-0.2-1.9-1.2-2.2C148,293.1,147,293.6,146.8,294.6L146.8,294.6z"/>
<path class="st35" d="M176.2,297.7c-0.6,1.2-0.9,2.4-0.9,3.7c0,1.5,0.4,3,1.2,4.3c0.5,0.8,1.6,1.1,2.4,0.5c0.8-0.5,1.1-1.6,0.5-2.4
	c-0.4-0.7-0.7-1.5-0.7-2.4c0-0.7,0.2-1.5,0.5-2.1c0.5-0.9,0.1-1.9-0.7-2.4C177.7,296.5,176.6,296.8,176.2,297.7L176.2,297.7z"/>
<path class="st35" d="M199,296.7c0.5,2.2,1,4.4,1.6,6.5c0.2,0.9,1.2,1.5,2.1,1.3c0.9-0.2,1.5-1.2,1.3-2.1c-0.5-2.2-1-4.4-1.6-6.5
	c-0.2-0.9-1.2-1.5-2.1-1.3C199.4,294.8,198.8,295.8,199,296.7L199,296.7z"/>
<path class="st35" d="M218.6,297.3c0,1.6,0.4,3.1,1.2,4.5c0.5,0.9,1.5,1.2,2.4,0.7c0.9-0.5,1.2-1.5,0.7-2.4
	c-0.5-0.9-0.7-1.9-0.8-2.9c0-1-0.8-1.7-1.8-1.7C219.4,295.5,218.6,296.3,218.6,297.3L218.6,297.3z"/>
<path class="st35" d="M252.1,296c-0.2,1-0.3,1.9-0.3,2.9c0,0.7,0,1.3,0.1,2c0.1,1,1,1.6,2,1.5c1-0.1,1.6-1,1.5-2
	c-0.1-0.5-0.1-1-0.1-1.5c0-0.7,0.1-1.5,0.2-2.2c0.2-0.9-0.4-1.9-1.4-2.1C253.2,294.4,252.3,295,252.1,296L252.1,296z"/>
<path class="st35" d="M237.4,305.6c-0.8,1.2-1.3,2.5-1.3,3.9c0,1,0.2,1.9,0.6,2.9c0.4,0.9,1.5,1.2,2.3,0.8c0.9-0.4,1.2-1.5,0.8-2.3
	l-0.3-1.3c0-0.7,0.2-1.4,0.6-1.9c0.6-0.8,0.4-1.9-0.4-2.4C239.1,304.7,238,304.8,237.4,305.6L237.4,305.6z"/>
<path class="st35" d="M214.8,311.7c-0.4,0.7-0.6,1.4-0.6,2.2c0,1,0.3,2.1,1.1,2.9c0.6,0.7,1.7,0.8,2.5,0.2c0.7-0.6,0.8-1.7,0.2-2.5
	l-0.2-0.7l0.1-0.5c0.5-0.8,0.2-1.9-0.7-2.4C216.4,310.5,215.3,310.8,214.8,311.7L214.8,311.7z"/>
<path class="st35" d="M189,310.1c-0.2,1.6-0.4,3.1-0.6,4.7c-0.1,1,0.5,1.8,1.5,2c1,0.1,1.8-0.5,2-1.5c0.2-1.6,0.4-3.1,0.6-4.7
	c0.1-1-0.5-1.8-1.5-2C190,308.5,189.2,309.1,189,310.1L189,310.1z"/>
<path class="st35" d="M161,310.5c0.1,1.1,0.2,2.3,0.3,3.4c0.1,1,1,1.7,1.9,1.6c1-0.1,1.7-1,1.6-1.9c-0.1-1.1-0.2-2.3-0.3-3.4
	c-0.1-1-1-1.7-1.9-1.6C161.6,308.7,160.9,309.5,161,310.5L161,310.5z"/>
<path class="st35" d="M134.8,310.9c0,1.1,0,2.3,0,3.4c0,1,0.8,1.8,1.7,1.8c1,0,1.8-0.8,1.8-1.8c0-1.1,0-2.3,0-3.4
	c0-1-0.8-1.7-1.7-1.7C135.6,309.2,134.8,310,134.8,310.9L134.8,310.9z"/>
<path class="st35" d="M146.3,321.8l0,0.4c0,1.4,0.3,2.8,0.8,4.1c0.4,0.9,1.4,1.3,2.3,1c0.9-0.4,1.3-1.4,1-2.3
	c-0.4-0.9-0.5-1.8-0.5-2.8l0-0.2c0-1-0.7-1.8-1.7-1.8C147.2,320.1,146.4,320.8,146.3,321.8L146.3,321.8z"/>
<path class="st35" d="M172.5,320.5l0,0.4c0,1.2,0.3,2.3,0.9,3.4c0.5,0.8,1.5,1.1,2.4,0.7c0.8-0.5,1.1-1.5,0.7-2.4
	c-0.3-0.5-0.4-1.1-0.4-1.7l0-0.2c0.1-1-0.7-1.8-1.6-1.8C173.4,318.8,172.6,319.5,172.5,320.5L172.5,320.5z"/>
<path class="st35" d="M202.5,320.4l-0.1,1.1c0,1.1,0.1,2.2,0.4,3.2c0.2,0.9,1.2,1.5,2.1,1.3c0.9-0.2,1.5-1.2,1.3-2.1
	c-0.2-0.8-0.3-1.5-0.3-2.3l0-0.8c0.1-1-0.6-1.8-1.6-1.9C203.4,318.8,202.5,319.5,202.5,320.4L202.5,320.4z"/>
<path class="st35" d="M227.7,320.5l0,0.3c0,1.4,0.3,2.8,0.8,4.2c0.3,0.9,1.4,1.3,2.3,1c0.9-0.4,1.3-1.4,1-2.3
	c-0.4-0.9-0.5-1.9-0.5-2.9l0-0.1c0-1-0.7-1.8-1.7-1.8C228.5,318.8,227.7,319.6,227.7,320.5L227.7,320.5z"/>
<path class="st35" d="M252.6,316c0.2,0.9,0.3,1.7,0.3,2.6c0,0.7-0.1,1.4-0.2,2.1c-0.1,1,0.5,1.8,1.5,2c1,0.1,1.8-0.5,2-1.5
	c0.1-0.9,0.2-1.7,0.2-2.6c0-1.1-0.1-2.2-0.3-3.3c-0.2-0.9-1.1-1.6-2.1-1.4C253,314.1,252.4,315,252.6,316L252.6,316z"/>
<path class="st35" d="M239.2,330.9c0,2,0,3.9,0,5.9c0,1,0.8,1.7,1.8,1.7c1,0,1.7-0.8,1.7-1.7c0-2,0-3.9,0-5.9c0-1-0.8-1.7-1.7-1.7
	C240,329.2,239.2,329.9,239.2,330.9L239.2,330.9z"/>
<path class="st35" d="M211.8,333.9c0.1,1.2,0.2,2.5,0.3,3.7c0.1,1,0.9,1.7,1.9,1.6c1-0.1,1.7-0.9,1.6-1.9c-0.1-1.2-0.2-2.5-0.3-3.7
	c-0.1-1-0.9-1.7-1.9-1.6C212.4,332.1,211.7,332.9,211.8,333.9L211.8,333.9z"/>
<path class="st35" d="M186.9,331.4c-0.3,1-0.4,2.1-0.4,3.2c0,1,0.1,2,0.4,3c0.2,0.9,1.2,1.5,2.1,1.3c0.9-0.2,1.5-1.2,1.3-2.1
	c-0.2-0.7-0.3-1.4-0.3-2.1c0-0.8,0.1-1.5,0.3-2.3c0.2-0.9-0.3-1.9-1.2-2.1C188.2,329.9,187.2,330.5,186.9,331.4L186.9,331.4z"/>
<path class="st35" d="M157,330.7c-0.2,0.8-0.4,1.6-0.4,2.4c0,0.9,0.1,1.8,0.4,2.7c0.3,0.9,1.3,1.4,2.2,1.1c0.9-0.3,1.4-1.3,1.1-2.2
	c-0.2-0.5-0.3-1-0.3-1.6l0.2-1.4c0.3-0.9-0.2-1.9-1.2-2.2C158.2,329.2,157.3,329.8,157,330.7L157,330.7z"/>
<path class="st35" d="M138.7,341.5c-0.5,1.4-0.8,2.8-0.8,4.3l0,0.9c0.1,1,1,1.7,1.9,1.6c1-0.1,1.7-1,1.6-1.9l0-0.5
	c0-1,0.2-2.1,0.5-3.1c0.3-0.9-0.1-1.9-1-2.2C140,340.1,139,340.6,138.7,341.5L138.7,341.5z"/>
<path class="st35" d="M168.2,342.5l-0.1,1c0,0.9,0.1,1.8,0.4,2.6c0.3,0.9,1.3,1.4,2.2,1.1c0.9-0.3,1.4-1.3,1.1-2.2
	c-0.2-0.4-0.2-0.9-0.2-1.4l0-0.5c0.1-1-0.6-1.8-1.5-2C169.2,340.9,168.3,341.6,168.2,342.5L168.2,342.5z"/>
<path class="st35" d="M200.2,345.6c0.2,1.1,0.4,2.3,0.7,3.4c0.2,0.9,1.1,1.6,2.1,1.4c0.9-0.2,1.6-1.1,1.4-2.1
	c-0.2-1.1-0.4-2.3-0.7-3.4c-0.2-0.9-1.1-1.6-2.1-1.4C200.7,343.7,200,344.6,200.2,345.6L200.2,345.6z"/>
<path class="st35" d="M227.1,344.4l-0.1,1.3c0,1,0.1,2.1,0.4,3.1c0.3,0.9,1.2,1.5,2.2,1.2c0.9-0.3,1.5-1.2,1.2-2.2
	c-0.2-0.7-0.3-1.4-0.3-2.2l0.1-0.9c0.1-1-0.6-1.8-1.5-1.9C228.1,342.8,227.2,343.5,227.1,344.4L227.1,344.4z"/>
<path class="st35" d="M255.1,342.2l0,0.3c0,1.6,0.4,3.3,1,4.7c0.4,0.9,1.4,1.3,2.3,0.8c0.9-0.4,1.3-1.4,0.8-2.3
	c-0.5-1-0.7-2.1-0.7-3.3h-1.1l1.1,0.1l0-0.1h-1.1l1.1,0.1c0.1-1-0.6-1.8-1.5-1.9C256.1,340.6,255.2,341.3,255.1,342.2L255.1,342.2z"
	/>
<path class="st35" d="M243.9,354c0,1.8,0,3.5,0,5.3c0,1,0.8,1.8,1.7,1.8c1,0,1.8-0.8,1.8-1.8c0-1.8,0-3.5,0-5.3c0-1-0.8-1.7-1.7-1.7
	C244.7,352.2,243.9,353,243.9,354L243.9,354z"/>
<path class="st35" d="M214.4,357.7c-0.3,0.8-0.4,1.6-0.4,2.4c0,0.8,0.1,1.6,0.4,2.3c0.3,0.9,1.4,1.3,2.3,1c0.9-0.4,1.3-1.4,1-2.3
	l-0.2-1.1l0.2-1.1c0.4-0.9-0.1-1.9-1-2.3S214.8,356.8,214.4,357.7L214.4,357.7z"/>
<path class="st35" d="M185.1,353.3c-0.2,0.7-0.3,1.5-0.3,2.3c0,1,0.2,2.1,0.5,3.1c0.3,0.9,1.3,1.4,2.2,1.1c0.9-0.3,1.4-1.3,1.1-2.2
	c-0.2-0.6-0.3-1.3-0.3-2l0.2-1.4c0.2-0.9-0.4-1.9-1.3-2.1C186.3,351.7,185.3,352.3,185.1,353.3L185.1,353.3z"/>
<path class="st35" d="M153.9,350.9c-0.3,0.8-0.4,1.7-0.4,2.5c0,0.9,0.1,1.8,0.5,2.7c0.3,0.9,1.3,1.4,2.2,1.1
	c0.9-0.3,1.4-1.3,1.1-2.2c-0.2-0.5-0.3-1-0.3-1.5l0.2-1.4c0.3-0.9-0.2-1.9-1.1-2.2C155.2,349.5,154.2,350,153.9,350.9L153.9,350.9z"
	/>
<path class="st35" d="M169.1,360.6c-0.3,0.9-0.4,1.9-0.4,2.9l0.1,1.3c0.2,1,1.1,1.6,2,1.4c1-0.2,1.6-1.1,1.5-2l-0.1-0.8
	c0-0.6,0.1-1.3,0.3-1.9c0.3-0.9-0.2-1.9-1.2-2.2C170.4,359.2,169.4,359.7,169.1,360.6L169.1,360.6z"/>
<path class="st35" d="M142,362.9c-0.1,0.6-0.2,1.1-0.2,1.7c0,1.2,0.2,2.3,0.7,3.4c0.4,0.9,1.4,1.3,2.3,0.9c0.9-0.4,1.3-1.4,0.9-2.3
	c-0.3-0.6-0.4-1.3-0.4-1.9l0.1-1c0.2-0.9-0.4-1.9-1.3-2.1C143.1,361.4,142.2,362,142,362.9L142,362.9z"/>
<path class="st35" d="M156.6,371.1c0,1,0,2.1,0,3.1c0,1,0.8,1.7,1.7,1.7c1,0,1.8-0.8,1.8-1.7c0-1,0-2.1,0-3.1c0-1-0.8-1.7-1.7-1.7
	C157.4,369.4,156.6,370.1,156.6,371.1L156.6,371.1z"/>
<path class="st35" d="M182.3,371.4c-0.3,0.8-0.5,1.6-0.5,2.5c0,0.8,0.1,1.7,0.5,2.5c0.4,0.9,1.4,1.3,2.3,1c0.9-0.4,1.3-1.4,1-2.3
	l-0.2-1.2l0.2-1.2c0.3-0.9-0.1-1.9-1-2.3C183.6,370.1,182.6,370.5,182.3,371.4L182.3,371.4z"/>
<path class="st35" d="M200,365.9l-0.1,1.2c0,1.1,0.1,2.1,0.4,3.2c0.3,0.9,1.2,1.5,2.2,1.2c0.9-0.3,1.5-1.2,1.2-2.2
	c-0.2-0.7-0.3-1.5-0.3-2.3l0-0.8c0.1-1-0.6-1.8-1.6-1.9C200.9,364.3,200.1,365,200,365.9L200,365.9z"/>
<path class="st35" d="M230.3,363.3c-0.2,0.9-0.3,1.9-0.3,2.8c0,0.6,0,1.2,0.1,1.9c0.1,1,1,1.6,2,1.5c1-0.1,1.6-1,1.5-2l-0.1-1.3
	c0-0.7,0.1-1.4,0.2-2.1c0.2-0.9-0.4-1.9-1.3-2.1C231.4,361.7,230.5,362.3,230.3,363.3L230.3,363.3z"/>
<path class="st35" d="M247.3,370.5c0,1.3,0,2.5,0,3.7c0,1,0.8,1.7,1.7,1.7c1,0,1.8-0.8,1.8-1.7c0-1.3,0-2.5,0-3.7
	c0-1-0.8-1.7-1.7-1.7C248.1,368.7,247.3,369.5,247.3,370.5L247.3,370.5z"/>
<path class="st35" d="M237.4,379.7c-0.2,0.7-0.3,1.5-0.3,2.2c0,0.8,0.1,1.7,0.4,2.5c0.3,0.9,1.3,1.4,2.2,1.2
	c0.9-0.3,1.4-1.3,1.2-2.2c-0.1-0.5-0.2-1-0.2-1.5l0.2-1.3c0.2-0.9-0.3-1.9-1.2-2.1C238.6,378.2,237.6,378.8,237.4,379.7L237.4,379.7
	z"/>
<path class="st35" d="M217.6,376.2c-0.4,0.7-0.5,1.5-0.5,2.2c0,1.1,0.3,2.1,1,3c0.6,0.8,1.7,0.9,2.5,0.3c0.8-0.6,0.9-1.7,0.3-2.5
	l-0.3-0.9l0.1-0.7c0.4-0.9,0.1-1.9-0.8-2.3C219.1,375,218,375.4,217.6,376.2L217.6,376.2z"/>
<path class="st35" d="M198.7,382.8l-0.1,1c0,1.4,0.3,2.8,0.8,4.2c0.4,0.9,1.4,1.3,2.3,1c0.9-0.4,1.3-1.4,1-2.3
	c-0.4-0.9-0.5-1.9-0.5-2.9l0-0.7c0.1-1-0.6-1.8-1.6-1.9C199.7,381.1,198.8,381.8,198.7,382.8L198.7,382.8z"/>
<path class="st35" d="M169.4,381.3l0,1c0,1.6,0.3,3.2,0.7,4.7c0.3,0.9,1.3,1.4,2.2,1.1c0.9-0.3,1.4-1.3,1.1-2.2
	c-0.4-1.2-0.6-2.4-0.6-3.6l0-0.7c0.1-1-0.7-1.8-1.6-1.9C170.3,379.6,169.5,380.3,169.4,381.3L169.4,381.3z"/>
<path class="st35" d="M150.1,385l0,0.4c0,1.2,0.3,2.5,0.9,3.6c0.4,0.9,1.5,1.2,2.4,0.8c0.9-0.4,1.2-1.5,0.8-2.4
	c-0.3-0.6-0.5-1.3-0.5-2l0-0.2c0-1-0.7-1.8-1.7-1.8C150.9,383.3,150.1,384.1,150.1,385L150.1,385z"/>
<path class="st35" d="M182.5,390.9c-0.1,0.5-0.2,1.1-0.2,1.6c0,1.1,0.3,2.1,0.8,3.1c0.5,0.8,1.5,1.2,2.4,0.7
	c0.8-0.5,1.2-1.5,0.7-2.4l-0.4-1.4l0.1-0.7c0.2-0.9-0.3-1.9-1.2-2.1C183.7,389.4,182.8,390,182.5,390.9L182.5,390.9z"/>
<path class="st35" d="M208.4,391.7c0,1,0,2.1,0,3.1c0,1,0.8,1.7,1.7,1.7c1,0,1.8-0.8,1.8-1.7c0-1,0-2.1,0-3.1c0-1-0.8-1.7-1.7-1.7
	C209.1,389.9,208.4,390.7,208.4,391.7L208.4,391.7z"/>
<path class="st35" d="M226.4,389.5c0,1,0,2.1,0,3.1c0,1,0.8,1.7,1.8,1.7c1,0,1.7-0.8,1.7-1.7c0-1,0-2.1,0-3.1c0-1-0.8-1.7-1.7-1.7
	C227.2,387.7,226.4,388.5,226.4,389.5L226.4,389.5z"/>
<path class="st35" d="M167.5,398.1c0.1,1.2,0.2,2.5,0.4,3.7c0.1,1,0.9,1.7,1.9,1.6c1-0.1,1.7-0.9,1.6-1.9c-0.1-1.2-0.2-2.5-0.4-3.7
	c-0.1-1-0.9-1.7-1.9-1.6C168.1,396.3,167.4,397.1,167.5,398.1L167.5,398.1z"/>
<path class="st35" d="M196.2,399.9l-0.1,1.2c0,1,0.1,2,0.4,3c0.3,0.9,1.2,1.5,2.2,1.2c0.9-0.3,1.5-1.2,1.2-2.2
	c-0.2-0.6-0.3-1.3-0.3-2l0-0.8c0.1-1-0.6-1.8-1.5-1.9C197.2,398.2,196.3,398.9,196.2,399.9L196.2,399.9z"/>
<path class="st35" d="M217.4,397c0,0.9,0,1.9,0,2.8c0,1,0.8,1.7,1.8,1.7c1,0,1.7-0.8,1.7-1.7c0-0.9,0-1.9,0-2.8c0-1-0.8-1.7-1.7-1.7
	C218.2,395.2,217.4,396,217.4,397L217.4,397z"/>
<path class="st31" d="M205.3,121.7c-0.1,1.2-0.2,2.5-0.4,3.7c-0.1,1,0.6,1.8,1.6,1.9c1,0.1,1.8-0.6,1.9-1.6c0.1-1.2,0.2-2.5,0.4-3.7
	c0.1-1-0.6-1.8-1.6-1.9C206.3,120.1,205.4,120.8,205.3,121.7L205.3,121.7z"/>
<path class="st31" d="M191.7,128.2c0.4,0.9,0.5,1.9,0.5,2.9l0,0.3c0.1,1,0.9,1.7,1.9,1.6c1-0.1,1.7-0.9,1.6-1.9l-0.4,0h0.4l0,0
	l-0.4,0h0.4v-0.1c0-1.4-0.3-2.8-0.8-4.2c-0.4-0.9-1.4-1.3-2.3-1C191.8,126.3,191.3,127.3,191.7,128.2L191.7,128.2z"/>
<path class="st31" d="M180.5,118.1c0.1,0.9,0.3,1.9,0.4,2.8c0.1,1,1,1.6,2,1.5c1-0.1,1.6-1,1.5-2c-0.1-0.9-0.3-1.9-0.4-2.8
	c-0.1-1-1-1.6-2-1.5C181,116.3,180.4,117.1,180.5,118.1L180.5,118.1z"/>
<path class="st31" d="M205.6,109.6c-0.1,1.5-0.2,2.9-0.3,4.4c-0.1,1,0.7,1.8,1.6,1.9c1,0.1,1.8-0.7,1.9-1.6c0.1-1.5,0.2-2.9,0.3-4.4
	c0.1-1-0.6-1.8-1.6-1.9C206.5,107.9,205.7,108.7,205.6,109.6L205.6,109.6z"/>
<path class="st31" d="M199.7,100.2c-0.2,1.6-0.4,3.1-0.6,4.7c-0.1,1,0.5,1.8,1.5,2c1,0.1,1.8-0.5,2-1.5c0.2-1.6,0.4-3.1,0.6-4.7
	c0.1-1-0.5-1.8-1.5-2C200.7,98.5,199.8,99.2,199.7,100.2L199.7,100.2z"/>
<path class="st31" d="M180.7,102c0,1.4,0,2.7,0,4.1c0,1,0.8,1.8,1.7,1.8c1,0,1.8-0.8,1.8-1.8c0-1.4,0-2.7,0-4.1c0-1-0.8-1.7-1.7-1.7
	C181.4,100.2,180.7,101,180.7,102L180.7,102z"/>
<path class="st31" d="M190.6,95.2l0,1.1c0,1-0.1,2.1-0.3,3.1c-0.2,0.9,0.4,1.9,1.4,2.1c0.9,0.2,1.9-0.4,2.1-1.4
	c0.3-1.2,0.4-2.5,0.4-3.8l-0.1-1.4c-0.1-1-0.9-1.7-1.9-1.6C191.3,93.4,190.6,94.3,190.6,95.2L190.6,95.2z"/>
<path class="st31" d="M214,98.4c-0.2,1-0.4,2.1-0.4,3.2c0,0.5,0,1,0.1,1.5c0.1,1,1,1.6,2,1.5c1-0.1,1.6-1,1.5-2l-0.1-1.1
	c0-0.8,0.1-1.6,0.3-2.4c0.2-0.9-0.3-1.9-1.3-2.1C215.2,96.9,214.3,97.5,214,98.4L214,98.4z"/>
<path class="st31" d="M204.9,88.3c-0.1,0.8-0.2,1.7-0.3,2.5c-0.1,1,0.6,1.8,1.5,1.9c1,0.1,1.8-0.6,1.9-1.5c0.1-0.8,0.2-1.7,0.3-2.5
	c0.1-1-0.6-1.8-1.5-1.9C205.9,86.7,205,87.4,204.9,88.3L204.9,88.3z"/>
<path class="st31" d="M171.9,90.4c0.2,1.2,0.4,2.5,0.6,3.8c0.1,1,1,1.6,2,1.5c1-0.1,1.6-1,1.5-2c-0.2-1.3-0.4-2.5-0.6-3.8
	c-0.1-1-1-1.6-2-1.5C172.4,88.5,171.8,89.4,171.9,90.4L171.9,90.4z"/>
<path class="st31" d="M183.2,88.3l-0.1,1c0,0.8,0.2,1.6,0.5,2.4c0.4,0.9,1.4,1.3,2.3,0.9c0.9-0.4,1.3-1.4,1-2.3l-0.2-1.1l0-0.5
	c0.2-1-0.5-1.9-1.4-2C184.3,86.7,183.4,87.3,183.2,88.3L183.2,88.3z"/>
<path class="st31" d="M215.6,84.6c-0.1,0.9-0.2,1.9-0.3,2.8c-0.1,1,0.6,1.8,1.5,2c1,0.1,1.8-0.6,2-1.5c0.1-0.9,0.2-1.9,0.3-2.8
	c0.1-1-0.6-1.8-1.5-1.9C216.6,83,215.7,83.7,215.6,84.6L215.6,84.6z"/>
<path class="st31" d="M193.5,79.9l-0.1,1.1c0,1,0.1,2,0.4,3c0.3,0.9,1.2,1.5,2.2,1.2c0.9-0.3,1.5-1.2,1.2-2.2
	c-0.2-0.6-0.3-1.3-0.3-2l0-0.8c0.1-1-0.6-1.8-1.5-1.9C194.4,78.3,193.6,79,193.5,79.9L193.5,79.9z"/>
<path class="st31" d="M172.3,75.9l-0.1,1.2c0,1,0.1,2,0.4,2.9c0.3,0.9,1.3,1.4,2.2,1.2c0.9-0.3,1.4-1.3,1.2-2.2
	c-0.2-0.6-0.3-1.3-0.3-1.9l0.1-0.8c0.1-1-0.6-1.8-1.5-1.9C173.3,74.2,172.4,74.9,172.3,75.9L172.3,75.9z"/>
<path class="st31" d="M185,70.3l-0.1,1.1c0,1,0.1,2,0.4,3c0.3,0.9,1.2,1.5,2.2,1.2c0.9-0.3,1.5-1.2,1.2-2.2c-0.2-0.7-0.3-1.3-0.3-2
	l0-0.7c0.1-1-0.6-1.8-1.5-1.9C186,68.6,185.1,69.3,185,70.3L185,70.3z"/>
<path class="st31" d="M206.3,71.4c-0.3,1.2-0.4,2.4-0.4,3.6l0,0.6c0,1,0.9,1.7,1.8,1.7c1,0,1.7-0.9,1.7-1.8l0-0.4
	c0-1,0.1-1.9,0.3-2.8c0.2-0.9-0.4-1.9-1.3-2.1C207.4,69.8,206.5,70.4,206.3,71.4L206.3,71.4z"/>
<path class="st31" d="M225,72.5c-0.3,1-0.4,2.1-0.4,3.2l0.1,1.2c0.1,1,1,1.7,1.9,1.6c1-0.1,1.7-1,1.6-1.9l0-0.8
	c0-0.8,0.1-1.5,0.3-2.3c0.2-0.9-0.3-1.9-1.3-2.1C226.2,71,225.2,71.6,225,72.5L225,72.5z"/>
<path class="st31" d="M192.6,112.6c-0.1,0.5-0.1,1-0.1,1.5l0.1,1.2c0.1,1,1,1.6,1.9,1.5c1-0.1,1.6-1,1.5-1.9l0-0.8l0.1-1
	c0.1-1-0.6-1.8-1.5-2C193.6,111,192.7,111.6,192.6,112.6L192.6,112.6z"/>
</svg>
