<?xml version="1.0" encoding="utf-8"?>
<!-- Generator: Adobe Illustrator 28.0.0, SVG Export Plug-In . SVG Version: 6.00 Build 0)  -->
<svg version="1.1" id="Capa_1" xmlns="http://www.w3.org/2000/svg" xmlns:xlink="http://www.w3.org/1999/xlink" x="0px" y="0px"
	 viewBox="0 0 385 474.2" style="enable-background:new 0 0 385 474.2;" xml:space="preserve">
<style type="text/css">
	.st0{fill:#97A7B0;}
	.st1{fill:#F5EDE3;}
	.st2{fill:#F9B7BB;}
	.st3{fill:#DED9D6;}
	.st4{fill:#665067;}
	.st5{fill:#89C9D1;}
	.st6{fill:#F1F2F2;}
	.st7{fill:#E7E3DE;}
	.st8{fill:#CED5DB;}
	.st9{fill:#BEC4CD;}
	.st10{fill:#E6946D;}
	.st11{fill:#E18261;}
	.st12{fill:#D1D6DC;}
	.st13{fill:#ACB8C1;}
	.st14{fill:#E7E9EA;}
	.st15{fill:#565D6B;}
	.st16{fill:#4B525F;}
	.st17{fill:#9C6B66;}
	.st18{fill:#F7E7C0;}
	.st19{fill:#F5CEA7;}
	.st20{fill:#FFFFFF;}
	.st21{fill:#C5CAD3;}
	.st22{fill:#ACB5C2;}
	.st23{fill:#F9E8AB;}
	.st24{fill:#F5C98A;}
	.st25{fill:#F2AC79;}
	.st26{fill:#F1A874;}
	.st27{fill:#F7A8B2;}
	.st28{fill:#CB9683;}
	.st29{fill:#C08977;}
	.st30{fill:#BC8A78;}
	.st31{fill:#B6786C;}
	.st32{fill:#F5DEC7;}
	.st33{fill:#D6A189;}
	.st34{fill:#F6D1A0;}
	.st35{fill:#F4BE89;}
	.st36{fill:#D48B6F;}
	.st37{fill:#F3C9B7;}
	.st38{fill:#C1775A;}
	.st39{fill:#D59979;}
	.st40{fill:#F2B59B;}
	.st41{fill:#DB9572;}
	.st42{fill:#F8B4BD;}
	.st43{fill:#FACAD3;}
	.st44{fill:#F7D37F;}
	.st45{fill:#BCDFE9;}
	.st46{fill:#F7CE6D;}
</style>
<path class="st36" d="M344.9,354c3.8-12.3,3.2-25.8,0.6-38.4c-3-14.8-8.5-29-11.4-43.9c-2.6-13.4-1.9-27.3,2-40.4
	c3.6-12.1,12.2-22.3,21.9-30.2c-2.5-0.3-5.1,0.2-7.3,1.5c6.5-7.5,15-13.6,22.3-20.3c3.8-3.5,4.6-4-0.9-5.3c-5-1.2-11.5-2.2-16.6-0.8
	c1.9-1.8,3.8-3.7,5.8-5.5c-30.3,6-57.5,25.8-71.6,53.4c-7.6,15-11.1,32.1-10,48.9c0.5,7.2,3.7,12.4,5.2,19.3
	c1.9,8.6,3.2,17.7,3.4,26.6c0.5,19.5-5.7,39-17.3,54.6c-3.2,4.3-6.9,8.4-11.4,11.4c-5.1,3.4-12.3,8.4-9.1,15.7
	c3.3,7.6,17.8,3,23.7,1.8c16.8-3.3,34.9-10.2,48.8-20.3C332.4,375.2,341.5,365.2,344.9,354z"/>
<path class="st37" d="M372.1,176.9c-5-1.2-11.5-2.2-16.6-0.8c1.9-1.8,3.8-3.7,5.8-5.5c-17.6,3.5-34.2,11.6-47.7,23.3l-0.3,1.1
	l-0.1,0.6c3.6-1,7.2-2,11.1-2.2c4.6-0.3-2.4,11.8-3.1,13.5l-0.1,1.2c0.4,0.6,1.3,0.4,1.9,0c3.1-1.6,6-3.2,9.4-4.1
	c1.6-0.4,3.7-0.4,4.2,1.1c0.5,1.5-0.7,4.7-1,6.3c-0.4,2.3-0.7,4.6-1.1,6.9l0.3,1.1l1-0.2c1.3-0.8,2.6-1.8,4-2.4l3.4-0.3
	c4.1-5.9,9.2-11.1,14.7-15.6c-2.5-0.3-5.1,0.2-7.3,1.5c6.5-7.5,15-13.6,22.3-20.3C376.8,178.7,377.6,178.2,372.1,176.9z"/>
<path class="st36" d="M118.6,237.7c-20.8,13.5-39.9,17.3-51.5,23.7c-4.8,2.6-9.5,7-9.5,12.5c0,4.5,3.3,8.7,7.4,10.7
	c4.1,2.1,8.8,2.4,13.3,2.3c11.6-0.2,23.1-3,33.5-8.1"/>
<path class="st38" d="M59.3,272.8c1.8-0.9,3.7-1.4,5.7-1.5c0.8,0,1.4-0.7,1.4-1.5c0-0.8-0.7-1.4-1.5-1.4c-2.4,0.1-4.7,0.7-6.8,1.8
	c-0.7,0.4-1,1.2-0.6,1.9C57.8,272.9,58.6,273.1,59.3,272.8L59.3,272.8z"/>
<path class="st38" d="M62.4,283.3c2.5-1.3,5.3-2.2,8-2.7c0.8-0.1,1.3-0.9,1.2-1.7c-0.1-0.8-0.9-1.3-1.7-1.2
	c-3.1,0.5-6.1,1.5-8.9,2.9c-0.7,0.4-1,1.2-0.6,1.9C60.8,283.4,61.7,283.6,62.4,283.3L62.4,283.3z"/>
<path class="st36" d="M174.6,15.7c-0.1-2.6,3-4.4,5.2-3c9.6,6.2,15.8,13.9,21.4,24.9c6.6,12.9,10.2,29.3,10,45.8
	c-0.4-2.8-19.5-1.7-22.4-2c-4.5-0.4-13.8,1.6-18.4,1.4c-6.1-0.2-4-7.6-2.3-13.3C173.4,51.8,175.2,32.8,174.6,15.7z"/>
<path class="st36" d="M280.5,13.9c1.3-2.3,4.8-2.3,6,0.1c5,10.2,6.5,20,5.6,32.3c-1,14.5-6.3,30.4-14.8,44.5
	c1.1-2.6-15.9-11.5-18.2-13.2c-3.6-2.6-12.7-5.8-16.5-8.2c-5.1-3.3,0.4-8.6,4.8-12.6C261,44.3,272.3,28.9,280.5,13.9z"/>
<path class="st37" d="M246.7,65.6c13.5-6.9,22.6-19.8,32.3-31.3l0.9-0.8c0.7-0.3,1.6,0.2,2,0.9c0.4,0.7,0.4,1.6,0.4,2.4
	c-0.1,14.9-4,29.7-11.3,42.7c-7.4-3.1-14.4-7.2-20.6-12.3L246.7,65.6z"/>
<path class="st36" d="M270.8,268.8c-9.6-28.9-24.3-55.4-38.8-81.6c-1.9-3.5-4-7.1-7.3-8.7c-2.7-1.3-5.8-1.1-8.8-0.9
	c-22.2,1.8-44.4,3.6-66.6,5.5l-9.5,3c-16.5,28-29.2,58.9-37.5,91.2c-5.5,21.6-8.3,44-7.1,66.6c1.1,21.5,9.3,43.9,17.7,62.7
	c1,2.1,2,4.3,3.5,5.8c4.1,4.3,11.5,4.2,16.5,5.1c7.2,1.3,14.4,2.6,21.7,3.5c34.2,4.5,69.5,3.1,103-7c2.5-0.7,2.9,0.2,5-1.6
	c3-2.7,6.6-8.9,8-13.1c6.7-21.1,12.7-43,12-65.7C282,311.5,277.6,289.3,270.8,268.8z"/>
<path class="st36" d="M275.2,82.7c-2-5-4.5-9.8-8.2-12.9c-4.9-4.2-11.6-5.5-18-6.4c-13.4-1.9-26.9-3-40.5-3.3
	c-8.1-0.2-16.2-0.7-24.3,0.2c-8.2,0.8-12.2,0.4-16.5,8.5c-13.7,25.7-34.5,47.4-58.5,64c-24,16.6-51.2,28.2-79.3,36
	c-0.6,0.2-1.3,0.4-1.8,0.8c-7.8,6,34.8,29.1,39.9,31.7c30,15.3,59.1,22.8,92.3,26.9c3.2,0.4,11.3,1.2,14.5,1.3
	c19.7,0.4,36.2-2.2,54.1-7.3c18-5.1,31.8-13.8,48.3-22c2.4-1.2,5.1-2.6,7.7-2.7c2.7-0.1,5.5,0.9,8.1,1.2l0.8-0.1l0.6-1
	c2.4-9.5-1.2-17.1-6.8-24.6c3.7,0.3,6.6,3.2,8.8,6.1c0.4,0.6,1.3,1.3,1.8,0.8l0.3-0.6c1.5-4.5,0.7-9.4-1.2-13.7
	c-1.9-4.3-5-8-8.2-11.4c1,1,3.3,1.6,4.5,2.5c1.5,1,2.9,2.1,4.1,3.4l0.9,0.4l0.4-1.2c-1.4-10-4.9-19.6-8.7-28.9
	c-4.6-11.2-8.1-22.9-11.3-34.6C278.2,91.8,276.9,87.1,275.2,82.7z"/>
<path class="st37" d="M297.5,165.4c-1.9-4.3-5-8-8.2-11.4c1,1,3.3,1.6,4.5,2.5c1.5,1,2.9,2.1,4.1,3.4l0.9,0.4l0.4-1.2
	c-1.4-10-4.9-19.6-8.7-28.9c-4.6-11.2-8.1-22.9-11.3-34.6c-0.5-1.8-1-3.8-1.6-5.8c-2.9,3.9-11.5,16-13.3,18.6
	c-4.2,5.8-8.5,11.5-13.1,17c-29.7,36.2-71.7,56.1-117.7,61.9c-13.2,1.7-26.7,2.4-40,0.9c-21.3-2.4-43.3-5-63.7-12.2
	c8.5,9.1,34.2,23.1,38.1,25c30,15.3,59.1,22.8,92.3,26.9c3.2,0.4,11.3,1.2,14.5,1.3c19.7,0.4,36.2-2.2,54.1-7.3
	c18-5.1,31.8-13.8,48.3-22c2.4-1.2,5.1-2.6,7.7-2.7c2.7-0.1,5.5,0.9,8.1,1.2l0.8-0.1l0.6-1c2.4-9.5-1.2-17.1-6.8-24.6
	c3.7,0.3,6.6,3.2,8.8,6.1c0.4,0.6,1.3,1.3,1.8,0.8l0.3-0.6C300.1,174.7,299.4,169.7,297.5,165.4z"/>
<path class="st36" d="M251.9,237.7c20.8,13.5,39.9,17.3,51.5,23.7c4.8,2.6,9.5,7,9.5,12.5c0,4.5-3.3,8.7-7.4,10.7
	c-4.1,2.1-8.8,2.4-13.3,2.3c-11.6-0.2-23.1-3-33.5-8.1"/>
<path class="st38" d="M251.1,238.9c21,13.6,40.4,17.5,51.6,23.8c2.3,1.3,4.5,2.9,6.1,4.8c1.6,1.9,2.6,4.1,2.6,6.4
	c0,3.8-2.9,7.6-6.6,9.4c-3.4,1.7-7.4,2.2-11.5,2.2l-1.1,0c-11.4-0.2-22.7-3-32.9-8c-0.7-0.4-1.6-0.1-1.9,0.7
	c-0.4,0.7-0.1,1.6,0.7,1.9c10.6,5.2,22.3,8.1,34.1,8.3l1.2,0c4.3,0,8.8-0.4,12.8-2.5c4.4-2.3,8.2-6.7,8.2-12c0-3.2-1.4-6-3.3-8.2
	c-1.9-2.3-4.4-4.1-6.9-5.5c-11.9-6.5-30.8-10.3-51.4-23.6c-0.7-0.4-1.6-0.2-2,0.4C250.3,237.5,250.5,238.4,251.1,238.9L251.1,238.9z
	"/>
<path class="st38" d="M312.5,270.2c-2.1-1.1-4.5-1.7-6.8-1.8c-0.8,0-1.5,0.6-1.5,1.4c0,0.8,0.6,1.5,1.4,1.5c1.9,0.1,3.9,0.6,5.7,1.5
	c0.7,0.4,1.6,0.1,1.9-0.6C313.5,271.4,313.2,270.6,312.5,270.2L312.5,270.2z"/>
<path class="st38" d="M309.5,280.7c-2.8-1.4-5.8-2.4-8.9-2.9c-0.8-0.1-1.5,0.4-1.7,1.2c-0.1,0.8,0.4,1.5,1.2,1.7
	c2.8,0.5,5.5,1.4,8,2.7c0.7,0.4,1.6,0.1,1.9-0.6C310.5,281.9,310.2,281.1,309.5,280.7L309.5,280.7z"/>
<path class="st36" d="M112.9,402.5c5.1,17.2,10.2,35,10.8,39c1.2,8.4-4.6,13.9-8.7,20.2c-4.8,7.4,2.8,9.4,8.2,9.5
	c8.7,0.1,17.4-0.7,26-2.4c1.3-0.3,2.7-0.6,3.8-1.5c1.4-1.2,2.3-3.2,2.8-5.1c5.6-23.9,9.4-41.1,13.4-59.3l-0.8-0.4H112.9z"/>
<path class="st36" d="M257.9,441.5c0.6-4,5.8-21.9,10.8-39h-55.5l-0.8,0.4c4,18.2,7.8,35.5,13.4,59.3c0.5,2,1.3,3.9,2.8,5.1
	c1.1,0.9,2.5,1.2,3.8,1.5c8.6,1.8,17.3,2.6,26,2.4c5.4-0.1,13-2.1,8.2-9.5C262.4,455.4,256.6,449.9,257.9,441.5z"/>
<path class="st4" d="M23.3,175.3c-4.9-3.5-7.8-10.2-5.4-15.6c0.4-0.8,0.8-1.5,1.4-2.1c0.7-0.6,1.5-1.1,2.3-1.5
	c5.1-2.2,13.2-0.4,17.7,2.8c8.3,5.9,16.4,18.9-0.7,20.6C33.7,180.1,27.4,178.2,23.3,175.3z"/>
<path class="st4" d="M219.3,163.2c2.2,3.3,5.5,6,9.6,6.9c1,0.2,2,0.3,3,0.3c3.7,0,6.8-1.7,8.7-4.2c1.9-2.5,2.9-5.8,2.9-9.1
	c0-1.2-0.1-2.3-0.3-3.5c-0.2-1.1-1.3-1.8-2.3-1.6c-1.1,0.2-1.8,1.3-1.6,2.3c0.2,0.9,0.3,1.8,0.3,2.7c0,2.6-0.7,5-2,6.7
	c-1.3,1.7-3,2.7-5.6,2.7c-0.7,0-1.4-0.1-2.1-0.2c-2.8-0.6-5.4-2.6-7.1-5.2c-0.6-0.9-1.8-1.2-2.8-0.6
	C219,161,218.7,162.2,219.3,163.2L219.3,163.2z"/>
<path class="st39" d="M215.8,72.1c-0.4,1-0.8,2.1-1.2,3.1c-0.3,0.8,0.1,1.6,0.9,1.9c0.8,0.3,1.6-0.1,1.9-0.9c0.4-1,0.8-2.1,1.2-3.1
	c0.3-0.8-0.1-1.6-0.9-1.9C217,71,216.1,71.4,215.8,72.1L215.8,72.1z"/>
<path class="st39" d="M225,78.6c-0.7,1-1.2,2.1-1.5,3.3c-0.1,0.8,0.4,1.6,1.2,1.7c0.8,0.1,1.6-0.4,1.7-1.2c0.1-0.7,0.4-1.4,0.9-2
	c0.5-0.7,0.4-1.6-0.3-2.1C226.5,77.8,225.5,78,225,78.6L225,78.6z"/>
<path class="st39" d="M213.1,86.5c-0.9,1.1-1.5,2.4-2.1,3.6c-0.3,0.8,0,1.6,0.8,2c0.8,0.3,1.6,0,2-0.8c0.4-1.1,1-2.1,1.7-3
	c0.5-0.7,0.4-1.6-0.3-2.1C214.6,85.7,213.6,85.8,213.1,86.5L213.1,86.5z"/>
<path class="st39" d="M204.8,77.3c-0.7,1.2-1.4,2.4-2.1,3.6c-0.4,0.7-0.2,1.6,0.5,2.1c0.7,0.4,1.6,0.2,2.1-0.5
	c0.7-1.2,1.4-2.4,2.1-3.6c0.4-0.7,0.2-1.6-0.5-2.1C206.1,76.4,205.2,76.6,204.8,77.3L204.8,77.3z"/>
<path class="st39" d="M199.2,66.3c-1.2,0.9-2,2.2-2.4,3.7c-0.2,0.8,0.3,1.6,1.1,1.8c0.8,0.2,1.6-0.3,1.8-1.1c0.2-0.8,0.7-1.5,1.3-2
	c0.6-0.5,0.8-1.5,0.2-2.1C200.8,65.9,199.8,65.7,199.2,66.3L199.2,66.3z"/>
<path class="st39" d="M236.3,75.5c-0.5,0.9-0.9,1.7-1.4,2.6c-0.4,0.7-0.1,1.6,0.6,2c0.7,0.4,1.6,0.1,2-0.6c0.5-0.9,0.9-1.7,1.4-2.6
	c0.4-0.7,0.1-1.6-0.6-2C237.6,74.5,236.6,74.8,236.3,75.5L236.3,75.5z"/>
<path class="st39" d="M226.7,88.8c-0.6,1.2-1.1,2.4-1.7,3.6c-0.4,0.7,0,1.6,0.7,2c0.8,0.4,1.6,0,2-0.7c0.6-1.2,1.1-2.4,1.7-3.6
	c0.3-0.7,0-1.6-0.7-2C227.9,87.8,227.1,88.1,226.7,88.8L226.7,88.8z"/>
<path class="st39" d="M202.8,92.1c-0.5,0.9-0.9,1.8-1.4,2.6c-0.4,0.7-0.1,1.6,0.6,2c0.7,0.4,1.6,0.1,2-0.6c0.5-0.9,0.9-1.8,1.4-2.6
	c0.4-0.7,0.1-1.6-0.6-2C204.1,91.1,203.2,91.4,202.8,92.1L202.8,92.1z"/>
<path class="st39" d="M192,84.6c-1.2,1.1-2.1,2.6-2.7,4.1c-0.3,0.8,0.1,1.6,0.9,1.9c0.8,0.3,1.6-0.1,1.9-0.9c0.4-1.1,1.1-2.2,2-3
	c0.6-0.6,0.6-1.5,0-2.1C193.5,84.1,192.6,84,192,84.6L192,84.6z"/>
<path class="st39" d="M216.3,99.7c-0.9,1.1-1.6,2.4-2.1,3.7c-0.3,0.8,0.1,1.6,0.9,1.9c0.8,0.3,1.6-0.1,1.9-0.9c0.4-1.1,1-2,1.7-2.9
	c0.5-0.6,0.4-1.6-0.2-2.1C217.7,98.9,216.8,99,216.3,99.7L216.3,99.7z"/>
<path class="st39" d="M204.1,104.8c-0.6,1-1.3,1.9-1.9,2.8c-0.5,0.7-0.3,1.6,0.4,2.1c0.7,0.5,1.6,0.3,2.1-0.4
	c0.6-0.9,1.3-1.9,1.9-2.8c0.5-0.7,0.3-1.6-0.4-2.1C205.5,103.9,204.6,104.1,204.1,104.8L204.1,104.8z"/>
<path class="st39" d="M190.8,98.8c-0.6,0.9-1.3,1.7-1.9,2.6c-0.5,0.7-0.3,1.6,0.3,2.1c0.7,0.5,1.6,0.3,2.1-0.3
	c0.6-0.9,1.3-1.7,1.9-2.6c0.5-0.7,0.3-1.6-0.3-2.1C192.3,98,191.3,98.1,190.8,98.8L190.8,98.8z"/>
<path class="st39" d="M192.2,110c-1.1,1.1-2.2,2.2-3.3,3.3c-0.6,0.6-0.6,1.5,0,2.1c0.6,0.6,1.5,0.6,2.1,0c1.1-1.1,2.2-2.2,3.3-3.3
	c0.6-0.6,0.6-1.5,0-2.1C193.7,109.4,192.8,109.4,192.2,110L192.2,110z"/>
<path class="st39" d="M210,115c-1.1,0.7-2,1.6-2.5,2.8c-0.4,0.7,0,1.6,0.7,2c0.7,0.4,1.6,0,2-0.7c0.3-0.6,0.8-1.1,1.3-1.5
	c0.7-0.4,0.9-1.3,0.5-2C211.7,114.8,210.7,114.6,210,115L210,115z"/>
<path class="st39" d="M182.2,95.1l-1.4,1.4c-0.6,0.6-0.6,1.5,0,2.1c0.6,0.6,1.5,0.6,2.1,0l1.4-1.4c0.6-0.6,0.6-1.5,0-2.1
	C183.7,94.5,182.8,94.5,182.2,95.1"/>
<path class="st39" d="M180.4,107.2c-1,0.6-1.9,1.4-2.6,2.3c-0.5,0.7-0.4,1.6,0.3,2.1c0.7,0.5,1.6,0.4,2.1-0.3c0.5-0.6,1-1.1,1.7-1.5
	c0.7-0.4,0.9-1.3,0.5-2C182,107,181.1,106.7,180.4,107.2L180.4,107.2z"/>
<path class="st39" d="M196.3,119.6c-1.3,0.5-2.5,1.3-3.3,2.4c-0.5,0.7-0.4,1.6,0.3,2.1c0.7,0.5,1.6,0.4,2.1-0.3
	c0.5-0.6,1.1-1.1,1.9-1.4c0.8-0.3,1.2-1.1,0.9-1.9C197.9,119.7,197.1,119.3,196.3,119.6L196.3,119.6z"/>
<path class="st39" d="M179.7,120.3c-0.9,0.7-1.7,1.4-2.6,2.1c-0.6,0.5-0.7,1.5-0.2,2.1c0.5,0.6,1.5,0.7,2.1,0.2
	c0.9-0.7,1.7-1.4,2.6-2.1c0.6-0.5,0.7-1.5,0.2-2.1C181.3,119.9,180.4,119.8,179.7,120.3L179.7,120.3z"/>
<path class="st39" d="M187.5,71.5c-0.9,1.3-1.7,2.5-2.6,3.8c-0.5,0.7-0.3,1.6,0.4,2.1c0.7,0.5,1.6,0.3,2.1-0.4
	c0.9-1.3,1.7-2.5,2.6-3.8c0.5-0.7,0.3-1.6-0.4-2.1C188.9,70.6,188,70.8,187.5,71.5L187.5,71.5z"/>
<path class="st39" d="M230.6,64.7c-1.1,1.1-2,2.5-2.4,4c-0.2,0.8,0.3,1.6,1.1,1.8c0.8,0.2,1.6-0.3,1.8-1.1c0.2-1,0.8-1.9,1.5-2.6
	c0.6-0.6,0.6-1.5,0.1-2.1C232.2,64.2,231.2,64.1,230.6,64.7L230.6,64.7z"/>
<path class="st39" d="M242.2,83.2c-0.6,1-1.3,2.1-1.9,3.1c-0.4,0.7-0.2,1.6,0.5,2.1c0.7,0.4,1.6,0.2,2.1-0.5c0.6-1,1.3-2.1,1.9-3.1
	c0.4-0.7,0.2-1.6-0.5-2.1C243.6,82.3,242.6,82.5,242.2,83.2L242.2,83.2z"/>
<path class="st37" d="M137.6,329c-0.8,24.9,4.8,48.3,32.7,58c18.7,6.5,40.8,2.7,54.2-12.2c14.4-16.1,16.3-35.1,15.3-55.7
	c-0.6-13.1-2.3-26.1-4.9-39c-1.8-8.7-4.3-17.8-10.7-24c-14.4-14-51-13.8-65.9,0.3c-14.7,13.9-17.4,37.6-19.4,56.6
	C138.2,318.3,137.8,323.7,137.6,329z"/>
<path class="st40" d="M185.6,260.1c-0.1,1.3-0.1,2.5-0.2,3.8c0,0.8,0.6,1.5,1.4,1.6c0.8,0,1.5-0.6,1.6-1.4c0.1-1.3,0.1-2.5,0.2-3.8
	c0-0.8-0.6-1.5-1.4-1.6C186.4,258.6,185.7,259.2,185.6,260.1L185.6,260.1z"/>
<path class="st40" d="M200,266.6c0.1,1.2,0.2,2.4,0.2,3.6c0.1,0.8,0.8,1.4,1.6,1.4c0.8-0.1,1.4-0.8,1.4-1.6
	c-0.1-1.2-0.2-2.4-0.2-3.6c-0.1-0.8-0.8-1.4-1.6-1.4C200.6,265.1,200,265.8,200,266.6L200,266.6z"/>
<path class="st40" d="M212.1,260.7c0.1,0.5,0.2,1.1,0.2,1.6l-0.1,1.4c-0.1,0.8,0.4,1.6,1.2,1.7c0.8,0.1,1.6-0.4,1.7-1.2
	c0.1-0.6,0.2-1.2,0.2-1.8c0-0.8-0.1-1.5-0.2-2.3c-0.2-0.8-1-1.3-1.8-1.1C212.4,259.1,211.9,259.9,212.1,260.7L212.1,260.7z"/>
<path class="st40" d="M218.6,272.8c-0.2,0.8-0.3,1.6-0.3,2.5l0.1,1.2c0.1,0.8,0.8,1.4,1.7,1.3c0.8-0.1,1.4-0.9,1.3-1.7l0-0.8
	c0-0.6,0.1-1.2,0.2-1.7c0.2-0.8-0.3-1.6-1.1-1.8C219.6,271.5,218.8,272,218.6,272.8L218.6,272.8z"/>
<path class="st40" d="M209.5,281.7c-0.2,1.1-0.3,2.2-0.5,3.3c-0.1,0.8,0.4,1.6,1.3,1.7c0.8,0.1,1.6-0.4,1.7-1.3
	c0.2-1.1,0.3-2.2,0.5-3.3c0.1-0.8-0.4-1.6-1.3-1.7C210.4,280.3,209.7,280.9,209.5,281.7L209.5,281.7z"/>
<path class="st40" d="M189.6,280.3c-0.1,0.6-0.2,1.3-0.2,1.9c-0.1,0.8,0.5,1.6,1.3,1.7c0.8,0.1,1.6-0.5,1.7-1.3
	c0.1-0.6,0.2-1.3,0.2-1.9c0.1-0.8-0.5-1.6-1.3-1.7C190.5,278.9,189.7,279.5,189.6,280.3L189.6,280.3z"/>
<path class="st40" d="M177.8,273.8c-0.2,0.9-0.3,1.8-0.3,2.8l0,0.5c0,0.8,0.8,1.5,1.6,1.4c0.8-0.1,1.5-0.8,1.4-1.6l0-0.3
	c0-0.7,0.1-1.4,0.2-2.1c0.2-0.8-0.3-1.6-1.1-1.8C178.8,272.5,178,273,177.8,273.8L177.8,273.8z"/>
<path class="st40" d="M170,256.4c-0.2,0.9-0.5,1.9-0.7,2.8c-0.2,0.8,0.3,1.6,1.1,1.8c0.8,0.2,1.6-0.3,1.8-1.1
	c0.2-0.9,0.5-1.9,0.7-2.9c0.2-0.8-0.3-1.6-1.1-1.8C171,255.2,170.2,255.6,170,256.4L170,256.4z"/>
<path class="st40" d="M161.9,271.5c-0.2,1.3-0.4,2.5-0.5,3.8c-0.1,0.8,0.5,1.6,1.3,1.7c0.8,0.1,1.6-0.5,1.7-1.3
	c0.2-1.3,0.3-2.5,0.5-3.8c0.1-0.8-0.5-1.6-1.3-1.7C162.8,270.1,162,270.7,161.9,271.5L161.9,271.5z"/>
<path class="st40" d="M167.1,285.8c-0.2,0.8-0.3,1.6-0.3,2.5l0.1,1.2c0.1,0.8,0.9,1.4,1.7,1.3c0.8-0.1,1.4-0.9,1.3-1.7l0-0.8
	c0-0.6,0.1-1.2,0.2-1.8c0.2-0.8-0.3-1.6-1.1-1.8C168.1,284.5,167.3,285,167.1,285.8L167.1,285.8z"/>
<path class="st40" d="M179.7,290.8c-0.1,1.2-0.2,2.4-0.3,3.6c-0.1,0.8,0.5,1.5,1.4,1.6c0.8,0.1,1.5-0.6,1.6-1.4
	c0.1-1.2,0.2-2.4,0.3-3.6c0.1-0.8-0.6-1.5-1.4-1.6C180.5,289.4,179.8,290,179.7,290.8L179.7,290.8z"/>
<path class="st40" d="M197.2,291.4l0,0.3c0,1.3,0.2,2.6,0.6,3.9c0.2,0.8,1.1,1.3,1.9,1c0.8-0.2,1.3-1.1,1-1.9c-0.3-1-0.4-2-0.4-3.1
	h-1.1l1.1,0.2l0-0.2h-1.1l1.1,0.2c0.1-0.8-0.5-1.6-1.3-1.7C198.1,290.1,197.3,290.6,197.2,291.4L197.2,291.4z"/>
<path class="st40" d="M218.6,289.2c-0.1,1-0.2,2.1-0.2,3.1c-0.1,0.8,0.5,1.5,1.4,1.6c0.8,0.1,1.5-0.5,1.6-1.4c0.1-1,0.2-2.1,0.2-3.1
	c0.1-0.8-0.5-1.5-1.4-1.6C219.4,287.7,218.6,288.3,218.6,289.2L218.6,289.2z"/>
<path class="st40" d="M152.5,290.2c-0.3,0.9-0.5,1.9-0.5,2.8c0,0.7,0.1,1.4,0.3,2.1c0.2,0.8,1,1.3,1.8,1.1c0.8-0.2,1.3-1,1.1-1.8
	L155,293c0-0.6,0.1-1.2,0.3-1.8c0.3-0.8-0.1-1.6-0.9-1.9C153.6,289,152.7,289.4,152.5,290.2L152.5,290.2z"/>
<path class="st40" d="M167.8,300.9c-0.5,1-0.8,2-0.8,3.1c0,0.5,0.1,1,0.2,1.6c0.2,0.8,1,1.3,1.8,1c0.8-0.2,1.3-1,1-1.8l-0.1-0.8
	c0-0.6,0.1-1.2,0.4-1.6c0.4-0.7,0.1-1.6-0.6-2C169.1,299.9,168.2,300.1,167.8,300.9L167.8,300.9z"/>
<path class="st40" d="M188.2,303l-0.2,1.2c-0.2,0.8,0.4,1.6,1.2,1.8c0.8,0.2,1.6-0.4,1.8-1.2l0.2-1.2c0.2-0.8-0.4-1.6-1.2-1.8
	C189.2,301.6,188.4,302.2,188.2,303"/>
<path class="st40" d="M209.4,303.1c-0.4,1.2-0.6,2.5-0.6,3.7l0,0.9c0.1,0.8,0.8,1.4,1.6,1.3c0.8-0.1,1.4-0.8,1.3-1.6l0-0.6
	c0-1,0.1-1.9,0.4-2.8c0.2-0.8-0.2-1.6-1-1.9C210.4,301.8,209.6,302.3,209.4,303.1L209.4,303.1z"/>
<path class="st40" d="M224.9,306.9l0,1c0,1,0.1,2,0.3,2.9c0.2,0.8,1,1.3,1.8,1.1c0.8-0.2,1.3-1,1.1-1.8c-0.2-0.8-0.2-1.5-0.2-2.3
	l0-0.8c0.1-0.8-0.5-1.5-1.4-1.6C225.7,305.5,225,306.1,224.9,306.9L224.9,306.9z"/>
<path class="st40" d="M216.6,319.2l0,0.7c0,0.7-0.1,1.4-0.2,2.2c-0.2,0.8,0.4,1.6,1.2,1.8c0.8,0.2,1.6-0.4,1.8-1.2
	c0.2-0.9,0.3-1.8,0.3-2.8l0-0.9c-0.1-0.8-0.8-1.4-1.6-1.4C217.2,317.7,216.6,318.4,216.6,319.2L216.6,319.2z"/>
<path class="st40" d="M197,317.3c-0.2,0.7-0.3,1.3-0.3,2c0,1,0.2,2.1,0.6,3c0.3,0.8,1.2,1.1,2,0.8c0.8-0.3,1.1-1.2,0.8-2
	c-0.2-0.6-0.4-1.2-0.4-1.8l0.2-1.2c0.2-0.8-0.2-1.6-1-1.8C198,316,197.2,316.5,197,317.3L197,317.3z"/>
<path class="st40" d="M179.4,317.5c-0.1,0.7-0.2,1.4-0.3,2.1c-0.1,0.8,0.5,1.6,1.3,1.7c0.8,0.1,1.6-0.5,1.7-1.3
	c0.1-0.7,0.2-1.4,0.3-2.1c0.1-0.8-0.5-1.6-1.3-1.7C180.3,316.1,179.6,316.7,179.4,317.5L179.4,317.5z"/>
<path class="st40" d="M153.1,311c-0.2,0.8-0.3,1.6-0.5,2.4c-0.2,0.8,0.4,1.6,1.2,1.8c0.8,0.2,1.6-0.4,1.8-1.2
	c0.2-0.8,0.3-1.6,0.5-2.4c0.2-0.8-0.4-1.6-1.2-1.8C154.1,309.7,153.3,310.2,153.1,311L153.1,311z"/>
<path class="st40" d="M163.3,321.2c-0.1,1.3-0.2,2.5-0.3,3.8c-0.1,0.8,0.6,1.5,1.4,1.6c0.8,0.1,1.5-0.6,1.6-1.4
	c0.1-1.3,0.2-2.5,0.3-3.8c0.1-0.8-0.6-1.5-1.4-1.6C164.1,319.7,163.4,320.3,163.3,321.2L163.3,321.2z"/>
<path class="st40" d="M145.8,326.6l0,1.4c0,1.2,0.1,2.3,0.3,3.5c0.1,0.8,0.9,1.4,1.7,1.2c0.8-0.1,1.4-0.9,1.2-1.7
	c-0.2-1-0.3-2-0.3-3l0-1.2c0.1-0.8-0.6-1.5-1.4-1.6C146.6,325.2,145.8,325.8,145.8,326.6L145.8,326.6z"/>
<path class="st40" d="M158.9,337.3c-0.2,0.6-0.2,1.2-0.2,1.8c0,0.9,0.2,1.8,0.5,2.7c0.3,0.8,1.2,1.1,1.9,0.8c0.8-0.3,1.1-1.2,0.8-2
	c-0.2-0.5-0.3-1-0.3-1.5l0.1-1.1c0.2-0.8-0.3-1.6-1.1-1.8C159.9,336,159.1,336.5,158.9,337.3L158.9,337.3z"/>
<path class="st40" d="M174,331.2c0,1,0,2.1,0,3.1c0,0.8,0.7,1.5,1.5,1.5c0.8,0,1.5-0.7,1.5-1.5c0-1,0-2.1,0-3.1
	c0-0.8-0.7-1.5-1.5-1.5C174.6,329.7,174,330.4,174,331.2L174,331.2z"/>
<path class="st40" d="M167.6,348.8l-0.1,1c0,0.9,0.1,1.7,0.3,2.6c0.2,0.8,1,1.3,1.8,1.1c0.8-0.2,1.3-1,1.1-1.8
	c-0.2-0.6-0.2-1.2-0.2-1.8l0-0.7c0.1-0.8-0.5-1.6-1.3-1.6C168.4,347.4,167.7,348,167.6,348.8L167.6,348.8z"/>
<path class="st40" d="M146.5,347.7c-0.1,1.4-0.2,2.8-0.4,4.3c-0.1,0.8,0.5,1.5,1.4,1.6c0.8,0.1,1.5-0.5,1.6-1.4
	c0.1-1.4,0.2-2.8,0.4-4.2c0.1-0.8-0.5-1.5-1.4-1.6C147.3,346.3,146.6,346.9,146.5,347.7L146.5,347.7z"/>
<path class="st40" d="M156.2,357l0,1.4c0,1.3,0.1,2.6,0.3,3.9c0.1,0.8,0.9,1.4,1.7,1.2c0.8-0.1,1.4-0.9,1.2-1.7
	c-0.2-1.1-0.3-2.2-0.3-3.4l0-1.3c0-0.8-0.6-1.5-1.4-1.6C157,355.5,156.3,356.1,156.2,357L156.2,357z"/>
<path class="st40" d="M165,366c-0.1,1.2-0.2,2.4-0.3,3.5c-0.1,0.8,0.6,1.5,1.4,1.6c0.8,0.1,1.5-0.6,1.6-1.4c0.1-1.2,0.2-2.4,0.3-3.5
	c0.1-0.8-0.6-1.5-1.4-1.6C165.8,364.5,165.1,365.1,165,366L165,366z"/>
<path class="st40" d="M171.8,378.1c0.1,0.9,0.2,1.7,0.2,2.6c0.1,0.8,0.8,1.4,1.6,1.4c0.8-0.1,1.4-0.8,1.4-1.6
	c-0.1-0.9-0.2-1.7-0.2-2.6c-0.1-0.8-0.8-1.4-1.6-1.3C172.3,376.5,171.7,377.2,171.8,378.1L171.8,378.1z"/>
<path class="st40" d="M181.3,372.3c-0.2,0.8-0.3,1.6-0.3,2.5l0.1,1.2c0.1,0.8,0.9,1.4,1.7,1.3c0.8-0.1,1.4-0.9,1.3-1.7l-0.1-0.8
	c0-0.6,0.1-1.2,0.2-1.7c0.2-0.8-0.3-1.6-1.1-1.8C182.4,371,181.6,371.5,181.3,372.3L181.3,372.3z"/>
<path class="st40" d="M176.1,358.3l-0.1,1.3c0,0.8,0.1,1.7,0.3,2.5c0.2,0.8,1,1.3,1.8,1.1c0.8-0.2,1.3-1,1.1-1.8
	c-0.1-0.6-0.2-1.2-0.2-1.8l0.1-1c0.1-0.8-0.5-1.6-1.3-1.7C177,356.9,176.2,357.5,176.1,358.3L176.1,358.3z"/>
<path class="st40" d="M183.7,341.6c-0.6,1-0.9,2.1-0.9,3.3c0,0.8,0.1,1.6,0.4,2.3c0.3,0.8,1.2,1.1,1.9,0.8c0.8-0.3,1.1-1.2,0.8-1.9
	l-0.2-1.2c0-0.6,0.2-1.2,0.5-1.7c0.4-0.7,0.2-1.6-0.5-2.1C185.1,340.7,184.2,340.9,183.7,341.6L183.7,341.6z"/>
<path class="st40" d="M196.3,331.8c0.1,1.7,0.2,3.3,0.2,5c0,0.8,0.7,1.5,1.6,1.4c0.8,0,1.5-0.7,1.4-1.6c-0.1-1.7-0.2-3.3-0.2-5
	c0-0.8-0.7-1.5-1.6-1.4C196.8,330.2,196.2,330.9,196.3,331.8L196.3,331.8z"/>
<path class="st40" d="M207.9,330.1l-0.1,1c0,0.8,0.1,1.6,0.3,2.4c0.2,0.8,1,1.3,1.8,1c0.8-0.2,1.3-1,1-1.8c-0.1-0.5-0.2-1.1-0.2-1.6
	l0-0.7c0.1-0.8-0.5-1.6-1.3-1.6C208.7,328.7,208,329.3,207.9,330.1L207.9,330.1z"/>
<path class="st40" d="M225.2,327.9c0.2,1.1,0.2,2.1,0.2,3.2l0,1.2c0,0.8,0.6,1.5,1.4,1.6c0.8,0,1.5-0.6,1.6-1.4l0-1.4
	c0-1.2-0.1-2.5-0.3-3.7c-0.1-0.8-0.9-1.4-1.7-1.2C225.6,326.3,225.1,327.1,225.2,327.9L225.2,327.9z"/>
<path class="st40" d="M218.5,343l0,1c0,0.9,0.1,1.9,0.3,2.8c0.2,0.8,1,1.3,1.8,1.1c0.8-0.2,1.3-1,1.1-1.8c-0.2-0.7-0.2-1.4-0.2-2.1
	l0-0.7c0.1-0.8-0.6-1.5-1.4-1.6C219.3,341.5,218.6,342.1,218.5,343L218.5,343z"/>
<path class="st40" d="M203,346.3c-0.2,0.6-0.4,1.3-0.4,1.9c0,0.7,0.1,1.3,0.4,2c0.3,0.8,1.2,1.1,1.9,0.8c0.8-0.3,1.1-1.2,0.8-1.9
	l-0.2-0.9l0.2-0.9c0.3-0.8-0.1-1.6-0.9-1.9C204.1,345.2,203.3,345.6,203,346.3L203,346.3z"/>
<path class="st40" d="M191.5,356.3c-0.2,1.1-0.4,2.2-0.4,3.3l0.1,1.4c0.1,0.8,0.8,1.4,1.6,1.3c0.8-0.1,1.4-0.8,1.3-1.6l-0.1-1.1
	c0-0.9,0.1-1.8,0.3-2.7c0.2-0.8-0.3-1.6-1.1-1.8C192.5,354.9,191.7,355.5,191.5,356.3L191.5,356.3z"/>
<path class="st40" d="M215.3,356.2c-0.4,0.8-0.6,1.7-0.6,2.7c0,0.5,0.1,1.1,0.2,1.7c0.2,0.8,1,1.3,1.8,1c0.8-0.2,1.3-1,1-1.8
	l-0.1-0.9l0.3-1.5c0.3-0.8,0-1.6-0.8-2C216.6,355.1,215.7,355.5,215.3,356.2L215.3,356.2z"/>
<path class="st40" d="M203.6,364.7c-0.2,0.8-0.3,1.5-0.3,2.3l0.1,1.1c0.1,0.8,0.9,1.4,1.7,1.3c0.8-0.1,1.4-0.9,1.3-1.7l0-0.7
	c0-0.5,0.1-1,0.2-1.5c0.2-0.8-0.3-1.6-1.1-1.8C204.7,363.5,203.8,363.9,203.6,364.7L203.6,364.7z"/>
<path class="st40" d="M192.4,374.9c-0.4,0.9-0.6,1.8-0.6,2.7c0,0.6,0.1,1.3,0.3,1.9c0.3,0.8,1.1,1.2,1.9,0.9
	c0.8-0.3,1.2-1.1,0.9-1.9l-0.2-1l0.3-1.4c0.4-0.7,0-1.6-0.7-2C193.6,373.8,192.7,374.2,192.4,374.9L192.4,374.9z"/>
<path class="st40" d="M211.4,372.7c0,0.8,0,1.6,0,2.4c0,0.8,0.7,1.5,1.5,1.5c0.8,0,1.5-0.7,1.5-1.5c0-0.8,0-1.6,0-2.4
	c0-0.8-0.7-1.5-1.5-1.5C212.1,371.2,211.4,371.9,211.4,372.7L211.4,372.7z"/>
<path class="st40" d="M227.6,350.8c-0.4,1-0.6,2.1-0.6,3.2l0.1,0.9c0.1,0.8,0.9,1.4,1.7,1.3c0.8-0.1,1.4-0.9,1.3-1.7l0-0.5
	c0-0.7,0.1-1.4,0.4-2c0.3-0.8-0.1-1.6-0.8-1.9C228.8,349.7,228,350,227.6,350.8L227.6,350.8z"/>
<path class="st38" d="M274.6,295.6c3.6,13.1,5.3,26.7,5.3,40.4c0,21.1-3.9,42.4-10.8,62.4c-0.3,0.8,0.1,1.6,0.9,1.8
	c0.8,0.3,1.6-0.1,1.8-0.9c6.9-20.3,10.9-41.9,10.9-63.4c0-13.9-1.7-27.8-5.4-41.2c-0.2-0.8-1-1.2-1.8-1
	C274.8,294,274.3,294.8,274.6,295.6L274.6,295.6z"/>
</svg>
