<?xml version="1.0" encoding="utf-8"?>
<!-- Generator: Adobe Illustrator 28.0.0, SVG Export Plug-In . SVG Version: 6.00 Build 0)  -->
<svg version="1.1" id="Capa_1" xmlns="http://www.w3.org/2000/svg" xmlns:xlink="http://www.w3.org/1999/xlink" x="0px" y="0px"
	 viewBox="0 0 385 474.2" style="enable-background:new 0 0 385 474.2;" xml:space="preserve">
<style type="text/css">
	.st0{fill:#97A7B0;}
	.st1{fill:#F5EDE3;}
	.st2{fill:#F9B7BB;}
	.st3{fill:#DED9D6;}
	.st4{fill:#665067;}
	.st5{fill:#89C9D1;}
	.st6{fill:#F1F2F2;}
	.st7{fill:#E7E3DE;}
	.st8{fill:#CED5DB;}
	.st9{fill:#BEC4CD;}
	.st10{fill:#E6946D;}
	.st11{fill:#E18261;}
	.st12{fill:#D1D6DC;}
	.st13{fill:#ACB8C1;}
	.st14{fill:#E7E9EA;}
	.st15{fill:#565D6B;}
	.st16{fill:#4B525F;}
	.st17{fill:#9C6B66;}
	.st18{fill:#F7E7C0;}
	.st19{fill:#F5CEA7;}
	.st20{fill:#FFFFFF;}
	.st21{fill:#C5CAD3;}
	.st22{fill:#ACB5C2;}
	.st23{fill:#F9E8AB;}
	.st24{fill:#F5C98A;}
	.st25{fill:#F2AC79;}
	.st26{fill:#F1A874;}
	.st27{fill:#F7A8B2;}
	.st28{fill:#CB9683;}
	.st29{fill:#C08977;}
	.st30{fill:#BC8A78;}
	.st31{fill:#B6786C;}
	.st32{fill:#F5DEC7;}
	.st33{fill:#D6A189;}
	.st34{fill:#F6D1A0;}
	.st35{fill:#F4BE89;}
	.st36{fill:#D48B6F;}
	.st37{fill:#F3C9B7;}
	.st38{fill:#C1775A;}
	.st39{fill:#D59979;}
	.st40{fill:#F2B59B;}
	.st41{fill:#DB9572;}
	.st42{fill:#F8B4BD;}
	.st43{fill:#FACAD3;}
	.st44{fill:#F7D37F;}
	.st45{fill:#BCDFE9;}
	.st46{fill:#F7CE6D;}
</style>
<path class="st45" d="M132.6,228.2c-20.8-15.5-38-35.3-50.1-57.6c-6.9-12.9-12.2-26.8-12.8-41.3c-0.6-14.5,3.9-29.6,14.5-40.3
	c27.6-28,71.8-27.8,90.7,7.1c15.9,29.3,19.7,65.6,17.6,98.4c-0.8,13.4,1,49.9-18.9,53.1C158.9,249.9,143.1,236,132.6,228.2z"/>
<path class="st20" d="M92.1,168.3c2.3,4.4,5.4,8.7,9.8,11.1c4.4,2.4,10.5,2.2,13.9-1.5c3.5-3.8,3.1-9.7,1.6-14.6
	c-2.9-9.1-8.8-17-12.1-26c-2.6-7.1-3.4-14.8-4.1-22.3c-0.3-3.7-0.7-7.8-3.3-10.5c-11.1-12.3-13.7,18.7-13.9,23.4
	C83.2,141.7,85.5,155.9,92.1,168.3z"/>
<path class="st17" d="M70,240.8c-3.9-15.3-8.5-33.6-8.5-51c0-15.1,3.4-29.3,13.4-40.3c1.1-1.3,2.3-2.2,3.4-2.3l0.3,0l1.2,0.4
	l0.4,0.6l1.8-0.1l-1.8,0.1v0h0.1l-0.1,0l0,0h0.1l-0.1,0l-0.2,0.2l-0.4,0.1v0.2l0.1-0.2l-0.1,0v0.2l0.1-0.2l-0.2,0.4l0.4-0.3
	l-0.2-0.2l-0.2,0.4l0.4-0.3c-0.6-0.8-1.7-1.1-2.6-0.5c-0.8,0.6-1.1,1.7-0.5,2.6c0.7,1,1.8,1.5,2.8,1.5c1.1,0,2-0.4,2.8-1.1
	c0.8-0.7,1.4-1.7,1.4-2.9l0-0.2l0,0c-0.1-1.4-0.9-2.6-1.9-3.3c-1-0.7-2.2-1.1-3.4-1.1l-0.8,0.1c-2.5,0.4-4.2,2-5.5,3.5
	c-10.8,11.9-14.4,27.2-14.4,42.8c0,18,4.7,36.6,8.6,51.9c0.3,1,1.3,1.6,2.3,1.3C69.7,242.8,70.3,241.8,70,240.8L70,240.8z"/>
<path class="st17" d="M313.5,214.7l15.5,19.9c9-12.1,14.5-26.7,15.9-41.6C336,202.1,325.3,209.6,313.5,214.7z"/>
<path class="st17" d="M138,376.3c-0.4,2.8-0.6,5.7-0.6,8.5c0,2.7,0.2,5.4,0.5,8.1c0.1,1.1,1.1,1.9,2.2,1.7c1.1-0.1,1.9-1.1,1.7-2.2
	c-0.3-2.5-0.5-5.1-0.5-7.6c0-2.7,0.2-5.3,0.5-8c0.1-1.1-0.6-2.1-1.7-2.2C139.2,374.5,138.2,375.3,138,376.3L138,376.3z"/>
<path class="st17" d="M158.8,382.4c-0.4,2.4-0.6,4.9-0.6,7.4c0,4,0.5,8.1,1.6,11.9c0.3,1.1,1.4,1.7,2.5,1.4c1.1-0.3,1.7-1.4,1.4-2.5
	c-1-3.5-1.5-7.2-1.5-10.9c0-2.3,0.2-4.5,0.6-6.8c0.2-1.1-0.6-2.1-1.6-2.3C160,380.6,159,381.3,158.8,382.4L158.8,382.4z"/>
<path class="st17" d="M249.9,376.7c1.5,5.2,2.8,10.5,3.7,15.9c0.2,1.1,1.2,1.8,2.3,1.6c1.1-0.2,1.8-1.2,1.6-2.3
	c-0.9-5.5-2.2-11-3.8-16.4c-0.3-1.1-1.4-1.7-2.5-1.3C250.2,374.5,249.6,375.6,249.9,376.7L249.9,376.7z"/>
<path class="st17" d="M275,367.1c1.2,5.5,1.8,11.1,1.9,16.7c0,1.1,0.9,2,2,2c1.1,0,2-0.9,2-2c-0.1-5.9-0.7-11.7-1.9-17.5
	c-0.2-1.1-1.3-1.8-2.4-1.5C275.4,364.9,274.7,366,275,367.1L275,367.1z"/>
<path class="st46" d="M330.9,316.2c-4.2,8.5-9.1,15.9-14.6,22.5c-13.6,16.3-30.5,27.4-48.3,35.1c-8.5,3.7-17.1,6.6-25.7,8.9
	c-7.2,2-14.4,3.5-21.7,4.5c-16.6,2.5-33.5,2.8-50.1,0.8c-33.3-3.8-65.9-16.4-95.3-37.1c-24.3-17.2-43.5-50.2-31.5-86.9
	c2.3-6.9,5.6-13.2,9.7-18.5c7.1-9.3,16.4-15.7,26.3-17.6c6.6-1.3,13.4-0.7,20,0.1c10.8,1.4,21.5,3.5,32.1,6.3
	c4.9,1.3,9.9,2.8,14.9,3.7c1.4,0.2,2.8,0.5,4.1,0.6c17.4,2,30.6-5.6,45.1-13.3c3.9-2.1,7.9-4.2,12.1-6.1c3.4-1.5,6.8-3.1,10.3-4.5
	c13.4-5.8,27.6-11.1,41.3-13.4c2.7-0.5,5.5-0.8,8.2-1c15.5-1.2,31.2,2,44.8,11.4c16,11.2,28.3,32.2,29.6,55.6
	C343.2,284.6,338.1,301.6,330.9,316.2z"/>
<path class="st17" d="M220.6,387.3c-16.6,2.5-33.5,2.8-50.1,0.8c16.1-44.3,4.5-115.2-23.8-150c1.4,0.2,2.8,0.5,4.1,0.6
	c17.4,2,30.6-5.6,45.1-13.3C222.5,270.3,232.8,335.5,220.6,387.3z"/>
<path class="st17" d="M316.3,338.8c-13.6,16.3-30.5,27.4-48.3,35.1l0-1.3c5.1-56.5-14.2-116.9-49.7-157.8
	c13.4-5.8,27.6-11.1,41.3-13.4c2.7-0.5,5.5-0.8,8.2-1C296.2,239.6,313.4,288.7,316.3,338.8z"/>
<path class="st45" d="M173.4,192.7c4.3-27.3,14.3-53.3,29.1-75.7c8.5-12.9,18.8-24.8,31.9-32.5c13.1-7.7,29.2-10.9,44.2-6.2
	c39.1,12.2,60.1,54.1,37,89.1c-19.4,29.5-51,51-82.3,65.2c-12.8,5.8-45.6,25.6-58,8.4C166,228.2,171.3,206.4,173.4,192.7z"/>
<path class="st20" d="M255.6,90.9c4.3-1.7,9.1-2.8,13.6-1.7c4.5,1.1,8.6,5,8.7,9.8c0.1,4.9-3.8,8.8-7.9,11.3
	c-7.6,4.7-16.6,6.5-24.4,10.9c-6.2,3.4-11.5,8.3-16.6,13.3c-2.5,2.4-5.3,5-8.8,5.4c-15.3,1.8,2-21.9,4.8-25.4
	C233,104.2,243.4,95.6,255.6,90.9z"/>
<path class="st17" d="M103.3,232.3c-0.1-2.5-0.1-4.9-0.1-7.4c0-13.3,1.4-26.7,5.3-39.3c1.6-5.1,4.7-13.6,8.9-20.6
	c2.1-3.5,4.5-6.6,7.1-8.8c2.6-2.2,5.3-3.4,8.2-3.4h0.1l0.1,0c0.7,0,1.5,0.4,2.1,1c0.6,0.6,1,1.4,1,1.9l-0.3,0.7l1.6,1.3l0.3-2
	c-0.9-0.1-1.8-0.3-2.7-0.4c-1.1-0.2-2.1,0.6-2.3,1.7c-0.2,1.1,0.6,2.1,1.7,2.3c0.9,0.1,1.8,0.3,2.7,0.4c0.7,0.1,1.4-0.2,1.9-0.7
	c0.8-1,1.2-2.2,1.2-3.3c0-1.9-0.9-3.5-2.2-4.8c-1.3-1.2-3-2.2-4.9-2.2l0,2l0.1-2l-0.3,0c-4.1,0-7.7,1.8-10.8,4.3
	c-9.2,7.8-14.8,23.3-17.3,31.3c-4.1,13.1-5.5,26.9-5.5,40.5c0,2.5,0.1,5,0.1,7.5c0,1.1,1,2,2.1,2
	C102.4,234.4,103.3,233.4,103.3,232.3L103.3,232.3z"/>
<path class="st20" d="M112.1,272.1c0.3,7.6-6.8,14-15.9,14.3c-9.1,0.3-16.6-5.5-16.9-13.1c-0.3-7.6,6.8-14,15.9-14.3
	C104.3,258.6,111.9,264.5,112.1,272.1z"/>
<path class="st4" d="M100.3,274.3c0.2,5.6-4.2,10.3-9.8,10.5c-5.6,0.2-10.3-4.2-10.5-9.8c-0.2-5.6,4.2-10.3,9.8-10.5
	C95.4,264.3,100.1,268.7,100.3,274.3z"/>
<path class="st6" d="M98.2,268.3c0.1,1.4-1,2.5-2.4,2.6c-1.4,0.1-2.5-1-2.6-2.4c0-1.4,1-2.5,2.4-2.6C97,265.9,98.1,266.9,98.2,268.3
	z"/>
<path class="st20" d="M28.5,272.1c-0.3,7.6,6.8,14,15.9,14.3c9.1,0.3,16.6-5.5,16.9-13.1c0.3-7.6-6.8-14-15.9-14.3
	C36.3,258.6,28.8,264.5,28.5,272.1z"/>
<path class="st4" d="M40.3,274.3c-0.2,5.6,4.2,10.3,9.8,10.5c5.6,0.2,10.3-4.2,10.6-9.8c0.2-5.6-4.2-10.3-9.8-10.5
	C45.2,264.3,40.5,268.7,40.3,274.3z"/>
<path class="st6" d="M42.4,268.3c0,1.4,1,2.5,2.4,2.6c1.4,0.1,2.5-1,2.6-2.4c0.1-1.4-1-2.5-2.4-2.6
	C43.6,265.9,42.5,266.9,42.4,268.3z"/>
<path class="st4" d="M63.4,286.8c-0.1,3.8,2,6.3,4.9,6.8l1.2,0.1c1.2,0,2.8-0.3,4.1-1.4c1.3-1.1,2.3-3,2.3-5.9l-0.9-0.9l-0.9,0.9
	c0,2.5-0.8,3.8-1.7,4.6c-0.9,0.8-2.1,1-3,1l-0.8-0.1c-2.1-0.5-3.5-1.9-3.5-5.2l-0.9-0.9L63.4,286.8L63.4,286.8z"/>
</svg>
