<?xml version="1.0" encoding="utf-8"?>
<!-- Generator: Adobe Illustrator 28.0.0, SVG Export Plug-In . SVG Version: 6.00 Build 0)  -->
<svg version="1.1" id="Capa_1" xmlns="http://www.w3.org/2000/svg" xmlns:xlink="http://www.w3.org/1999/xlink" x="0px" y="0px"
	 viewBox="0 0 385 474.2" style="enable-background:new 0 0 385 474.2;" xml:space="preserve">
<style type="text/css">
	.st0{fill:#BC8A78;}
	.st1{fill:#F6D1A0;}
	.st2{fill:#9C6B66;}
	.st3{fill:#B6786C;}
	.st4{fill:#665067;}
	.st5{fill:#FFFFFF;}
	.st6{fill:#F1F2F2;}
	.st7{fill:#F4BE89;}
	.st8{fill:#565D6B;}
	.st9{fill:#E7E9EA;}
	.st10{fill:#4B525F;}
	.st11{fill:#97A7B0;}
	.st12{fill:#F5EDE3;}
	.st13{fill:#F9B7BB;}
	.st14{fill:#DED9D6;}
	.st15{fill:#89C9D1;}
	.st16{fill:#F5C98A;}
	.st17{fill:#F2AC79;}
	.st18{fill:#F1A874;}
	.st19{fill:#F7A8B2;}
</style>
<path class="st8" d="M127.7,411.1c5.8,15.7,11.8,32.1,12.5,35.8c1.4,7.7-5.3,12.8-10,18.6c-5.5,6.8,3.2,8.6,9.5,8.7
	c10.1,0.1,20.1-0.6,30.1-2.2c1.5-0.2,3.1-0.5,4.4-1.4c1.7-1.1,2.7-2.9,3.2-4.7c6.5-21.9,10.9-37.8,15.5-54.5l-1-0.4H127.7z"/>
<path class="st8" d="M259.4,446.9c0.7-3.7,6.7-20.1,12.5-35.8h-64.2l-1,0.4c4.6,16.7,9,32.5,15.5,54.5c0.5,1.8,1.5,3.6,3.2,4.7
	c1.3,0.8,2.8,1.1,4.4,1.4c9.9,1.6,20,2.4,30.1,2.2c6.3-0.1,15-2,9.5-8.7C264.7,459.7,258,454.6,259.4,446.9z"/>
<path class="st8" d="M285,35.4c15.5,0.3,30.6,10.7,35.8,25.3c5.2,14.6-0.2,32.5-13,41.3c-1.7,1.2-3.6,2.2-5.6,2.3
	c-2.5,0-4.8-1.4-6.9-2.8c-8.4-5.8-16.5-12.1-24.2-18.8c-7-6.1-14.5-11.1-21.5-17.2c-1.1-0.9-2.2-1.9-2.7-3.3c-0.7-1.9-0.2-4,0.7-5.9
	C253.7,43.5,271.3,35.1,285,35.4z"/>
<path class="st8" d="M102.7,35.4c-15.5-0.3-30.9,9.6-36.6,24c-5.7,14.4-0.9,32.5,11.6,41.8c1.6,1.2,3.5,2.3,5.5,2.4
	c2.5,0.1,4.8-1.2,7-2.6c8.6-5.5,16.9-11.5,24.8-18c7.2-5.8,14.9-10.6,22-16.4c1.1-0.9,2.2-1.9,2.8-3.2c0.8-1.9,0.3-4-0.5-5.9
	C133.8,44.6,116.5,35.6,102.7,35.4z"/>
<path class="st9" d="M294.7,288.4c-11.1-26.6-28.1-50.8-44.9-74.9c-2.2-3.2-4.7-6.5-8.5-8c-3.1-1.2-6.7-1-10.2-0.8
	c-25.7,1.7-51.4,3.3-77.1,5l-10.9,2.8c-19.1,25.8-33.8,54.1-43.4,83.7c-13.4,41.3-15.6,94.6,25.7,120.9
	c20.2,12.8,45.8,12.3,68.8,13.4c32.7,1.6,84.2-2.6,103.4-34C316.4,365.6,307.7,319.5,294.7,288.4z"/>
<path class="st8" d="M133.5,311.4c54.7,7.1,112.3,4.5,164.6-14.1c-1.1-3-2.2-6-3.4-8.9c-11.1-26.6-28.1-50.8-44.9-74.9
	c-2.2-3.2-4.7-6.5-8.5-8c-3.1-1.2-6.7-1-10.2-0.8c-25.7,1.7-51.4,3.3-77.1,5l-10.9,2.8c-19.1,25.8-33.8,54.1-43.4,83.7
	c-0.6,1.9-1.2,3.9-1.8,5.9C109,307.3,121.4,309.8,133.5,311.4z"/>
<path class="st9" d="M289,83.2c-29-25.2-70.9-33.4-108.3-30.9c-7.5,0.5-15,1.5-22.3,2.9c-24.6,4.8-51.7,18.1-69.3,36.4
	c-33.3,34.5-28.2,96.2,2,124.3c33.2,30.8,90.4,39.4,134.3,30.3c19.1-3.9,40-10.4,56.6-20.4c28.4-17.1,42.4-53.7,37.1-86.3
	C315.8,118.7,305,97.1,289,83.2z"/>
<path class="st10" d="M183.9,256.7c-0.2,1-0.3,1.9-0.3,2.9c0,0.7,0.1,1.5,0.2,2.2c0.1,0.6,0.7,1.1,1.3,0.9c0.6-0.1,1-0.7,0.9-1.3
	c-0.1-0.6-0.1-1.2-0.1-1.8c0-0.8,0.1-1.6,0.3-2.4c0.1-0.6-0.3-1.2-0.9-1.4C184.6,255.7,184,256.1,183.9,256.7L183.9,256.7z"/>
<path class="st10" d="M195.8,261.5l-0.1,1.3c0,0.9,0.1,1.8,0.3,2.7c0.1,0.6,0.8,1,1.4,0.9c0.6-0.1,1-0.8,0.9-1.4
	c-0.2-0.7-0.2-1.5-0.2-2.2l0.1-1.1c0.1-0.6-0.4-1.2-1-1.3C196.5,260.4,195.9,260.8,195.8,261.5L195.8,261.5z"/>
<path class="st10" d="M206.9,252.4c0.2,1.1,0.3,2.3,0.4,3.4c0.1,0.6,0.7,1.1,1.3,1c0.6-0.1,1.1-0.7,1-1.3c-0.2-1.2-0.3-2.3-0.5-3.4
	c-0.1-0.6-0.7-1.1-1.3-1C207.3,251.2,206.8,251.8,206.9,252.4L206.9,252.4z"/>
<path class="st10" d="M222.6,257.5c0.1,1.4,0.2,2.8,0.3,4.2c0,0.6,0.6,1.1,1.2,1.1c0.6,0,1.1-0.6,1.1-1.2c-0.1-1.4-0.2-2.8-0.3-4.2
	c0-0.6-0.6-1.1-1.2-1.1C223,256.3,222.5,256.9,222.6,257.5L222.6,257.5z"/>
<path class="st10" d="M213.3,271.4c-0.1,0.9-0.2,1.8-0.2,2.7c0,0.7,0,1.4,0.1,2.1c0.1,0.6,0.7,1.1,1.3,1c0.6-0.1,1.1-0.7,1-1.3
	c-0.1-0.6-0.1-1.2-0.1-1.8c0-0.8,0.1-1.6,0.2-2.3c0.1-0.6-0.3-1.2-0.9-1.3C214,270.4,213.4,270.8,213.3,271.4L213.3,271.4z"/>
<path class="st10" d="M201.5,279.9l-0.1,1.2c0,1.1,0.1,2.2,0.3,3.2c0.1,0.6,0.7,1,1.4,0.9c0.6-0.1,1-0.7,0.9-1.4
	c-0.2-0.9-0.3-1.9-0.3-2.8l0-1.1c0-0.6-0.4-1.2-1.1-1.2C202.1,278.8,201.5,279.3,201.5,279.9L201.5,279.9z"/>
<path class="st10" d="M185.8,272.1c0,1,0,2,0,2.9c0,0.6,0.5,1.2,1.2,1.2c0.6,0,1.2-0.5,1.2-1.2c0-1,0-2,0-2.9c0-0.6-0.5-1.2-1.2-1.2
	C186.3,271,185.8,271.5,185.8,272.1L185.8,272.1z"/>
<path class="st10" d="M172.3,256.2c0,1.6,0,3.1,0,4.7c0,0.6,0.5,1.2,1.2,1.2c0.6,0,1.2-0.5,1.2-1.2c0-1.6,0-3.1,0-4.7
	c0-0.6-0.5-1.2-1.2-1.2C172.8,255,172.3,255.5,172.3,256.2L172.3,256.2z"/>
<path class="st8" d="M247.1,255.4c-1.2,15.2-13.3,27.6-18.2,42.1c-2,6-2.5,13.4,2.2,18.1c3.9,3.9,10.4,4.7,15.8,3.2
	c5.4-1.5,9.9-4.9,13.9-8.6c10.2-9.4,18.2-20.8,23.1-33.4"/>
<path class="st10" d="M245.9,255.3c-1.1,14.6-13.1,26.9-18.2,41.8c-0.9,2.7-1.5,5.7-1.5,8.7c0,3.8,1.1,7.7,4,10.7
	c3,3,7.3,4.3,11.5,4.3c1.9,0,3.7-0.3,5.5-0.7c5.7-1.6,10.4-5.1,14.5-8.9c10.4-9.5,18.4-21.1,23.4-33.8c0.2-0.6-0.1-1.4-0.7-1.6
	c-0.6-0.2-1.4,0.1-1.6,0.7c-4.8,12.3-12.7,23.7-22.8,32.9c-3.9,3.6-8.3,6.9-13.4,8.3c-1.6,0.4-3.2,0.6-4.9,0.6
	c-3.7,0-7.4-1.2-9.8-3.5c-2.4-2.4-3.3-5.5-3.3-8.9c0-2.6,0.6-5.4,1.4-7.9c4.7-14.2,16.9-26.6,18.3-42.4c0.1-0.7-0.5-1.3-1.1-1.3
	C246.6,254.1,246,254.7,245.9,255.3L245.9,255.3z"/>
<path class="st10" d="M231.2,313.3c0.8-2.2,2.2-4.3,3.9-5.9l0-1.7l-1.7,0c-2,1.9-3.5,4.2-4.5,6.8c-0.2,0.6,0.1,1.4,0.7,1.6
	C230.2,314.2,230.9,313.9,231.2,313.3L231.2,313.3z"/>
<path class="st10" d="M242.9,319.7c1.2-3.1,2.9-6.1,5-8.7c0.4-0.5,0.3-1.3-0.2-1.7c-0.5-0.4-1.3-0.4-1.7,0.2c-2.3,2.8-4.1,6-5.4,9.4
	c-0.2,0.6,0.1,1.4,0.7,1.6C241.9,320.7,242.6,320.4,242.9,319.7L242.9,319.7z"/>
<path class="st8" d="M145.1,255.7c2.3,15.1,15.2,26.6,21.1,40.7c2.5,5.9,3.5,13.2-0.9,18.2c-3.6,4.1-10,5.4-15.6,4.3
	c-5.5-1.1-10.3-4.2-14.5-7.6c-10.9-8.6-19.6-19.5-25.4-31.7"/>
<path class="st10" d="M143.9,255.9c2.5,15.7,15.5,27.2,21.2,41c1.2,2.8,2,6,2,9c0,2.9-0.8,5.7-2.7,7.9c-2.5,2.8-6.6,4.3-10.8,4.3
	c-1.2,0-2.4-0.1-3.6-0.3c-5.2-1-9.8-4-14-7.3c-10.7-8.5-19.3-19.2-25-31.2c-0.3-0.6-1-0.9-1.6-0.6c-0.6,0.3-0.9,1-0.6,1.6
	c5.8,12.3,14.7,23.4,25.7,32.1c4.3,3.4,9.2,6.6,15,7.8c1.3,0.3,2.7,0.4,4.1,0.4c4.7,0,9.5-1.6,12.7-5.1c2.4-2.8,3.3-6.1,3.3-9.5
	c0-3.4-0.9-6.9-2.2-9.9c-6.1-14.5-18.9-25.9-21-40.5c-0.1-0.7-0.7-1.1-1.4-1C144.3,254.6,143.8,255.2,143.9,255.9L143.9,255.9z"/>
<path class="st10" d="M167.4,311.2c-1.1-2.5-2.8-4.7-4.9-6.5c-0.5-0.4-1.3-0.4-1.7,0.2c-0.4,0.5-0.4,1.3,0.2,1.7
	c1.8,1.5,3.3,3.5,4.3,5.6c0.3,0.6,1,0.9,1.6,0.6C167.4,312.6,167.6,311.8,167.4,311.2L167.4,311.2z"/>
<path class="st10" d="M156.1,318.5c-1.5-3.3-3.6-6.3-6-9l-1.7-0.1l-0.1,1.7c2.3,2.5,4.2,5.3,5.6,8.3c0.3,0.6,1,0.9,1.6,0.6
	C156.1,319.8,156.4,319.1,156.1,318.5L156.1,318.5z"/>
<path class="st8" d="M214.3,164.2c0.3,14.5,6.6,26.9,19.4,31.3c19.5,6.6,58.3,7.3,65-17c5.6-20.3-15.4-39.1-32.4-45.6
	c-12.6-4.8-29.4-9.4-41.4,0.2C216,140.2,213.9,148.8,214.3,164.2z"/>
<path class="st8" d="M172.2,164.2c-0.3,14.5-6.6,26.9-19.4,31.3c-19.5,6.6-58.4,7.3-65-17c-5.6-20.3,15.4-39.1,32.4-45.6
	c12.6-4.8,29.4-9.4,41.4,0.2C170.5,140.2,172.5,148.8,172.2,164.2z"/>
<path class="st4" d="M192.8,189.9c-0.1,2.2-0.6,4.5-2,6c-1,1.1-2.6,1.8-4.2,1.8c-1,0-2-0.2-2.9-0.7c-2-1.1-3.4-3.5-3.3-5.9l0-0.7
	l-0.7-0.9l-0.9,0.7l-0.1,0.9c0,2.9,1.5,5.8,4.2,7.3c1.1,0.6,2.4,0.9,3.6,0.9c2,0,4-0.8,5.4-2.3c1.7-1.9,2.2-4.5,2.4-6.9l-0.7-0.8
	L192.8,189.9L192.8,189.9z"/>
<path class="st4" d="M193,189.5c0.4,2.4,0.9,5.1,2.8,7c1.6,1.6,3.5,2.4,5.4,2.3c4.1,0,7.7-3.6,7.7-8.5l0-0.9l-0.8-0.7l-0.7,0.8
	l0,0.8c0,4.1-3,6.9-6.1,6.9c-1.4,0-2.9-0.6-4.2-1.9c-1.5-1.4-2-3.8-2.3-6.1l-0.9-0.7L193,189.5L193,189.5z"/>
<path class="st4" d="M200.9,180.4c6.1,0.8-3.8,9.4-6.6,9.5c-1.3,0-2.6-0.7-3.8-1.3c-3.6-1.9-8.2-5.7-3.5-7.6
	C190.7,179.5,197.2,179.9,200.9,180.4z"/>
<path class="st6" d="M279.3,156.3c0.5,12.7-11.4,23.4-26.6,24c-15.2,0.6-27.9-9.3-28.4-22c-0.5-12.7,11.4-23.4,26.6-24
	C266.1,133.7,278.8,143.6,279.3,156.3z"/>
<path class="st4" d="M259.5,159.9c0.4,9.4-7,17.3-16.4,17.7c-9.4,0.4-17.3-7-17.7-16.4c-0.4-9.4,7-17.3,16.4-17.7
	C251.3,143.2,259.2,150.5,259.5,159.9z"/>
<path class="st6" d="M106.2,162.1c0.5,12.7,13.2,22.5,28.4,22c15.2-0.6,27.1-11.3,26.6-24c-0.5-12.7-13.2-22.5-28.4-21.9
	C117.6,138.7,105.7,149.4,106.2,162.1z"/>
<path class="st4" d="M125.4,164.3c0.4,9.4,8.3,16.7,17.7,16.4c9.4-0.4,16.7-8.3,16.4-17.7c-0.4-9.4-8.3-16.7-17.7-16.4
	C132.3,147,125,154.9,125.4,164.3z"/>
<path class="st6" d="M255.9,149.9c0.1,2.3-1.7,4.2-4,4.3c-2.3,0.1-4.2-1.7-4.3-4c-0.1-2.3,1.7-4.2,4-4.3
	C253.8,145.8,255.8,147.6,255.9,149.9z"/>
<path class="st6" d="M156.6,153c0.1,2.3-1.7,4.2-4,4.3c-2.3,0.1-4.2-1.7-4.3-4c-0.1-2.3,1.7-4.2,4-4.3
	C154.6,148.9,156.5,150.7,156.6,153z"/>
</svg>
